%TF.GenerationSoftware,KiCad,Pcbnew,7.0.5-0*%
%TF.CreationDate,2023-08-08T15:43:03-04:00*%
%TF.ProjectId,Lemmingometre,4c656d6d-696e-4676-9f6d-657472652e6b,rev?*%
%TF.SameCoordinates,Original*%
%TF.FileFunction,Legend,Top*%
%TF.FilePolarity,Positive*%
%FSLAX46Y46*%
G04 Gerber Fmt 4.6, Leading zero omitted, Abs format (unit mm)*
G04 Created by KiCad (PCBNEW 7.0.5-0) date 2023-08-08 15:43:03*
%MOMM*%
%LPD*%
G01*
G04 APERTURE LIST*
%ADD10C,0.150000*%
%ADD11C,0.120000*%
G04 APERTURE END LIST*
D10*
X55100000Y-66700000D02*
X113100000Y-66700000D01*
X113100000Y-95800000D01*
X55100000Y-95800000D01*
X55100000Y-66700000D01*
X212441541Y-96703152D02*
X212679636Y-97369819D01*
X212679636Y-97369819D02*
X212917731Y-96703152D01*
X213251065Y-96465057D02*
X213298684Y-96417438D01*
X213298684Y-96417438D02*
X213393922Y-96369819D01*
X213393922Y-96369819D02*
X213632017Y-96369819D01*
X213632017Y-96369819D02*
X213727255Y-96417438D01*
X213727255Y-96417438D02*
X213774874Y-96465057D01*
X213774874Y-96465057D02*
X213822493Y-96560295D01*
X213822493Y-96560295D02*
X213822493Y-96655533D01*
X213822493Y-96655533D02*
X213774874Y-96798390D01*
X213774874Y-96798390D02*
X213203446Y-97369819D01*
X213203446Y-97369819D02*
X213822493Y-97369819D01*
%TO.C,J3*%
X245074819Y-84626189D02*
X244074819Y-84626189D01*
X244074819Y-84626189D02*
X244074819Y-84245237D01*
X244074819Y-84245237D02*
X244122438Y-84149999D01*
X244122438Y-84149999D02*
X244170057Y-84102380D01*
X244170057Y-84102380D02*
X244265295Y-84054761D01*
X244265295Y-84054761D02*
X244408152Y-84054761D01*
X244408152Y-84054761D02*
X244503390Y-84102380D01*
X244503390Y-84102380D02*
X244551009Y-84149999D01*
X244551009Y-84149999D02*
X244598628Y-84245237D01*
X244598628Y-84245237D02*
X244598628Y-84626189D01*
X245074819Y-83626189D02*
X244074819Y-83626189D01*
X245074819Y-82578571D02*
X244598628Y-82911904D01*
X245074819Y-83149999D02*
X244074819Y-83149999D01*
X244074819Y-83149999D02*
X244074819Y-82769047D01*
X244074819Y-82769047D02*
X244122438Y-82673809D01*
X244122438Y-82673809D02*
X244170057Y-82626190D01*
X244170057Y-82626190D02*
X244265295Y-82578571D01*
X244265295Y-82578571D02*
X244408152Y-82578571D01*
X244408152Y-82578571D02*
X244503390Y-82626190D01*
X244503390Y-82626190D02*
X244551009Y-82673809D01*
X244551009Y-82673809D02*
X244598628Y-82769047D01*
X244598628Y-82769047D02*
X244598628Y-83149999D01*
X245074819Y-81626190D02*
X245074819Y-82197618D01*
X245074819Y-81911904D02*
X244074819Y-81911904D01*
X244074819Y-81911904D02*
X244217676Y-82007142D01*
X244217676Y-82007142D02*
X244312914Y-82102380D01*
X244312914Y-82102380D02*
X244360533Y-82197618D01*
%TO.C,J1*%
X145024819Y-85296189D02*
X144024819Y-85296189D01*
X144024819Y-85296189D02*
X144024819Y-84915237D01*
X144024819Y-84915237D02*
X144072438Y-84819999D01*
X144072438Y-84819999D02*
X144120057Y-84772380D01*
X144120057Y-84772380D02*
X144215295Y-84724761D01*
X144215295Y-84724761D02*
X144358152Y-84724761D01*
X144358152Y-84724761D02*
X144453390Y-84772380D01*
X144453390Y-84772380D02*
X144501009Y-84819999D01*
X144501009Y-84819999D02*
X144548628Y-84915237D01*
X144548628Y-84915237D02*
X144548628Y-85296189D01*
X145024819Y-84296189D02*
X144024819Y-84296189D01*
X145024819Y-83248571D02*
X144548628Y-83581904D01*
X145024819Y-83819999D02*
X144024819Y-83819999D01*
X144024819Y-83819999D02*
X144024819Y-83439047D01*
X144024819Y-83439047D02*
X144072438Y-83343809D01*
X144072438Y-83343809D02*
X144120057Y-83296190D01*
X144120057Y-83296190D02*
X144215295Y-83248571D01*
X144215295Y-83248571D02*
X144358152Y-83248571D01*
X144358152Y-83248571D02*
X144453390Y-83296190D01*
X144453390Y-83296190D02*
X144501009Y-83343809D01*
X144501009Y-83343809D02*
X144548628Y-83439047D01*
X144548628Y-83439047D02*
X144548628Y-83819999D01*
X144024819Y-82915237D02*
X144024819Y-82296190D01*
X144024819Y-82296190D02*
X144405771Y-82629523D01*
X144405771Y-82629523D02*
X144405771Y-82486666D01*
X144405771Y-82486666D02*
X144453390Y-82391428D01*
X144453390Y-82391428D02*
X144501009Y-82343809D01*
X144501009Y-82343809D02*
X144596247Y-82296190D01*
X144596247Y-82296190D02*
X144834342Y-82296190D01*
X144834342Y-82296190D02*
X144929580Y-82343809D01*
X144929580Y-82343809D02*
X144977200Y-82391428D01*
X144977200Y-82391428D02*
X145024819Y-82486666D01*
X145024819Y-82486666D02*
X145024819Y-82772380D01*
X145024819Y-82772380D02*
X144977200Y-82867618D01*
X144977200Y-82867618D02*
X144929580Y-82915237D01*
%TO.C,J2*%
X35334819Y-84726189D02*
X34334819Y-84726189D01*
X34334819Y-84726189D02*
X34334819Y-84345237D01*
X34334819Y-84345237D02*
X34382438Y-84249999D01*
X34382438Y-84249999D02*
X34430057Y-84202380D01*
X34430057Y-84202380D02*
X34525295Y-84154761D01*
X34525295Y-84154761D02*
X34668152Y-84154761D01*
X34668152Y-84154761D02*
X34763390Y-84202380D01*
X34763390Y-84202380D02*
X34811009Y-84249999D01*
X34811009Y-84249999D02*
X34858628Y-84345237D01*
X34858628Y-84345237D02*
X34858628Y-84726189D01*
X35334819Y-83726189D02*
X34334819Y-83726189D01*
X35334819Y-82678571D02*
X34858628Y-83011904D01*
X35334819Y-83249999D02*
X34334819Y-83249999D01*
X34334819Y-83249999D02*
X34334819Y-82869047D01*
X34334819Y-82869047D02*
X34382438Y-82773809D01*
X34382438Y-82773809D02*
X34430057Y-82726190D01*
X34430057Y-82726190D02*
X34525295Y-82678571D01*
X34525295Y-82678571D02*
X34668152Y-82678571D01*
X34668152Y-82678571D02*
X34763390Y-82726190D01*
X34763390Y-82726190D02*
X34811009Y-82773809D01*
X34811009Y-82773809D02*
X34858628Y-82869047D01*
X34858628Y-82869047D02*
X34858628Y-83249999D01*
X34430057Y-82297618D02*
X34382438Y-82249999D01*
X34382438Y-82249999D02*
X34334819Y-82154761D01*
X34334819Y-82154761D02*
X34334819Y-81916666D01*
X34334819Y-81916666D02*
X34382438Y-81821428D01*
X34382438Y-81821428D02*
X34430057Y-81773809D01*
X34430057Y-81773809D02*
X34525295Y-81726190D01*
X34525295Y-81726190D02*
X34620533Y-81726190D01*
X34620533Y-81726190D02*
X34763390Y-81773809D01*
X34763390Y-81773809D02*
X35334819Y-82345237D01*
X35334819Y-82345237D02*
X35334819Y-81726190D01*
%TO.C,G\u002A\u002A\u002A*%
G36*
X212050456Y-92347433D02*
G01*
X212050456Y-92852289D01*
X212265096Y-92852289D01*
X212479735Y-92852289D01*
X212479735Y-92916782D01*
X212479735Y-92981274D01*
X212197580Y-92981274D01*
X211915425Y-92981274D01*
X211915425Y-92411926D01*
X211915425Y-91842577D01*
X211982941Y-91842577D01*
X212050456Y-91842577D01*
X212050456Y-92347433D01*
G37*
G36*
X213297985Y-91909085D02*
G01*
X213297985Y-91975593D01*
X213033968Y-91975593D01*
X212769952Y-91975593D01*
X212769952Y-92138840D01*
X212769952Y-92302087D01*
X213031953Y-92302087D01*
X213293954Y-92302087D01*
X213293954Y-92366579D01*
X213293954Y-92431072D01*
X213031953Y-92431072D01*
X212769952Y-92431072D01*
X212769952Y-92639657D01*
X212769952Y-92848243D01*
X213031449Y-92848754D01*
X213292946Y-92849266D01*
X213292946Y-92914766D01*
X213292946Y-92980266D01*
X212963933Y-92980776D01*
X212634920Y-92981286D01*
X212634920Y-92411932D01*
X212634920Y-91842577D01*
X212966452Y-91842577D01*
X213297985Y-91842577D01*
X213297985Y-91909085D01*
G37*
G36*
X214273138Y-93489901D02*
G01*
X214288294Y-93492157D01*
X214316206Y-93499804D01*
X214342865Y-93510917D01*
X214368619Y-93525672D01*
X214393813Y-93544244D01*
X214398714Y-93548347D01*
X214409250Y-93557996D01*
X214416630Y-93566440D01*
X214421288Y-93574301D01*
X214423660Y-93582204D01*
X214423978Y-93584545D01*
X214423147Y-93594718D01*
X214418990Y-93604139D01*
X214412208Y-93612024D01*
X214403505Y-93617594D01*
X214393585Y-93620065D01*
X214391970Y-93620121D01*
X214385567Y-93619697D01*
X214379746Y-93618061D01*
X214373626Y-93614759D01*
X214366322Y-93609337D01*
X214359129Y-93603253D01*
X214347043Y-93593082D01*
X214336443Y-93585112D01*
X214326125Y-93578536D01*
X214314889Y-93572552D01*
X214309054Y-93569764D01*
X214293351Y-93563358D01*
X214277766Y-93558985D01*
X214261584Y-93556596D01*
X214244089Y-93556139D01*
X214224563Y-93557564D01*
X214202292Y-93560819D01*
X214196850Y-93561795D01*
X214178287Y-93565904D01*
X214163432Y-93570852D01*
X214151998Y-93576924D01*
X214143701Y-93584402D01*
X214138257Y-93593569D01*
X214135379Y-93604708D01*
X214134783Y-93618103D01*
X214135046Y-93623177D01*
X214138335Y-93643772D01*
X214145100Y-93665107D01*
X214154989Y-93686662D01*
X214167649Y-93707914D01*
X214182728Y-93728344D01*
X214199873Y-93747429D01*
X214218733Y-93764651D01*
X214238954Y-93779486D01*
X214242179Y-93781533D01*
X214264332Y-93793541D01*
X214286835Y-93802059D01*
X214310474Y-93807306D01*
X214336041Y-93809502D01*
X214343243Y-93809601D01*
X214355559Y-93809833D01*
X214364666Y-93810687D01*
X214371369Y-93812396D01*
X214376470Y-93815193D01*
X214380774Y-93819314D01*
X214382081Y-93820908D01*
X214387492Y-93830730D01*
X214389341Y-93841214D01*
X214387823Y-93851567D01*
X214383136Y-93860998D01*
X214375477Y-93868713D01*
X214369324Y-93872287D01*
X214362625Y-93874176D01*
X214352853Y-93875429D01*
X214340916Y-93876047D01*
X214327723Y-93876031D01*
X214314181Y-93875383D01*
X214301198Y-93874104D01*
X214289682Y-93872196D01*
X214289558Y-93872170D01*
X214271620Y-93867787D01*
X214255381Y-93862485D01*
X214239054Y-93855625D01*
X214227343Y-93849924D01*
X214198931Y-93833551D01*
X214173023Y-93814471D01*
X214149275Y-93792374D01*
X214127340Y-93766953D01*
X214113995Y-93748652D01*
X214104975Y-93734269D01*
X214095951Y-93717714D01*
X214087552Y-93700297D01*
X214080409Y-93683325D01*
X214075149Y-93668108D01*
X214074952Y-93667437D01*
X214070065Y-93645811D01*
X214067675Y-93623878D01*
X214067816Y-93602661D01*
X214070526Y-93583183D01*
X214071836Y-93577864D01*
X214078619Y-93560641D01*
X214088939Y-93544859D01*
X214102480Y-93530772D01*
X214118928Y-93518632D01*
X214137967Y-93508693D01*
X214159283Y-93501206D01*
X214170807Y-93498439D01*
X214199984Y-93493260D01*
X214226988Y-93490098D01*
X214251485Y-93488972D01*
X214273138Y-93489901D01*
G37*
G36*
X214526424Y-91842751D02*
G01*
X214532205Y-91843084D01*
X214535212Y-91843586D01*
X214535436Y-91843782D01*
X214535718Y-91845923D01*
X214536546Y-91851860D01*
X214537892Y-91861399D01*
X214539729Y-91874345D01*
X214542027Y-91890505D01*
X214544760Y-91909685D01*
X214547900Y-91931690D01*
X214551418Y-91956327D01*
X214555288Y-91983401D01*
X214559480Y-92012719D01*
X214563968Y-92044086D01*
X214568724Y-92077309D01*
X214573719Y-92112193D01*
X214578925Y-92148544D01*
X214584316Y-92186169D01*
X214589863Y-92224873D01*
X214595538Y-92264462D01*
X214601313Y-92304742D01*
X214607161Y-92345520D01*
X214613054Y-92386600D01*
X214618964Y-92427790D01*
X214624863Y-92468895D01*
X214630723Y-92509721D01*
X214636516Y-92550074D01*
X214642215Y-92589760D01*
X214647792Y-92628585D01*
X214653218Y-92666355D01*
X214658467Y-92702876D01*
X214663509Y-92737953D01*
X214668318Y-92771394D01*
X214672866Y-92803003D01*
X214677124Y-92832587D01*
X214681066Y-92859952D01*
X214684662Y-92884903D01*
X214687885Y-92907248D01*
X214690708Y-92926791D01*
X214693102Y-92943338D01*
X214695039Y-92956696D01*
X214696493Y-92966671D01*
X214697435Y-92973068D01*
X214697836Y-92975694D01*
X214697844Y-92975732D01*
X214699003Y-92981274D01*
X214632335Y-92981274D01*
X214612047Y-92981223D01*
X214595637Y-92981066D01*
X214582956Y-92980797D01*
X214573852Y-92980413D01*
X214568175Y-92979909D01*
X214565773Y-92979278D01*
X214565667Y-92979092D01*
X214565399Y-92976852D01*
X214564617Y-92970868D01*
X214563353Y-92961374D01*
X214561640Y-92948606D01*
X214559508Y-92932798D01*
X214556991Y-92914185D01*
X214554120Y-92893002D01*
X214550928Y-92869485D01*
X214547447Y-92843867D01*
X214543708Y-92816385D01*
X214539744Y-92787273D01*
X214535587Y-92756765D01*
X214531269Y-92725097D01*
X214526823Y-92692505D01*
X214522280Y-92659222D01*
X214517672Y-92625483D01*
X214513032Y-92591524D01*
X214508391Y-92557580D01*
X214503783Y-92523886D01*
X214499238Y-92490675D01*
X214494789Y-92458185D01*
X214490468Y-92426648D01*
X214486308Y-92396301D01*
X214482339Y-92367378D01*
X214478596Y-92340114D01*
X214475108Y-92314745D01*
X214471910Y-92291504D01*
X214469032Y-92270628D01*
X214466507Y-92252350D01*
X214464367Y-92236907D01*
X214462644Y-92224532D01*
X214461371Y-92215461D01*
X214460579Y-92209929D01*
X214460301Y-92208165D01*
X214459380Y-92209904D01*
X214456758Y-92215093D01*
X214452515Y-92223565D01*
X214446735Y-92235157D01*
X214439498Y-92249702D01*
X214430888Y-92267036D01*
X214420985Y-92286992D01*
X214409872Y-92309406D01*
X214397631Y-92334113D01*
X214384343Y-92360947D01*
X214370090Y-92389743D01*
X214354955Y-92420336D01*
X214339019Y-92452560D01*
X214322364Y-92486250D01*
X214305072Y-92521241D01*
X214287224Y-92557367D01*
X214269130Y-92594006D01*
X214078401Y-92980266D01*
X214057840Y-92980266D01*
X214037278Y-92980266D01*
X213844642Y-92591808D01*
X213826201Y-92554636D01*
X213808231Y-92518442D01*
X213790812Y-92483388D01*
X213774027Y-92449640D01*
X213757959Y-92417361D01*
X213742690Y-92386716D01*
X213728301Y-92357870D01*
X213714875Y-92330985D01*
X213702494Y-92306227D01*
X213691240Y-92283760D01*
X213681195Y-92263748D01*
X213672442Y-92246356D01*
X213665062Y-92231748D01*
X213659138Y-92220087D01*
X213654752Y-92211539D01*
X213651987Y-92206267D01*
X213650923Y-92204437D01*
X213650916Y-92204438D01*
X213650540Y-92206514D01*
X213649652Y-92212392D01*
X213648277Y-92221880D01*
X213646444Y-92234783D01*
X213644177Y-92250911D01*
X213641505Y-92270069D01*
X213638452Y-92292065D01*
X213635047Y-92316707D01*
X213631316Y-92343802D01*
X213627285Y-92373157D01*
X213622980Y-92404579D01*
X213618429Y-92437876D01*
X213613658Y-92472854D01*
X213608693Y-92509322D01*
X213603562Y-92547086D01*
X213598290Y-92585953D01*
X213597349Y-92592897D01*
X213544870Y-92980266D01*
X213480882Y-92980799D01*
X213416893Y-92981331D01*
X213416989Y-92975760D01*
X213417278Y-92973320D01*
X213418113Y-92967051D01*
X213419471Y-92957114D01*
X213421329Y-92943669D01*
X213423666Y-92926879D01*
X213426458Y-92906903D01*
X213429682Y-92883903D01*
X213433316Y-92858040D01*
X213437336Y-92829476D01*
X213441722Y-92798371D01*
X213446448Y-92764886D01*
X213451494Y-92729182D01*
X213456836Y-92691421D01*
X213462451Y-92651764D01*
X213468317Y-92610372D01*
X213474411Y-92567405D01*
X213480710Y-92523025D01*
X213487192Y-92477392D01*
X213493833Y-92430669D01*
X213497216Y-92406887D01*
X213577347Y-91843585D01*
X213593891Y-91843585D01*
X213610436Y-91843585D01*
X213833481Y-92293521D01*
X213853342Y-92333577D01*
X213872741Y-92372677D01*
X213891598Y-92410668D01*
X213909840Y-92447397D01*
X213927388Y-92482710D01*
X213944167Y-92516454D01*
X213960100Y-92548476D01*
X213975111Y-92578623D01*
X213989123Y-92606741D01*
X214002060Y-92632678D01*
X214013846Y-92656281D01*
X214024404Y-92677395D01*
X214033658Y-92695868D01*
X214041532Y-92711546D01*
X214047948Y-92724277D01*
X214052832Y-92733907D01*
X214056105Y-92740283D01*
X214057692Y-92743252D01*
X214057834Y-92743458D01*
X214058828Y-92741674D01*
X214061523Y-92736427D01*
X214065843Y-92727868D01*
X214071713Y-92716152D01*
X214079056Y-92701432D01*
X214087796Y-92683862D01*
X214097858Y-92663594D01*
X214109166Y-92640784D01*
X214121643Y-92615583D01*
X214135214Y-92588145D01*
X214149802Y-92558625D01*
X214165333Y-92527175D01*
X214181729Y-92493950D01*
X214198915Y-92459101D01*
X214216816Y-92422784D01*
X214235354Y-92385151D01*
X214254454Y-92346356D01*
X214274041Y-92306552D01*
X214280663Y-92293090D01*
X214502182Y-91842723D01*
X214518809Y-91842650D01*
X214526424Y-91842751D01*
G37*
G36*
X213405638Y-91493941D02*
G01*
X213506459Y-91493947D01*
X213603666Y-91493959D01*
X213697241Y-91493977D01*
X213787169Y-91494000D01*
X213873432Y-91494029D01*
X213956016Y-91494063D01*
X214034903Y-91494103D01*
X214110077Y-91494148D01*
X214181522Y-91494199D01*
X214249221Y-91494255D01*
X214313157Y-91494316D01*
X214373316Y-91494383D01*
X214429679Y-91494455D01*
X214482232Y-91494533D01*
X214530957Y-91494616D01*
X214575838Y-91494704D01*
X214616858Y-91494797D01*
X214654002Y-91494896D01*
X214687253Y-91494999D01*
X214716595Y-91495108D01*
X214742010Y-91495222D01*
X214763484Y-91495342D01*
X214780999Y-91495466D01*
X214794539Y-91495596D01*
X214804088Y-91495730D01*
X214809629Y-91495870D01*
X214810748Y-91495929D01*
X214876443Y-91502940D01*
X214940597Y-91513673D01*
X215003257Y-91528141D01*
X215064466Y-91546359D01*
X215124268Y-91568343D01*
X215182708Y-91594106D01*
X215239830Y-91623664D01*
X215292216Y-91654828D01*
X215344940Y-91690595D01*
X215395260Y-91729509D01*
X215443037Y-91771398D01*
X215488135Y-91816088D01*
X215530418Y-91863405D01*
X215569749Y-91913177D01*
X215605991Y-91965230D01*
X215639007Y-92019391D01*
X215668660Y-92075487D01*
X215694815Y-92133344D01*
X215717334Y-92192788D01*
X215717839Y-92194263D01*
X215734258Y-92246908D01*
X215748026Y-92300664D01*
X215758876Y-92354395D01*
X215765686Y-92399833D01*
X215766286Y-92404614D01*
X215766855Y-92409147D01*
X215767396Y-92413537D01*
X215767908Y-92417892D01*
X215768393Y-92422317D01*
X215768851Y-92426920D01*
X215769282Y-92431806D01*
X215769688Y-92437083D01*
X215770070Y-92442856D01*
X215770428Y-92449232D01*
X215770763Y-92456318D01*
X215771076Y-92464220D01*
X215771367Y-92473045D01*
X215771637Y-92482898D01*
X215771888Y-92493887D01*
X215772119Y-92506118D01*
X215772332Y-92519697D01*
X215772527Y-92534731D01*
X215772705Y-92551326D01*
X215772867Y-92569590D01*
X215773014Y-92589627D01*
X215773146Y-92611545D01*
X215773264Y-92635450D01*
X215773369Y-92661449D01*
X215773462Y-92689648D01*
X215773543Y-92720154D01*
X215773614Y-92753072D01*
X215773674Y-92788510D01*
X215773725Y-92826575D01*
X215773768Y-92867371D01*
X215773803Y-92911007D01*
X215773831Y-92957587D01*
X215773853Y-93007220D01*
X215773869Y-93060011D01*
X215773881Y-93116067D01*
X215773888Y-93175494D01*
X215773893Y-93238399D01*
X215773895Y-93304888D01*
X215773896Y-93375067D01*
X215773895Y-93449044D01*
X215773895Y-93526924D01*
X215773895Y-93542561D01*
X215773895Y-93621221D01*
X215773896Y-93695956D01*
X215773895Y-93766873D01*
X215773894Y-93834079D01*
X215773890Y-93897680D01*
X215773882Y-93957783D01*
X215773872Y-94014493D01*
X215773856Y-94067917D01*
X215773836Y-94118163D01*
X215773809Y-94165335D01*
X215773775Y-94209541D01*
X215773734Y-94250887D01*
X215773685Y-94289480D01*
X215773626Y-94325425D01*
X215773558Y-94358830D01*
X215773479Y-94389801D01*
X215773388Y-94418444D01*
X215773285Y-94444866D01*
X215773169Y-94469173D01*
X215773040Y-94491472D01*
X215772896Y-94511869D01*
X215772737Y-94530470D01*
X215772562Y-94547382D01*
X215772370Y-94562712D01*
X215772160Y-94576565D01*
X215771932Y-94589048D01*
X215771685Y-94600269D01*
X215771419Y-94610332D01*
X215771131Y-94619345D01*
X215770822Y-94627414D01*
X215770491Y-94634646D01*
X215770138Y-94641146D01*
X215769760Y-94647022D01*
X215769358Y-94652379D01*
X215768931Y-94657325D01*
X215768478Y-94661966D01*
X215767998Y-94666407D01*
X215767491Y-94670756D01*
X215766955Y-94675120D01*
X215766390Y-94679603D01*
X215765796Y-94684314D01*
X215765674Y-94685289D01*
X215755772Y-94748366D01*
X215741968Y-94810611D01*
X215724337Y-94871841D01*
X215702955Y-94931877D01*
X215677899Y-94990538D01*
X215649243Y-95047642D01*
X215617063Y-95103008D01*
X215581435Y-95156457D01*
X215552489Y-95195184D01*
X215524148Y-95229486D01*
X215492872Y-95264017D01*
X215459592Y-95297848D01*
X215425233Y-95330051D01*
X215390726Y-95359698D01*
X215376863Y-95370810D01*
X215326870Y-95407596D01*
X215274481Y-95441503D01*
X215220151Y-95472285D01*
X215164338Y-95499693D01*
X215107497Y-95523480D01*
X215072538Y-95536098D01*
X215011751Y-95554797D01*
X214950960Y-95569685D01*
X214890464Y-95580691D01*
X214872007Y-95583279D01*
X214867946Y-95583820D01*
X214864192Y-95584338D01*
X214860654Y-95584834D01*
X214857243Y-95585308D01*
X214853871Y-95585760D01*
X214850448Y-95586191D01*
X214846885Y-95586602D01*
X214843093Y-95586992D01*
X214838983Y-95587363D01*
X214834465Y-95587716D01*
X214829451Y-95588049D01*
X214823851Y-95588365D01*
X214817577Y-95588664D01*
X214810538Y-95588946D01*
X214802646Y-95589211D01*
X214793812Y-95589460D01*
X214783946Y-95589694D01*
X214772960Y-95589913D01*
X214760764Y-95590118D01*
X214747269Y-95590309D01*
X214732386Y-95590487D01*
X214716025Y-95590652D01*
X214698099Y-95590805D01*
X214678517Y-95590946D01*
X214657190Y-95591075D01*
X214634029Y-95591194D01*
X214608946Y-95591303D01*
X214581850Y-95591402D01*
X214552653Y-95591492D01*
X214521265Y-95591573D01*
X214487598Y-95591646D01*
X214451562Y-95591712D01*
X214413069Y-95591770D01*
X214372028Y-95591822D01*
X214328351Y-95591867D01*
X214281949Y-95591907D01*
X214232732Y-95591942D01*
X214180611Y-95591972D01*
X214125498Y-95591999D01*
X214067303Y-95592021D01*
X214005937Y-95592041D01*
X213941310Y-95592058D01*
X213873334Y-95592073D01*
X213801920Y-95592087D01*
X213726977Y-95592100D01*
X213648418Y-95592112D01*
X213566153Y-95592124D01*
X213480093Y-95592137D01*
X213390148Y-95592151D01*
X213330231Y-95592161D01*
X213253394Y-95592173D01*
X213177497Y-95592184D01*
X213102641Y-95592193D01*
X213028929Y-95592200D01*
X212956464Y-95592206D01*
X212885347Y-95592210D01*
X212815680Y-95592213D01*
X212747565Y-95592214D01*
X212681105Y-95592214D01*
X212616402Y-95592212D01*
X212553558Y-95592209D01*
X212492674Y-95592205D01*
X212433854Y-95592199D01*
X212377199Y-95592191D01*
X212322812Y-95592183D01*
X212270794Y-95592173D01*
X212221248Y-95592162D01*
X212174276Y-95592149D01*
X212129980Y-95592135D01*
X212088461Y-95592120D01*
X212049824Y-95592104D01*
X212014168Y-95592086D01*
X211981597Y-95592067D01*
X211952213Y-95592048D01*
X211926117Y-95592027D01*
X211903413Y-95592004D01*
X211884201Y-95591981D01*
X211868585Y-95591957D01*
X211856666Y-95591931D01*
X211848547Y-95591905D01*
X211844329Y-95591877D01*
X211843878Y-95591870D01*
X211779510Y-95588328D01*
X211715952Y-95580893D01*
X211653354Y-95569647D01*
X211591865Y-95554672D01*
X211531634Y-95536051D01*
X211472810Y-95513866D01*
X211415543Y-95488199D01*
X211359983Y-95459134D01*
X211306278Y-95426752D01*
X211254578Y-95391137D01*
X211205032Y-95352370D01*
X211157789Y-95310534D01*
X211112999Y-95265712D01*
X211070810Y-95217986D01*
X211031373Y-95167439D01*
X211003652Y-95127668D01*
X210987387Y-95102638D01*
X210973157Y-95079586D01*
X210960345Y-95057453D01*
X210948330Y-95035183D01*
X210940510Y-95019844D01*
X210913875Y-94962455D01*
X210891057Y-94904533D01*
X210871964Y-94845752D01*
X210856506Y-94785784D01*
X210844590Y-94724305D01*
X210836125Y-94660986D01*
X210834100Y-94639943D01*
X210833865Y-94635203D01*
X210833638Y-94626581D01*
X210833419Y-94614222D01*
X210833210Y-94598273D01*
X210833009Y-94578879D01*
X210832817Y-94556187D01*
X210832634Y-94530342D01*
X210832460Y-94501492D01*
X210832294Y-94469781D01*
X210832137Y-94435356D01*
X210831989Y-94398362D01*
X210831849Y-94358947D01*
X210831718Y-94317257D01*
X210831596Y-94273436D01*
X210831483Y-94227632D01*
X210831378Y-94179989D01*
X210831283Y-94130656D01*
X210831195Y-94079777D01*
X210831117Y-94027498D01*
X210831047Y-93973966D01*
X210830986Y-93919327D01*
X210830934Y-93863726D01*
X210830890Y-93807311D01*
X210830856Y-93750226D01*
X210830829Y-93692618D01*
X210830812Y-93634633D01*
X210830803Y-93576418D01*
X210830803Y-93568489D01*
X210881166Y-93568489D01*
X210881174Y-93626685D01*
X210881191Y-93684669D01*
X210881216Y-93742295D01*
X210881251Y-93799416D01*
X210881294Y-93855887D01*
X210881346Y-93911562D01*
X210881407Y-93966293D01*
X210881476Y-94019935D01*
X210881555Y-94072341D01*
X210881642Y-94123365D01*
X210881738Y-94172861D01*
X210881843Y-94220683D01*
X210881956Y-94266684D01*
X210882079Y-94310718D01*
X210882210Y-94352638D01*
X210882350Y-94392299D01*
X210882499Y-94429555D01*
X210882656Y-94464258D01*
X210882823Y-94496263D01*
X210882998Y-94525423D01*
X210883182Y-94551592D01*
X210883375Y-94574624D01*
X210883576Y-94594372D01*
X210883787Y-94610691D01*
X210884006Y-94623434D01*
X210884234Y-94632454D01*
X210884471Y-94637606D01*
X210884497Y-94637927D01*
X210892101Y-94701773D01*
X210903459Y-94764152D01*
X210918564Y-94825048D01*
X210937410Y-94884447D01*
X210959991Y-94942332D01*
X210986299Y-94998688D01*
X211016328Y-95053501D01*
X211050072Y-95106754D01*
X211087525Y-95158434D01*
X211123237Y-95202237D01*
X211133625Y-95213884D01*
X211146301Y-95227393D01*
X211160560Y-95242068D01*
X211175698Y-95257215D01*
X211191010Y-95272136D01*
X211205790Y-95286137D01*
X211219334Y-95298521D01*
X211230938Y-95308593D01*
X211231199Y-95308811D01*
X211282054Y-95348662D01*
X211334544Y-95384836D01*
X211388639Y-95417321D01*
X211444308Y-95446104D01*
X211501522Y-95471170D01*
X211560249Y-95492507D01*
X211620460Y-95510102D01*
X211682123Y-95523940D01*
X211742101Y-95533606D01*
X211760357Y-95535725D01*
X211781156Y-95537681D01*
X211803007Y-95539360D01*
X211824423Y-95540648D01*
X211843915Y-95541433D01*
X211845894Y-95541484D01*
X211849063Y-95541512D01*
X211856162Y-95541539D01*
X211867086Y-95541565D01*
X211881734Y-95541590D01*
X211900005Y-95541615D01*
X211921794Y-95541638D01*
X211947001Y-95541660D01*
X211975524Y-95541681D01*
X212007259Y-95541702D01*
X212042104Y-95541721D01*
X212079958Y-95541739D01*
X212120718Y-95541756D01*
X212164282Y-95541772D01*
X212210547Y-95541786D01*
X212259412Y-95541800D01*
X212310773Y-95541812D01*
X212364530Y-95541823D01*
X212420579Y-95541833D01*
X212478819Y-95541841D01*
X212539146Y-95541848D01*
X212601460Y-95541854D01*
X212665657Y-95541859D01*
X212731635Y-95541862D01*
X212799293Y-95541863D01*
X212868527Y-95541864D01*
X212939236Y-95541862D01*
X213011318Y-95541860D01*
X213084669Y-95541856D01*
X213159189Y-95541850D01*
X213234774Y-95541843D01*
X213311322Y-95541834D01*
X213329223Y-95541831D01*
X213421610Y-95541819D01*
X213510054Y-95541806D01*
X213594642Y-95541793D01*
X213675462Y-95541778D01*
X213752602Y-95541762D01*
X213826150Y-95541745D01*
X213896192Y-95541727D01*
X213962817Y-95541707D01*
X214026112Y-95541684D01*
X214086165Y-95541660D01*
X214143064Y-95541633D01*
X214196896Y-95541604D01*
X214247749Y-95541571D01*
X214295710Y-95541536D01*
X214340867Y-95541498D01*
X214383308Y-95541456D01*
X214423120Y-95541410D01*
X214460391Y-95541361D01*
X214495209Y-95541307D01*
X214527661Y-95541249D01*
X214557835Y-95541187D01*
X214585818Y-95541120D01*
X214611699Y-95541048D01*
X214635564Y-95540971D01*
X214657502Y-95540889D01*
X214677599Y-95540801D01*
X214695944Y-95540708D01*
X214712625Y-95540608D01*
X214727728Y-95540503D01*
X214741342Y-95540391D01*
X214753554Y-95540272D01*
X214764452Y-95540147D01*
X214774124Y-95540014D01*
X214782656Y-95539875D01*
X214790138Y-95539728D01*
X214796655Y-95539573D01*
X214802297Y-95539410D01*
X214807150Y-95539240D01*
X214811302Y-95539061D01*
X214814841Y-95538874D01*
X214817855Y-95538678D01*
X214820431Y-95538473D01*
X214822630Y-95538262D01*
X214852448Y-95534904D01*
X214879310Y-95531344D01*
X214904291Y-95527400D01*
X214928466Y-95522891D01*
X214952910Y-95517633D01*
X214974082Y-95512593D01*
X215032933Y-95496026D01*
X215090960Y-95475656D01*
X215147785Y-95451663D01*
X215203032Y-95424224D01*
X215256327Y-95393519D01*
X215307291Y-95359725D01*
X215328493Y-95344216D01*
X215377639Y-95304719D01*
X215423948Y-95262470D01*
X215467319Y-95217624D01*
X215507653Y-95170334D01*
X215544850Y-95120753D01*
X215578811Y-95069036D01*
X215609437Y-95015335D01*
X215636627Y-94959805D01*
X215660282Y-94902599D01*
X215680302Y-94843871D01*
X215696587Y-94783773D01*
X215699084Y-94772959D01*
X215706378Y-94737909D01*
X215712191Y-94703897D01*
X215716677Y-94669717D01*
X215719992Y-94634159D01*
X215722293Y-94596015D01*
X215722513Y-94591089D01*
X215722657Y-94585708D01*
X215722795Y-94576447D01*
X215722927Y-94563457D01*
X215723054Y-94546889D01*
X215723176Y-94526894D01*
X215723292Y-94503623D01*
X215723403Y-94477227D01*
X215723508Y-94447857D01*
X215723608Y-94415663D01*
X215723702Y-94380798D01*
X215723791Y-94343411D01*
X215723875Y-94303654D01*
X215723952Y-94261678D01*
X215724025Y-94217633D01*
X215724092Y-94171671D01*
X215724153Y-94123942D01*
X215724209Y-94074598D01*
X215724259Y-94023790D01*
X215724304Y-93971667D01*
X215724344Y-93918383D01*
X215724378Y-93864086D01*
X215724406Y-93808929D01*
X215724429Y-93753062D01*
X215724447Y-93696636D01*
X215724459Y-93639802D01*
X215724466Y-93582711D01*
X215724467Y-93525514D01*
X215724462Y-93468363D01*
X215724452Y-93411407D01*
X215724437Y-93354798D01*
X215724416Y-93298687D01*
X215724390Y-93243224D01*
X215724358Y-93188562D01*
X215724321Y-93134850D01*
X215724278Y-93082240D01*
X215724230Y-93030883D01*
X215724176Y-92980929D01*
X215724117Y-92932529D01*
X215724052Y-92885835D01*
X215723982Y-92840998D01*
X215723907Y-92798168D01*
X215723826Y-92757496D01*
X215723739Y-92719133D01*
X215723647Y-92683231D01*
X215723549Y-92649940D01*
X215723446Y-92619411D01*
X215723338Y-92591796D01*
X215723224Y-92567244D01*
X215723104Y-92545907D01*
X215722979Y-92527937D01*
X215722849Y-92513483D01*
X215722713Y-92502697D01*
X215722572Y-92495730D01*
X215722513Y-92494033D01*
X215718172Y-92431979D01*
X215710550Y-92372036D01*
X215699560Y-92313857D01*
X215685116Y-92257098D01*
X215667134Y-92201411D01*
X215645525Y-92146451D01*
X215624979Y-92101555D01*
X215597720Y-92049086D01*
X215568456Y-91999761D01*
X215536792Y-91953028D01*
X215502329Y-91908332D01*
X215464670Y-91865123D01*
X215427936Y-91827263D01*
X215383995Y-91786352D01*
X215339035Y-91749097D01*
X215292575Y-91715158D01*
X215244134Y-91684196D01*
X215193234Y-91655872D01*
X215165934Y-91642218D01*
X215110804Y-91617488D01*
X215055661Y-91596544D01*
X214999999Y-91579247D01*
X214943309Y-91565458D01*
X214885084Y-91555038D01*
X214824815Y-91547849D01*
X214818599Y-91547297D01*
X214814255Y-91547098D01*
X214806004Y-91546905D01*
X214793970Y-91546718D01*
X214778276Y-91546538D01*
X214759045Y-91546363D01*
X214736399Y-91546195D01*
X214710462Y-91546032D01*
X214681357Y-91545876D01*
X214649208Y-91545726D01*
X214614137Y-91545582D01*
X214576267Y-91545444D01*
X214535722Y-91545313D01*
X214492624Y-91545187D01*
X214447097Y-91545068D01*
X214399264Y-91544955D01*
X214349248Y-91544848D01*
X214297172Y-91544747D01*
X214243159Y-91544652D01*
X214187333Y-91544563D01*
X214129815Y-91544481D01*
X214070731Y-91544404D01*
X214010202Y-91544334D01*
X213948351Y-91544270D01*
X213885303Y-91544212D01*
X213821179Y-91544161D01*
X213756104Y-91544115D01*
X213690199Y-91544076D01*
X213623589Y-91544042D01*
X213556397Y-91544015D01*
X213488744Y-91543994D01*
X213420756Y-91543980D01*
X213352554Y-91543971D01*
X213284262Y-91543969D01*
X213216003Y-91543973D01*
X213147899Y-91543982D01*
X213080075Y-91543999D01*
X213012654Y-91544021D01*
X212945757Y-91544049D01*
X212879510Y-91544084D01*
X212814033Y-91544125D01*
X212749452Y-91544172D01*
X212685888Y-91544225D01*
X212623465Y-91544285D01*
X212562306Y-91544350D01*
X212502534Y-91544422D01*
X212444273Y-91544500D01*
X212387645Y-91544584D01*
X212332773Y-91544675D01*
X212279781Y-91544771D01*
X212228792Y-91544874D01*
X212179928Y-91544983D01*
X212133313Y-91545098D01*
X212089071Y-91545219D01*
X212047323Y-91545347D01*
X212008194Y-91545481D01*
X211971806Y-91545621D01*
X211938282Y-91545767D01*
X211907746Y-91545920D01*
X211880321Y-91546078D01*
X211856129Y-91546243D01*
X211835294Y-91546414D01*
X211817940Y-91546591D01*
X211804188Y-91546775D01*
X211794163Y-91546965D01*
X211787987Y-91547161D01*
X211786440Y-91547256D01*
X211725631Y-91554210D01*
X211667012Y-91564321D01*
X211610113Y-91577716D01*
X211554461Y-91594524D01*
X211499587Y-91614872D01*
X211445020Y-91638888D01*
X211438784Y-91641872D01*
X211383864Y-91670575D01*
X211330928Y-91702696D01*
X211280144Y-91738067D01*
X211231681Y-91776520D01*
X211185705Y-91817889D01*
X211142384Y-91862005D01*
X211101885Y-91908701D01*
X211064376Y-91957810D01*
X211030024Y-92009165D01*
X210998997Y-92062597D01*
X210979149Y-92101555D01*
X210954168Y-92157507D01*
X210933027Y-92213612D01*
X210915599Y-92270329D01*
X210901761Y-92328115D01*
X210891386Y-92387429D01*
X210884505Y-92446939D01*
X210884267Y-92451675D01*
X210884038Y-92460295D01*
X210883818Y-92472652D01*
X210883606Y-92488601D01*
X210883404Y-92507995D01*
X210883210Y-92530687D01*
X210883025Y-92556533D01*
X210882848Y-92585385D01*
X210882681Y-92617096D01*
X210882522Y-92651522D01*
X210882372Y-92688515D01*
X210882231Y-92727930D01*
X210882098Y-92769619D01*
X210881975Y-92813437D01*
X210881860Y-92859238D01*
X210881754Y-92906874D01*
X210881656Y-92956201D01*
X210881568Y-93007071D01*
X210881488Y-93059338D01*
X210881417Y-93112857D01*
X210881355Y-93167480D01*
X210881301Y-93223062D01*
X210881257Y-93279456D01*
X210881221Y-93336516D01*
X210881194Y-93394095D01*
X210881176Y-93452048D01*
X210881166Y-93510228D01*
X210881166Y-93568489D01*
X210830803Y-93568489D01*
X210830803Y-93518118D01*
X210830812Y-93459879D01*
X210830829Y-93401847D01*
X210830855Y-93344169D01*
X210830890Y-93286990D01*
X210830934Y-93230457D01*
X210830986Y-93174715D01*
X210831047Y-93119912D01*
X210831116Y-93066192D01*
X210831195Y-93013702D01*
X210831281Y-92962587D01*
X210831377Y-92912995D01*
X210831481Y-92865071D01*
X210831594Y-92818961D01*
X210831716Y-92774812D01*
X210831846Y-92732768D01*
X210831985Y-92692978D01*
X210832133Y-92655585D01*
X210832289Y-92620737D01*
X210832454Y-92588580D01*
X210832628Y-92559259D01*
X210832811Y-92532921D01*
X210833002Y-92509712D01*
X210833201Y-92489778D01*
X210833410Y-92473265D01*
X210833627Y-92460318D01*
X210833852Y-92451085D01*
X210834087Y-92445711D01*
X210834128Y-92445180D01*
X210841864Y-92379476D01*
X210853211Y-92315537D01*
X210868197Y-92253284D01*
X210886847Y-92192641D01*
X210909189Y-92133529D01*
X210935248Y-92075869D01*
X210965052Y-92019586D01*
X210997346Y-91966567D01*
X211033859Y-91913972D01*
X211073342Y-91863974D01*
X211115633Y-91816675D01*
X211160571Y-91772177D01*
X211207996Y-91730583D01*
X211257745Y-91691994D01*
X211309659Y-91656515D01*
X211363575Y-91624246D01*
X211419334Y-91595290D01*
X211476773Y-91569749D01*
X211535732Y-91547727D01*
X211596050Y-91529325D01*
X211657565Y-91514645D01*
X211720117Y-91503790D01*
X211726986Y-91502843D01*
X211731010Y-91502292D01*
X211734775Y-91501765D01*
X211738368Y-91501261D01*
X211741879Y-91500779D01*
X211745395Y-91500318D01*
X211749005Y-91499879D01*
X211752797Y-91499460D01*
X211756859Y-91499061D01*
X211761280Y-91498682D01*
X211766147Y-91498323D01*
X211771550Y-91497982D01*
X211777577Y-91497659D01*
X211784315Y-91497354D01*
X211791854Y-91497066D01*
X211800281Y-91496795D01*
X211809684Y-91496540D01*
X211820153Y-91496300D01*
X211831775Y-91496076D01*
X211844639Y-91495867D01*
X211858833Y-91495672D01*
X211874445Y-91495490D01*
X211891563Y-91495322D01*
X211910276Y-91495166D01*
X211930673Y-91495023D01*
X211952841Y-91494891D01*
X211976868Y-91494770D01*
X212002844Y-91494661D01*
X212030856Y-91494561D01*
X212060993Y-91494471D01*
X212093343Y-91494390D01*
X212127994Y-91494318D01*
X212165034Y-91494254D01*
X212204553Y-91494198D01*
X212246637Y-91494149D01*
X212291376Y-91494107D01*
X212338858Y-91494071D01*
X212389171Y-91494041D01*
X212442403Y-91494016D01*
X212498643Y-91493995D01*
X212557979Y-91493979D01*
X212620499Y-91493967D01*
X212686292Y-91493957D01*
X212755445Y-91493951D01*
X212828048Y-91493946D01*
X212904188Y-91493944D01*
X212983954Y-91493942D01*
X213067435Y-91493942D01*
X213154717Y-91493941D01*
X213245890Y-91493940D01*
X213301219Y-91493940D01*
X213405638Y-91493941D01*
G37*
G36*
X212369433Y-93265635D02*
G01*
X212392246Y-93266632D01*
X212414014Y-93267925D01*
X212435091Y-93269582D01*
X212455834Y-93271673D01*
X212476596Y-93274266D01*
X212497733Y-93277430D01*
X212519599Y-93281234D01*
X212542551Y-93285747D01*
X212566941Y-93291038D01*
X212593127Y-93297174D01*
X212621461Y-93304227D01*
X212652301Y-93312263D01*
X212685999Y-93321352D01*
X212722913Y-93331562D01*
X212752821Y-93339970D01*
X212778679Y-93347273D01*
X212801097Y-93353591D01*
X212820512Y-93359040D01*
X212837360Y-93363739D01*
X212852079Y-93367805D01*
X212865106Y-93371357D01*
X212876876Y-93374512D01*
X212887827Y-93377388D01*
X212898395Y-93380103D01*
X212909018Y-93382775D01*
X212920132Y-93385522D01*
X212932174Y-93388461D01*
X212935214Y-93389199D01*
X212972330Y-93397882D01*
X213007453Y-93405367D01*
X213041043Y-93411674D01*
X213073558Y-93416820D01*
X213105459Y-93420826D01*
X213137204Y-93423708D01*
X213169253Y-93425487D01*
X213202064Y-93426179D01*
X213236098Y-93425805D01*
X213271814Y-93424382D01*
X213309670Y-93421929D01*
X213350127Y-93418465D01*
X213393643Y-93414008D01*
X213434024Y-93409376D01*
X213500740Y-93401551D01*
X213564458Y-93394385D01*
X213625843Y-93387823D01*
X213685560Y-93381806D01*
X213744272Y-93376279D01*
X213802646Y-93371185D01*
X213861345Y-93366466D01*
X213921034Y-93362067D01*
X213982378Y-93357930D01*
X214046042Y-93354000D01*
X214112691Y-93350218D01*
X214152511Y-93348095D01*
X214181841Y-93346711D01*
X214210775Y-93345627D01*
X214238874Y-93344845D01*
X214265699Y-93344368D01*
X214290809Y-93344197D01*
X214313767Y-93344336D01*
X214334132Y-93344787D01*
X214351466Y-93345551D01*
X214365329Y-93346632D01*
X214368158Y-93346946D01*
X214382160Y-93348922D01*
X214399650Y-93351887D01*
X214420233Y-93355756D01*
X214443512Y-93360444D01*
X214469092Y-93365867D01*
X214496577Y-93371938D01*
X214525570Y-93378572D01*
X214555676Y-93385684D01*
X214586498Y-93393189D01*
X214608998Y-93398809D01*
X214681354Y-93418699D01*
X214754886Y-93442076D01*
X214829117Y-93468749D01*
X214903573Y-93498529D01*
X214977780Y-93531223D01*
X215051261Y-93566643D01*
X215123543Y-93604596D01*
X215128094Y-93607095D01*
X215163662Y-93627075D01*
X215198649Y-93647517D01*
X215232725Y-93668198D01*
X215265558Y-93688894D01*
X215296817Y-93709382D01*
X215326170Y-93729438D01*
X215353286Y-93748839D01*
X215377834Y-93767362D01*
X215399481Y-93784783D01*
X215417898Y-93800879D01*
X215423851Y-93806478D01*
X215443970Y-93827361D01*
X215460579Y-93848133D01*
X215474106Y-93869543D01*
X215484978Y-93892344D01*
X215493623Y-93917287D01*
X215499104Y-93938750D01*
X215500991Y-93947941D01*
X215502295Y-93956400D01*
X215503109Y-93965230D01*
X215503525Y-93975540D01*
X215503635Y-93988437D01*
X215503622Y-93993001D01*
X215503382Y-94006786D01*
X215502686Y-94018969D01*
X215501361Y-94030267D01*
X215499234Y-94041398D01*
X215496131Y-94053078D01*
X215491881Y-94066025D01*
X215486310Y-94080957D01*
X215479247Y-94098590D01*
X215476682Y-94104825D01*
X215471061Y-94118550D01*
X215465221Y-94133018D01*
X215459622Y-94147079D01*
X215454721Y-94159581D01*
X215451364Y-94168341D01*
X215436033Y-94204621D01*
X215418542Y-94237589D01*
X215398731Y-94267431D01*
X215376436Y-94294336D01*
X215351498Y-94318491D01*
X215323753Y-94340084D01*
X215293041Y-94359303D01*
X215281669Y-94365447D01*
X215265415Y-94373904D01*
X215261969Y-94389393D01*
X215254573Y-94426915D01*
X215249244Y-94464093D01*
X215245913Y-94501833D01*
X215244508Y-94541038D01*
X215244960Y-94582614D01*
X215245623Y-94599635D01*
X215246192Y-94612340D01*
X215246523Y-94621684D01*
X215246565Y-94628333D01*
X215246269Y-94632950D01*
X215245588Y-94636202D01*
X215244471Y-94638753D01*
X215242870Y-94641269D01*
X215242524Y-94641773D01*
X215235031Y-94650380D01*
X215226454Y-94655504D01*
X215216983Y-94657593D01*
X215205783Y-94656765D01*
X215195803Y-94652236D01*
X215187624Y-94644283D01*
X215186823Y-94643159D01*
X215183815Y-94636446D01*
X215181355Y-94626201D01*
X215179437Y-94612885D01*
X215178058Y-94596956D01*
X215177210Y-94578877D01*
X215176889Y-94559107D01*
X215177090Y-94538107D01*
X215177806Y-94516337D01*
X215179033Y-94494258D01*
X215180766Y-94472329D01*
X215182998Y-94451012D01*
X215185725Y-94430766D01*
X215188941Y-94412052D01*
X215189555Y-94408963D01*
X215190828Y-94402699D01*
X215166953Y-94409575D01*
X215148856Y-94414376D01*
X215127555Y-94419325D01*
X215103864Y-94424258D01*
X215078599Y-94429013D01*
X215052574Y-94433426D01*
X215033914Y-94436286D01*
X215021843Y-94438080D01*
X215011212Y-94439717D01*
X215002638Y-94441097D01*
X214996734Y-94442122D01*
X214994118Y-94442691D01*
X214994049Y-94442729D01*
X214991641Y-94446137D01*
X214987713Y-94452558D01*
X214982584Y-94461422D01*
X214976577Y-94472158D01*
X214970010Y-94484193D01*
X214963204Y-94496957D01*
X214957481Y-94507934D01*
X214947346Y-94527895D01*
X214938280Y-94546478D01*
X214929948Y-94564467D01*
X214922016Y-94582645D01*
X214914149Y-94601794D01*
X214906014Y-94622697D01*
X214897275Y-94646137D01*
X214890744Y-94664127D01*
X214885058Y-94675182D01*
X214877374Y-94683302D01*
X214868290Y-94688324D01*
X214858404Y-94690082D01*
X214848311Y-94688413D01*
X214838611Y-94683152D01*
X214834537Y-94679573D01*
X214829099Y-94673402D01*
X214825747Y-94667391D01*
X214824418Y-94660746D01*
X214825047Y-94652678D01*
X214827571Y-94642392D01*
X214830749Y-94632513D01*
X214843410Y-94597640D01*
X214858052Y-94561284D01*
X214874006Y-94525000D01*
X214890604Y-94490343D01*
X214898302Y-94475318D01*
X214912233Y-94448747D01*
X214905724Y-94449594D01*
X214902011Y-94449933D01*
X214894877Y-94450457D01*
X214884926Y-94451126D01*
X214872763Y-94451900D01*
X214858991Y-94452739D01*
X214844799Y-94453572D01*
X214822263Y-94454895D01*
X214800429Y-94456227D01*
X214779685Y-94457541D01*
X214760422Y-94458811D01*
X214743030Y-94460007D01*
X214727898Y-94461104D01*
X214715417Y-94462075D01*
X214705976Y-94462891D01*
X214699965Y-94463527D01*
X214698315Y-94463779D01*
X214695350Y-94465082D01*
X214691965Y-94468174D01*
X214687709Y-94473582D01*
X214682135Y-94481829D01*
X214679848Y-94485392D01*
X214650539Y-94534909D01*
X214623638Y-94587503D01*
X214599260Y-94642937D01*
X214583769Y-94683274D01*
X214578578Y-94696577D01*
X214573715Y-94706492D01*
X214568741Y-94713589D01*
X214563219Y-94718437D01*
X214556710Y-94721606D01*
X214553532Y-94722585D01*
X214542575Y-94723604D01*
X214532247Y-94720973D01*
X214523272Y-94715071D01*
X214516373Y-94706279D01*
X214514349Y-94702018D01*
X214512837Y-94697692D01*
X214512079Y-94693511D01*
X214512196Y-94688816D01*
X214513309Y-94682947D01*
X214515540Y-94675244D01*
X214519009Y-94665046D01*
X214523333Y-94653072D01*
X214532571Y-94629031D01*
X214543279Y-94603235D01*
X214554996Y-94576679D01*
X214567264Y-94550361D01*
X214579621Y-94525276D01*
X214591608Y-94502421D01*
X214598949Y-94489292D01*
X214601833Y-94484306D01*
X214603647Y-94480680D01*
X214603982Y-94478328D01*
X214602428Y-94477166D01*
X214598575Y-94477106D01*
X214592015Y-94478064D01*
X214582338Y-94479953D01*
X214569134Y-94482688D01*
X214568274Y-94482866D01*
X214514055Y-94495285D01*
X214460248Y-94510072D01*
X214406018Y-94527483D01*
X214350532Y-94547775D01*
X214328858Y-94556329D01*
X214288217Y-94573194D01*
X214251393Y-94589573D01*
X214218217Y-94605560D01*
X214188519Y-94621252D01*
X214162128Y-94636745D01*
X214138873Y-94652133D01*
X214118584Y-94667513D01*
X214101091Y-94682980D01*
X214097881Y-94686124D01*
X214082552Y-94701412D01*
X214071230Y-94736835D01*
X214065635Y-94754620D01*
X214061274Y-94769216D01*
X214058004Y-94781226D01*
X214055684Y-94791249D01*
X214054174Y-94799887D01*
X214053332Y-94807741D01*
X214053036Y-94814274D01*
X214052749Y-94828382D01*
X214068172Y-94851559D01*
X214074832Y-94862121D01*
X214081454Y-94873578D01*
X214087257Y-94884525D01*
X214091349Y-94893287D01*
X214099103Y-94911837D01*
X214110188Y-94913237D01*
X214115162Y-94913562D01*
X214123505Y-94913764D01*
X214134556Y-94913841D01*
X214147654Y-94913792D01*
X214162138Y-94913616D01*
X214176696Y-94913328D01*
X214216409Y-94912428D01*
X214252217Y-94911698D01*
X214284245Y-94911137D01*
X214312615Y-94910744D01*
X214337450Y-94910518D01*
X214358874Y-94910458D01*
X214377009Y-94910563D01*
X214391979Y-94910832D01*
X214403907Y-94911265D01*
X214410129Y-94911636D01*
X214421649Y-94912518D01*
X214430026Y-94913352D01*
X214436143Y-94914332D01*
X214440881Y-94915650D01*
X214445121Y-94917499D01*
X214449744Y-94920072D01*
X214450356Y-94920432D01*
X214456352Y-94924576D01*
X214464081Y-94930781D01*
X214472510Y-94938180D01*
X214479973Y-94945275D01*
X214495275Y-94962358D01*
X214506726Y-94979516D01*
X214514493Y-94997119D01*
X214518743Y-95015539D01*
X214519700Y-95033135D01*
X214517341Y-95053202D01*
X214511053Y-95072712D01*
X214500810Y-95091726D01*
X214486584Y-95110304D01*
X214483637Y-95113564D01*
X214476635Y-95120719D01*
X214469447Y-95127377D01*
X214463218Y-95132502D01*
X214460976Y-95134069D01*
X214452016Y-95139760D01*
X214176805Y-95139589D01*
X214135708Y-95139555D01*
X214098476Y-95139506D01*
X214064945Y-95139441D01*
X214034950Y-95139358D01*
X214008325Y-95139256D01*
X213984906Y-95139132D01*
X213964528Y-95138986D01*
X213947026Y-95138816D01*
X213932235Y-95138620D01*
X213919990Y-95138397D01*
X213910125Y-95138145D01*
X213902476Y-95137862D01*
X213896878Y-95137548D01*
X213893166Y-95137201D01*
X213891518Y-95136916D01*
X213885860Y-95135288D01*
X213879844Y-95133030D01*
X213872957Y-95129877D01*
X213864686Y-95125563D01*
X213854520Y-95119821D01*
X213841944Y-95112386D01*
X213828240Y-95104086D01*
X213808970Y-95092531D01*
X213792088Y-95082947D01*
X213776744Y-95074994D01*
X213762092Y-95068329D01*
X213747283Y-95062613D01*
X213731470Y-95057503D01*
X213713804Y-95052658D01*
X213693437Y-95047737D01*
X213681566Y-95045050D01*
X213662192Y-95040550D01*
X213645939Y-95036387D01*
X213633073Y-95032632D01*
X213623857Y-95029360D01*
X213621934Y-95028525D01*
X213608305Y-95022247D01*
X213543345Y-94942970D01*
X213526391Y-94922366D01*
X213511888Y-94904929D01*
X213499821Y-94890640D01*
X213490171Y-94879479D01*
X213482924Y-94871428D01*
X213478061Y-94866467D01*
X213475566Y-94864577D01*
X213475351Y-94864566D01*
X213471927Y-94865208D01*
X213465234Y-94866188D01*
X213456013Y-94867412D01*
X213445003Y-94868791D01*
X213432944Y-94870233D01*
X213420575Y-94871648D01*
X213408636Y-94872943D01*
X213400770Y-94873747D01*
X213383717Y-94875091D01*
X213363268Y-94876127D01*
X213340042Y-94876849D01*
X213314662Y-94877251D01*
X213287749Y-94877328D01*
X213259926Y-94877074D01*
X213231814Y-94876484D01*
X213204269Y-94875560D01*
X213175646Y-94874534D01*
X213147316Y-94873761D01*
X213119743Y-94873241D01*
X213093391Y-94872973D01*
X213068723Y-94872959D01*
X213046203Y-94873198D01*
X213026295Y-94873690D01*
X213009462Y-94874436D01*
X212996167Y-94875435D01*
X212995676Y-94875484D01*
X212960907Y-94879732D01*
X212927040Y-94885398D01*
X212893129Y-94892694D01*
X212858231Y-94901833D01*
X212821402Y-94913027D01*
X212805221Y-94918362D01*
X212792025Y-94922820D01*
X212780141Y-94926868D01*
X212770087Y-94930325D01*
X212762384Y-94933013D01*
X212757550Y-94934752D01*
X212756088Y-94935347D01*
X212757030Y-94937022D01*
X212760186Y-94940947D01*
X212764997Y-94946447D01*
X212768331Y-94950100D01*
X212782712Y-94968317D01*
X212793812Y-94988428D01*
X212801682Y-95010601D01*
X212806376Y-95035002D01*
X212807945Y-95061797D01*
X212807633Y-95074963D01*
X212806553Y-95089642D01*
X212804715Y-95100937D01*
X212801878Y-95109462D01*
X212797798Y-95115831D01*
X212792232Y-95120659D01*
X212788719Y-95122737D01*
X212780377Y-95127148D01*
X212405844Y-95128520D01*
X212361821Y-95128692D01*
X212319569Y-95128879D01*
X212279250Y-95129078D01*
X212241028Y-95129289D01*
X212205066Y-95129510D01*
X212171528Y-95129740D01*
X212140577Y-95129978D01*
X212112376Y-95130221D01*
X212087088Y-95130469D01*
X212064877Y-95130720D01*
X212045906Y-95130973D01*
X212030339Y-95131227D01*
X212018338Y-95131479D01*
X212010068Y-95131730D01*
X212006118Y-95131937D01*
X211989376Y-95132971D01*
X211970050Y-95133627D01*
X211949155Y-95133911D01*
X211927705Y-95133833D01*
X211906716Y-95133400D01*
X211887201Y-95132620D01*
X211870176Y-95131501D01*
X211862837Y-95130809D01*
X211815355Y-95124247D01*
X211769060Y-95114806D01*
X211723551Y-95102341D01*
X211678428Y-95086709D01*
X211633289Y-95067765D01*
X211587734Y-95045365D01*
X211541362Y-95019366D01*
X211524648Y-95009256D01*
X211496276Y-94991016D01*
X211471348Y-94973280D01*
X211449389Y-94955609D01*
X211429926Y-94937567D01*
X211412482Y-94918714D01*
X211396583Y-94898614D01*
X211382743Y-94878379D01*
X211367708Y-94851949D01*
X211354508Y-94822435D01*
X211343102Y-94789704D01*
X211333444Y-94753625D01*
X211325493Y-94714064D01*
X211322058Y-94692343D01*
X211319861Y-94675671D01*
X211317690Y-94656390D01*
X211315610Y-94635356D01*
X211313689Y-94613423D01*
X211311993Y-94591446D01*
X211310591Y-94570280D01*
X211309549Y-94550779D01*
X211308935Y-94533798D01*
X211308795Y-94523554D01*
X211308792Y-94504911D01*
X211303249Y-94504878D01*
X211296136Y-94503321D01*
X211288400Y-94499373D01*
X211281643Y-94494005D01*
X211278230Y-94489713D01*
X211274907Y-94481778D01*
X211271923Y-94470026D01*
X211269316Y-94454658D01*
X211267123Y-94435877D01*
X211266205Y-94425408D01*
X211265726Y-94413625D01*
X211332414Y-94413625D01*
X211342855Y-94415010D01*
X211352563Y-94417935D01*
X211361332Y-94423523D01*
X211368039Y-94430896D01*
X211371027Y-94437025D01*
X211371744Y-94441098D01*
X211372492Y-94448407D01*
X211373210Y-94458157D01*
X211373839Y-94469552D01*
X211374250Y-94479719D01*
X211374788Y-94494532D01*
X211375473Y-94511715D01*
X211376234Y-94529614D01*
X211377002Y-94546574D01*
X211377422Y-94555296D01*
X211380090Y-94599584D01*
X211383578Y-94640158D01*
X211387979Y-94677267D01*
X211393387Y-94711164D01*
X211399896Y-94742097D01*
X211407599Y-94770318D01*
X211416590Y-94796077D01*
X211426962Y-94819625D01*
X211438809Y-94841212D01*
X211452225Y-94861089D01*
X211467302Y-94879505D01*
X211484136Y-94896712D01*
X211502819Y-94912960D01*
X211514399Y-94921939D01*
X211530374Y-94933226D01*
X211549246Y-94945516D01*
X211570164Y-94958323D01*
X211592279Y-94971158D01*
X211614741Y-94983534D01*
X211636701Y-94994965D01*
X211657310Y-95004963D01*
X211666060Y-95008929D01*
X211711492Y-95027283D01*
X211756744Y-95042076D01*
X211802256Y-95053380D01*
X211848466Y-95061266D01*
X211895810Y-95065803D01*
X211944727Y-95067064D01*
X211995656Y-95065118D01*
X212008179Y-95064185D01*
X212038892Y-95061141D01*
X212321527Y-95061141D01*
X212530505Y-95061150D01*
X212569368Y-95061133D01*
X212604217Y-95061077D01*
X212635069Y-95060982D01*
X212661940Y-95060848D01*
X212684848Y-95060675D01*
X212703808Y-95060462D01*
X212718838Y-95060211D01*
X212729954Y-95059919D01*
X212737172Y-95059588D01*
X212740510Y-95059216D01*
X212740757Y-95059098D01*
X212741440Y-95055158D01*
X212740882Y-95048445D01*
X212739304Y-95039943D01*
X212736925Y-95030636D01*
X212733963Y-95021508D01*
X212730637Y-95013544D01*
X212730606Y-95013480D01*
X212720938Y-94998256D01*
X212707810Y-94985066D01*
X212691252Y-94973926D01*
X212671295Y-94964852D01*
X212647969Y-94957860D01*
X212621304Y-94952965D01*
X212616835Y-94952391D01*
X212608830Y-94951677D01*
X212597945Y-94951068D01*
X212585331Y-94950612D01*
X212572137Y-94950354D01*
X212564938Y-94950313D01*
X212552351Y-94950326D01*
X212543234Y-94950412D01*
X212537026Y-94950646D01*
X212533168Y-94951099D01*
X212531097Y-94951845D01*
X212530255Y-94952957D01*
X212530080Y-94954507D01*
X212530076Y-94954848D01*
X212528333Y-94962616D01*
X212523598Y-94971779D01*
X212516403Y-94981784D01*
X212507283Y-94992076D01*
X212496773Y-95002101D01*
X212485407Y-95011306D01*
X212473719Y-95019136D01*
X212462478Y-95024937D01*
X212449342Y-95029577D01*
X212434213Y-95032978D01*
X212416416Y-95035261D01*
X212398176Y-95036434D01*
X212370026Y-95037608D01*
X212345776Y-95049375D01*
X212321527Y-95061141D01*
X212038892Y-95061141D01*
X212058597Y-95059188D01*
X212105768Y-95052586D01*
X212150195Y-95044254D01*
X212192381Y-95034067D01*
X212232828Y-95021901D01*
X212272038Y-95007631D01*
X212310514Y-94991133D01*
X212319262Y-94987034D01*
X212351259Y-94971807D01*
X212383754Y-94970182D01*
X212395581Y-94969481D01*
X212406707Y-94968625D01*
X212416186Y-94967699D01*
X212423075Y-94966792D01*
X212425319Y-94966356D01*
X212439063Y-94961148D01*
X212451751Y-94952782D01*
X212457131Y-94947798D01*
X212463751Y-94940909D01*
X212469683Y-94875576D01*
X212471163Y-94859461D01*
X212472581Y-94844378D01*
X212473883Y-94830862D01*
X212475017Y-94819452D01*
X212475929Y-94810686D01*
X212476566Y-94805100D01*
X212476781Y-94803573D01*
X212479762Y-94796117D01*
X212485471Y-94788696D01*
X212492774Y-94782496D01*
X212500538Y-94778701D01*
X212500614Y-94778680D01*
X212506126Y-94776925D01*
X212509894Y-94775382D01*
X212510509Y-94774998D01*
X212511649Y-94772239D01*
X212513091Y-94765868D01*
X212514771Y-94756287D01*
X212516626Y-94743897D01*
X212518593Y-94729102D01*
X212520608Y-94712303D01*
X212521154Y-94707458D01*
X212522437Y-94693221D01*
X212523442Y-94676580D01*
X212524163Y-94658369D01*
X212524591Y-94639420D01*
X212524719Y-94620567D01*
X212524539Y-94602643D01*
X212524043Y-94586483D01*
X212523225Y-94572918D01*
X212522451Y-94565373D01*
X212517279Y-94532385D01*
X212510546Y-94502019D01*
X212501896Y-94473052D01*
X212490975Y-94444262D01*
X212480440Y-94420695D01*
X212474541Y-94407293D01*
X212471027Y-94396462D01*
X212469948Y-94387492D01*
X212471354Y-94379669D01*
X212475294Y-94372280D01*
X212481818Y-94364612D01*
X212484543Y-94361903D01*
X212489372Y-94356860D01*
X212492734Y-94352628D01*
X212493843Y-94350339D01*
X212492918Y-94346722D01*
X212490290Y-94340007D01*
X212486180Y-94330639D01*
X212480810Y-94319062D01*
X212474402Y-94305721D01*
X212467176Y-94291059D01*
X212459354Y-94275521D01*
X212451157Y-94259551D01*
X212442806Y-94243594D01*
X212434523Y-94228093D01*
X212426529Y-94213494D01*
X212419245Y-94200587D01*
X212389099Y-94150140D01*
X212357738Y-94101699D01*
X212324767Y-94054760D01*
X212289794Y-94008817D01*
X212252424Y-93963366D01*
X212212265Y-93917899D01*
X212168921Y-93871913D01*
X212141882Y-93844519D01*
X212127789Y-93830421D01*
X212116316Y-93818831D01*
X212107192Y-93809448D01*
X212100146Y-93801971D01*
X212094905Y-93796101D01*
X212091199Y-93791537D01*
X212088755Y-93787978D01*
X212087303Y-93785124D01*
X212086774Y-93783553D01*
X212085778Y-93772897D01*
X212088220Y-93762953D01*
X212093511Y-93754312D01*
X212101060Y-93747561D01*
X212110277Y-93743291D01*
X212120573Y-93742090D01*
X212127246Y-93743148D01*
X212131887Y-93745209D01*
X212138201Y-93749406D01*
X212146341Y-93755878D01*
X212156462Y-93764760D01*
X212168717Y-93776191D01*
X212183260Y-93790308D01*
X212200245Y-93807248D01*
X212208869Y-93815974D01*
X212266447Y-93877147D01*
X212320479Y-93940101D01*
X212370935Y-94004792D01*
X212417783Y-94071175D01*
X212460995Y-94139204D01*
X212500537Y-94208836D01*
X212536381Y-94280026D01*
X212551691Y-94313449D01*
X212558415Y-94328900D01*
X212563367Y-94341311D01*
X212566572Y-94351249D01*
X212568058Y-94359280D01*
X212567851Y-94365970D01*
X212565978Y-94371888D01*
X212562464Y-94377599D01*
X212557336Y-94383670D01*
X212555084Y-94386071D01*
X212544068Y-94397620D01*
X212549395Y-94409446D01*
X212563580Y-94444901D01*
X212574906Y-94482030D01*
X212583387Y-94521001D01*
X212589036Y-94561980D01*
X212591866Y-94605135D01*
X212591891Y-94650635D01*
X212589125Y-94698646D01*
X212583581Y-94749336D01*
X212579260Y-94779005D01*
X212577340Y-94790492D01*
X212575403Y-94800894D01*
X212573610Y-94809419D01*
X212572127Y-94815274D01*
X212571392Y-94817297D01*
X212565045Y-94825697D01*
X212556211Y-94832384D01*
X212548956Y-94835511D01*
X212540583Y-94837973D01*
X212539159Y-94855964D01*
X212538605Y-94863997D01*
X212538319Y-94870335D01*
X212538339Y-94874035D01*
X212538462Y-94874594D01*
X212540585Y-94874840D01*
X212546217Y-94875217D01*
X212554841Y-94875697D01*
X212565938Y-94876254D01*
X212578991Y-94876860D01*
X212593480Y-94877489D01*
X212595620Y-94877579D01*
X212626650Y-94878543D01*
X212654009Y-94878689D01*
X212677974Y-94878006D01*
X212698821Y-94876484D01*
X212716830Y-94874112D01*
X212724363Y-94872707D01*
X212730749Y-94871126D01*
X212740106Y-94868465D01*
X212751603Y-94864976D01*
X212764406Y-94860914D01*
X212777683Y-94856532D01*
X212780489Y-94855583D01*
X212828014Y-94840530D01*
X212873891Y-94828298D01*
X212919105Y-94818653D01*
X212964642Y-94811368D01*
X212975522Y-94809970D01*
X212988478Y-94808741D01*
X213005096Y-94807755D01*
X213025012Y-94807015D01*
X213047865Y-94806522D01*
X213073290Y-94806277D01*
X213100927Y-94806282D01*
X213130413Y-94806538D01*
X213161385Y-94807046D01*
X213193480Y-94807810D01*
X213226336Y-94808829D01*
X213228454Y-94808903D01*
X213265575Y-94809947D01*
X213299330Y-94810327D01*
X213330332Y-94810029D01*
X213359193Y-94809038D01*
X213386527Y-94807338D01*
X213412945Y-94804913D01*
X213419884Y-94804146D01*
X213433082Y-94802597D01*
X213442789Y-94801339D01*
X213449524Y-94800260D01*
X213453808Y-94799252D01*
X213456159Y-94798205D01*
X213457098Y-94797009D01*
X213457201Y-94796263D01*
X213456568Y-94792322D01*
X213454836Y-94785396D01*
X213452258Y-94776300D01*
X213449084Y-94765848D01*
X213445565Y-94754853D01*
X213441953Y-94744130D01*
X213438499Y-94734493D01*
X213436637Y-94729645D01*
X213424623Y-94702122D01*
X213409827Y-94672790D01*
X213392635Y-94642332D01*
X213373432Y-94611432D01*
X213352728Y-94580951D01*
X213345774Y-94570987D01*
X213340116Y-94562309D01*
X213335528Y-94554273D01*
X213331786Y-94546236D01*
X213328664Y-94537554D01*
X213325938Y-94527583D01*
X213323381Y-94515680D01*
X213320769Y-94501200D01*
X213317877Y-94483500D01*
X213317243Y-94479502D01*
X213313131Y-94455466D01*
X213308879Y-94434941D01*
X213304292Y-94417411D01*
X213299173Y-94402356D01*
X213293326Y-94389259D01*
X213286554Y-94377601D01*
X213278662Y-94366864D01*
X213271485Y-94358670D01*
X213262138Y-94348033D01*
X213254263Y-94337468D01*
X213247506Y-94326256D01*
X213241510Y-94313682D01*
X213235919Y-94299026D01*
X213230377Y-94281572D01*
X213226538Y-94268040D01*
X213217046Y-94228946D01*
X213209062Y-94186601D01*
X213202652Y-94141520D01*
X213197882Y-94094216D01*
X213194820Y-94045204D01*
X213193845Y-94015843D01*
X213193467Y-93996894D01*
X213193314Y-93981516D01*
X213193446Y-93969251D01*
X213193922Y-93959643D01*
X213194804Y-93952233D01*
X213196151Y-93946566D01*
X213198022Y-93942184D01*
X213200479Y-93938629D01*
X213203581Y-93935446D01*
X213204512Y-93934612D01*
X213214507Y-93928212D01*
X213225379Y-93925554D01*
X213235962Y-93926616D01*
X213244102Y-93930335D01*
X213251322Y-93936328D01*
X213256531Y-93943500D01*
X213258497Y-93949225D01*
X213258809Y-93952987D01*
X213259168Y-93960151D01*
X213259553Y-93970090D01*
X213259941Y-93982175D01*
X213260309Y-93995778D01*
X213260570Y-94007109D01*
X213262296Y-94052282D01*
X213265496Y-94096429D01*
X213270096Y-94138984D01*
X213276024Y-94179385D01*
X213283209Y-94217065D01*
X213291578Y-94251461D01*
X213291999Y-94252987D01*
X213296778Y-94269118D01*
X213301418Y-94282113D01*
X213306348Y-94292827D01*
X213311999Y-94302116D01*
X213318801Y-94310834D01*
X213323946Y-94316497D01*
X213334277Y-94328205D01*
X213343300Y-94340381D01*
X213351195Y-94353486D01*
X213358141Y-94367982D01*
X213364319Y-94384329D01*
X213369910Y-94402988D01*
X213375092Y-94424421D01*
X213380047Y-94449090D01*
X213383593Y-94469229D01*
X213385836Y-94482169D01*
X213388052Y-94494235D01*
X213390096Y-94504681D01*
X213391821Y-94512763D01*
X213393079Y-94517735D01*
X213393235Y-94518214D01*
X213395461Y-94522897D01*
X213399520Y-94529881D01*
X213404838Y-94538232D01*
X213410846Y-94547014D01*
X213411002Y-94547235D01*
X213436246Y-94584746D01*
X213458851Y-94622430D01*
X213478671Y-94659959D01*
X213495560Y-94697005D01*
X213509371Y-94733238D01*
X213519959Y-94768330D01*
X213527176Y-94801954D01*
X213528616Y-94811374D01*
X213529094Y-94813767D01*
X213530016Y-94816397D01*
X213531607Y-94819564D01*
X213534086Y-94823565D01*
X213537676Y-94828703D01*
X213542600Y-94835275D01*
X213549078Y-94843583D01*
X213557334Y-94853925D01*
X213567588Y-94866601D01*
X213580062Y-94881911D01*
X213588298Y-94891989D01*
X213600407Y-94906752D01*
X213611862Y-94920636D01*
X213622387Y-94933311D01*
X213631705Y-94944447D01*
X213639537Y-94953713D01*
X213645607Y-94960779D01*
X213649636Y-94965314D01*
X213651213Y-94966905D01*
X213654604Y-94968449D01*
X213661349Y-94970622D01*
X213670851Y-94973259D01*
X213682513Y-94976195D01*
X213695737Y-94979265D01*
X213697032Y-94979553D01*
X213719558Y-94984746D01*
X213738880Y-94989674D01*
X213755791Y-94994577D01*
X213771086Y-94999697D01*
X213785559Y-95005274D01*
X213794478Y-95009071D01*
X213801212Y-95012063D01*
X213807130Y-95014796D01*
X213812790Y-95017580D01*
X213818752Y-95020724D01*
X213825572Y-95024535D01*
X213833808Y-95029324D01*
X213844020Y-95035399D01*
X213856764Y-95043069D01*
X213866325Y-95048848D01*
X213879008Y-95056470D01*
X213889042Y-95062248D01*
X213897213Y-95066446D01*
X213904310Y-95069327D01*
X213911119Y-95071155D01*
X213918426Y-95072194D01*
X213927021Y-95072707D01*
X213937688Y-95072957D01*
X213938376Y-95072968D01*
X213946596Y-95073017D01*
X213951575Y-95072712D01*
X213954099Y-95071896D01*
X213954953Y-95070411D01*
X213955003Y-95069634D01*
X213955019Y-95069519D01*
X214023526Y-95069519D01*
X214023906Y-95069955D01*
X214025185Y-95070347D01*
X214027576Y-95070696D01*
X214031290Y-95071007D01*
X214036538Y-95071282D01*
X214043532Y-95071524D01*
X214052484Y-95071737D01*
X214063605Y-95071924D01*
X214077106Y-95072087D01*
X214093199Y-95072230D01*
X214112096Y-95072357D01*
X214134008Y-95072469D01*
X214159146Y-95072571D01*
X214187723Y-95072664D01*
X214219949Y-95072754D01*
X214248589Y-95072824D01*
X214430321Y-95073252D01*
X214437418Y-95064961D01*
X214446403Y-95052393D01*
X214451419Y-95040208D01*
X214452487Y-95028221D01*
X214449628Y-95016242D01*
X214444103Y-95005892D01*
X214438292Y-94998359D01*
X214431231Y-94990861D01*
X214426723Y-94986873D01*
X214416719Y-94978966D01*
X214383873Y-94977538D01*
X214374138Y-94977267D01*
X214361082Y-94977135D01*
X214345415Y-94977137D01*
X214327845Y-94977266D01*
X214309081Y-94977519D01*
X214289829Y-94977889D01*
X214272427Y-94978327D01*
X214252360Y-94978855D01*
X214231272Y-94979342D01*
X214210045Y-94979773D01*
X214189559Y-94980131D01*
X214170695Y-94980402D01*
X214154335Y-94980568D01*
X214144450Y-94980614D01*
X214095073Y-94980684D01*
X214086908Y-94993210D01*
X214079776Y-95002383D01*
X214069115Y-95013434D01*
X214054953Y-95026337D01*
X214054305Y-95026898D01*
X214044892Y-95035141D01*
X214038083Y-95041403D01*
X214033365Y-95046262D01*
X214030226Y-95050293D01*
X214028154Y-95054074D01*
X214026696Y-95057999D01*
X214024889Y-95063950D01*
X214023741Y-95068275D01*
X214023526Y-95069519D01*
X213955019Y-95069519D01*
X213955511Y-95066053D01*
X213956864Y-95059614D01*
X213958807Y-95051336D01*
X213961084Y-95042237D01*
X213963439Y-95033338D01*
X213965617Y-95025656D01*
X213967361Y-95020212D01*
X213967496Y-95019844D01*
X213968988Y-95016394D01*
X213971020Y-95013031D01*
X213974029Y-95009302D01*
X213978453Y-95004755D01*
X213984726Y-94998937D01*
X213993287Y-94991395D01*
X214002958Y-94983059D01*
X214016864Y-94970546D01*
X214027218Y-94959903D01*
X214034028Y-94951117D01*
X214037307Y-94944175D01*
X214037634Y-94941749D01*
X214036641Y-94937073D01*
X214033935Y-94929812D01*
X214029922Y-94920806D01*
X214025009Y-94910899D01*
X214019603Y-94900932D01*
X214014111Y-94891747D01*
X214011641Y-94887976D01*
X214002052Y-94873164D01*
X213994960Y-94860391D01*
X213990050Y-94848805D01*
X213987008Y-94837555D01*
X213985520Y-94825790D01*
X213985234Y-94816454D01*
X213985746Y-94805077D01*
X213987353Y-94792336D01*
X213990160Y-94777733D01*
X213994273Y-94760765D01*
X213999798Y-94740933D01*
X214004402Y-94725597D01*
X214009643Y-94708326D01*
X214013841Y-94693896D01*
X214017230Y-94681327D01*
X214020043Y-94669635D01*
X214022516Y-94657841D01*
X214024882Y-94644963D01*
X214027375Y-94630019D01*
X214027715Y-94627906D01*
X214034736Y-94581420D01*
X214040397Y-94537480D01*
X214044808Y-94494880D01*
X214048081Y-94452414D01*
X214050326Y-94408874D01*
X214051557Y-94367865D01*
X214051996Y-94347856D01*
X214052440Y-94331456D01*
X214052961Y-94318244D01*
X214053630Y-94307798D01*
X214054521Y-94299697D01*
X214055705Y-94293520D01*
X214057255Y-94288846D01*
X214059243Y-94285253D01*
X214061742Y-94282320D01*
X214064823Y-94279625D01*
X214066990Y-94277941D01*
X214072175Y-94274509D01*
X214077254Y-94272754D01*
X214083993Y-94272162D01*
X214086854Y-94272133D01*
X214098357Y-94273537D01*
X214107272Y-94277900D01*
X214113974Y-94285451D01*
X214116425Y-94290073D01*
X214117749Y-94293464D01*
X214118728Y-94297397D01*
X214119412Y-94302516D01*
X214119852Y-94309462D01*
X214120100Y-94318878D01*
X214120206Y-94331405D01*
X214120221Y-94337914D01*
X214119940Y-94361751D01*
X214119092Y-94388518D01*
X214117740Y-94417279D01*
X214115949Y-94447101D01*
X214113783Y-94477051D01*
X214111308Y-94506195D01*
X214108586Y-94533599D01*
X214105683Y-94558329D01*
X214104326Y-94568396D01*
X214102994Y-94578170D01*
X214101968Y-94586395D01*
X214101335Y-94592308D01*
X214101184Y-94595149D01*
X214101219Y-94595281D01*
X214103043Y-94594581D01*
X214107285Y-94592095D01*
X214113058Y-94588347D01*
X214113560Y-94588008D01*
X214127823Y-94578881D01*
X214145128Y-94568696D01*
X214164752Y-94557832D01*
X214185974Y-94546673D01*
X214208071Y-94535598D01*
X214230319Y-94524989D01*
X214249250Y-94516429D01*
X214312910Y-94489986D01*
X214376722Y-94466509D01*
X214440284Y-94446117D01*
X214503193Y-94428930D01*
X214565047Y-94415066D01*
X214625445Y-94404644D01*
X214628144Y-94404255D01*
X214639089Y-94402653D01*
X214646785Y-94401353D01*
X214651980Y-94400114D01*
X214655421Y-94398698D01*
X214657852Y-94396864D01*
X214660022Y-94394373D01*
X214660390Y-94393903D01*
X214663262Y-94390263D01*
X214668145Y-94384117D01*
X214674530Y-94376106D01*
X214681908Y-94366868D01*
X214689002Y-94358002D01*
X214728795Y-94311413D01*
X214771667Y-94267207D01*
X214817693Y-94225322D01*
X214866949Y-94185693D01*
X214919510Y-94148256D01*
X214975454Y-94112946D01*
X214983861Y-94107993D01*
X214997879Y-94100048D01*
X215013725Y-94091484D01*
X215030942Y-94082516D01*
X215049069Y-94073357D01*
X215067648Y-94064224D01*
X215086220Y-94055330D01*
X215104326Y-94046891D01*
X215121506Y-94039122D01*
X215137303Y-94032236D01*
X215151256Y-94026449D01*
X215162906Y-94021975D01*
X215171796Y-94019030D01*
X215176274Y-94017969D01*
X215185266Y-94018322D01*
X215194606Y-94021599D01*
X215202803Y-94027141D01*
X215206646Y-94031412D01*
X215210793Y-94040054D01*
X215212451Y-94049939D01*
X215211557Y-94059627D01*
X215208252Y-94067386D01*
X215205125Y-94071566D01*
X215201666Y-94075124D01*
X215197261Y-94078430D01*
X215191296Y-94081854D01*
X215183159Y-94085766D01*
X215172234Y-94090534D01*
X215164239Y-94093897D01*
X215101944Y-94121754D01*
X215042901Y-94151970D01*
X214987079Y-94184566D01*
X214934446Y-94219562D01*
X214884973Y-94256978D01*
X214838627Y-94296835D01*
X214802418Y-94331882D01*
X214788756Y-94345967D01*
X214776797Y-94358552D01*
X214766741Y-94369415D01*
X214758789Y-94378330D01*
X214753140Y-94385075D01*
X214749995Y-94389426D01*
X214749464Y-94391102D01*
X214751601Y-94391178D01*
X214757282Y-94391013D01*
X214766029Y-94390635D01*
X214777363Y-94390073D01*
X214790808Y-94389356D01*
X214805884Y-94388512D01*
X214822114Y-94387569D01*
X214839020Y-94386556D01*
X214856124Y-94385502D01*
X214872948Y-94384436D01*
X214889013Y-94383384D01*
X214903843Y-94382378D01*
X214916959Y-94381443D01*
X214927883Y-94380611D01*
X214934443Y-94380061D01*
X214943199Y-94379112D01*
X214950316Y-94378016D01*
X214954929Y-94376927D01*
X214956225Y-94376204D01*
X214957982Y-94372904D01*
X214961847Y-94366860D01*
X214967485Y-94358534D01*
X214974563Y-94348389D01*
X214982745Y-94336887D01*
X214991698Y-94324490D01*
X215001085Y-94311662D01*
X215010574Y-94298864D01*
X215019830Y-94286559D01*
X215028517Y-94275210D01*
X215036302Y-94265277D01*
X215038073Y-94263064D01*
X215051574Y-94246616D01*
X215066255Y-94229342D01*
X215081838Y-94211531D01*
X215098044Y-94193466D01*
X215114592Y-94175436D01*
X215131204Y-94157725D01*
X215147601Y-94140620D01*
X215163502Y-94124407D01*
X215178630Y-94109373D01*
X215192704Y-94095802D01*
X215205445Y-94083981D01*
X215216575Y-94074197D01*
X215225813Y-94066736D01*
X215232881Y-94061883D01*
X215235956Y-94060345D01*
X215246592Y-94058300D01*
X215257112Y-94059892D01*
X215266617Y-94064805D01*
X215274208Y-94072723D01*
X215275096Y-94074103D01*
X215277975Y-94081582D01*
X215279131Y-94090679D01*
X215278540Y-94099748D01*
X215276179Y-94107145D01*
X215275576Y-94108154D01*
X215273192Y-94110978D01*
X215268326Y-94116140D01*
X215261412Y-94123200D01*
X215252888Y-94131716D01*
X215243190Y-94141248D01*
X215234711Y-94149470D01*
X215203223Y-94180350D01*
X215174522Y-94209649D01*
X215148025Y-94237996D01*
X215123151Y-94266021D01*
X215099315Y-94294356D01*
X215088752Y-94307403D01*
X215075407Y-94324251D01*
X215064710Y-94338145D01*
X215056627Y-94349135D01*
X215051122Y-94357275D01*
X215048157Y-94362614D01*
X215047698Y-94365205D01*
X215048097Y-94365467D01*
X215051429Y-94365348D01*
X215058011Y-94364462D01*
X215067166Y-94362941D01*
X215078214Y-94360913D01*
X215090477Y-94358509D01*
X215103275Y-94355860D01*
X215115931Y-94353096D01*
X215127765Y-94350346D01*
X215130985Y-94349561D01*
X215142485Y-94346563D01*
X215154814Y-94343082D01*
X215167276Y-94339343D01*
X215179173Y-94335574D01*
X215189810Y-94331998D01*
X215198489Y-94328841D01*
X215204514Y-94326330D01*
X215206921Y-94324967D01*
X215208841Y-94321972D01*
X215211334Y-94316180D01*
X215213941Y-94308690D01*
X215214643Y-94306395D01*
X215218760Y-94293300D01*
X215224115Y-94277498D01*
X215230343Y-94259981D01*
X215237081Y-94241742D01*
X215243962Y-94223773D01*
X215250623Y-94207066D01*
X215254965Y-94196643D01*
X215260256Y-94184569D01*
X215266362Y-94171219D01*
X215273018Y-94157115D01*
X215279959Y-94142782D01*
X215286921Y-94128743D01*
X215293640Y-94115523D01*
X215299851Y-94103645D01*
X215305290Y-94093633D01*
X215309694Y-94086011D01*
X215312796Y-94081303D01*
X215313668Y-94080301D01*
X215323005Y-94074164D01*
X215333454Y-94071811D01*
X215344619Y-94073291D01*
X215350958Y-94075776D01*
X215359992Y-94082259D01*
X215366118Y-94091492D01*
X215368973Y-94101445D01*
X215369282Y-94104228D01*
X215369163Y-94107125D01*
X215368426Y-94110621D01*
X215366884Y-94115197D01*
X215364348Y-94121337D01*
X215360633Y-94129523D01*
X215355548Y-94140239D01*
X215348907Y-94153967D01*
X215347051Y-94157783D01*
X215336437Y-94179802D01*
X215327429Y-94198984D01*
X215319712Y-94216037D01*
X215312974Y-94231669D01*
X215306901Y-94246588D01*
X215301181Y-94261501D01*
X215301094Y-94261735D01*
X215295206Y-94277537D01*
X215302804Y-94271520D01*
X215311052Y-94264295D01*
X215320682Y-94254782D01*
X215330769Y-94243997D01*
X215340388Y-94232956D01*
X215348614Y-94222676D01*
X215353458Y-94215856D01*
X215364577Y-94197169D01*
X215375477Y-94175443D01*
X215386340Y-94150299D01*
X215392927Y-94133384D01*
X215404172Y-94103466D01*
X215381314Y-94079758D01*
X215364473Y-94061284D01*
X215350827Y-94043989D01*
X215339967Y-94027252D01*
X215331480Y-94010456D01*
X215326282Y-93997032D01*
X215324161Y-93988924D01*
X215322939Y-93979210D01*
X215322528Y-93967941D01*
X215389275Y-93967941D01*
X215391638Y-93978271D01*
X215396488Y-93989891D01*
X215403639Y-94002352D01*
X215412902Y-94015204D01*
X215423904Y-94027804D01*
X215428167Y-94032110D01*
X215430548Y-94033762D01*
X215431884Y-94033079D01*
X215432729Y-94031163D01*
X215433686Y-94027219D01*
X215434826Y-94020541D01*
X215435938Y-94012402D01*
X215436188Y-94010276D01*
X215436848Y-93999834D01*
X215436834Y-93987384D01*
X215436224Y-93974274D01*
X215435093Y-93961851D01*
X215433518Y-93951461D01*
X215432644Y-93947655D01*
X215430499Y-93943080D01*
X215426487Y-93941209D01*
X215424943Y-93941003D01*
X215418609Y-93941514D01*
X215410589Y-93943654D01*
X215402434Y-93946848D01*
X215395696Y-93950520D01*
X215392756Y-93952950D01*
X215389585Y-93959351D01*
X215389275Y-93967941D01*
X215322528Y-93967941D01*
X215322486Y-93966782D01*
X215322477Y-93964681D01*
X215322534Y-93954987D01*
X215322915Y-93948042D01*
X215323882Y-93942568D01*
X215325701Y-93937285D01*
X215328635Y-93930911D01*
X215330023Y-93928086D01*
X215337868Y-93914782D01*
X215347285Y-93903936D01*
X215348770Y-93902547D01*
X215357900Y-93895328D01*
X215368629Y-93888570D01*
X215379609Y-93883017D01*
X215389489Y-93879410D01*
X215391789Y-93878867D01*
X215396100Y-93877640D01*
X215398018Y-93876373D01*
X215398024Y-93876313D01*
X215396622Y-93874289D01*
X215392806Y-93870134D01*
X215387159Y-93864414D01*
X215380265Y-93857691D01*
X215372709Y-93850530D01*
X215365075Y-93843494D01*
X215357946Y-93837148D01*
X215353686Y-93833513D01*
X215348138Y-93829097D01*
X215339987Y-93822874D01*
X215329923Y-93815360D01*
X215318639Y-93807068D01*
X215306824Y-93798515D01*
X215302293Y-93795269D01*
X215236693Y-93750465D01*
X215167902Y-93707372D01*
X215096505Y-93666294D01*
X215023089Y-93627534D01*
X214948240Y-93591395D01*
X214872542Y-93558179D01*
X214796582Y-93528192D01*
X214762168Y-93515724D01*
X214736363Y-93506755D01*
X214712203Y-93498621D01*
X214689071Y-93491147D01*
X214666348Y-93484157D01*
X214643418Y-93477480D01*
X214619664Y-93470938D01*
X214594469Y-93464360D01*
X214567216Y-93457569D01*
X214537286Y-93450392D01*
X214504064Y-93442655D01*
X214501174Y-93441990D01*
X214472832Y-93435533D01*
X214447915Y-93430006D01*
X214425946Y-93425340D01*
X214406445Y-93421465D01*
X214388934Y-93418312D01*
X214372933Y-93415809D01*
X214357965Y-93413888D01*
X214343550Y-93412479D01*
X214329210Y-93411512D01*
X214314466Y-93410918D01*
X214298839Y-93410626D01*
X214285527Y-93410563D01*
X214271043Y-93410716D01*
X214252924Y-93411162D01*
X214231554Y-93411881D01*
X214207318Y-93412851D01*
X214180598Y-93414051D01*
X214151780Y-93415458D01*
X214121246Y-93417053D01*
X214089381Y-93418812D01*
X214056569Y-93420716D01*
X214023193Y-93422742D01*
X213989638Y-93424870D01*
X213956286Y-93427077D01*
X213923523Y-93429342D01*
X213891731Y-93431644D01*
X213861296Y-93433962D01*
X213850202Y-93434840D01*
X213809888Y-93438117D01*
X213771881Y-93441327D01*
X213735524Y-93444535D01*
X213700163Y-93447808D01*
X213665142Y-93451211D01*
X213629808Y-93454811D01*
X213593504Y-93458674D01*
X213555575Y-93462866D01*
X213515367Y-93467454D01*
X213472224Y-93472502D01*
X213444101Y-93475847D01*
X213395739Y-93481349D01*
X213350829Y-93485833D01*
X213308918Y-93489279D01*
X213269552Y-93491672D01*
X213232278Y-93492992D01*
X213196644Y-93493223D01*
X213162197Y-93492347D01*
X213128483Y-93490346D01*
X213095050Y-93487203D01*
X213061445Y-93482900D01*
X213027214Y-93477420D01*
X212991906Y-93470744D01*
X212955066Y-93462856D01*
X212924129Y-93455647D01*
X212910417Y-93452321D01*
X212897015Y-93449002D01*
X212883487Y-93445573D01*
X212869401Y-93441916D01*
X212854319Y-93437914D01*
X212837808Y-93433450D01*
X212819433Y-93428407D01*
X212798758Y-93422667D01*
X212775348Y-93416113D01*
X212748770Y-93408628D01*
X212730651Y-93403510D01*
X212691726Y-93392587D01*
X212656273Y-93382843D01*
X212623932Y-93374208D01*
X212594342Y-93366616D01*
X212567142Y-93359998D01*
X212541971Y-93354287D01*
X212518469Y-93349415D01*
X212496274Y-93345314D01*
X212475025Y-93341918D01*
X212454363Y-93339158D01*
X212433925Y-93336966D01*
X212413351Y-93335275D01*
X212392280Y-93334017D01*
X212370351Y-93333125D01*
X212352765Y-93332646D01*
X212291925Y-93332987D01*
X212233054Y-93336787D01*
X212175999Y-93344079D01*
X212120607Y-93354897D01*
X212066727Y-93369272D01*
X212014205Y-93387238D01*
X211962888Y-93408826D01*
X211936968Y-93421324D01*
X211912104Y-93434363D01*
X211887942Y-93448152D01*
X211864271Y-93462884D01*
X211840878Y-93478750D01*
X211817549Y-93495945D01*
X211794071Y-93514659D01*
X211770233Y-93535086D01*
X211745821Y-93557418D01*
X211720623Y-93581848D01*
X211694425Y-93608569D01*
X211667015Y-93637772D01*
X211638180Y-93669650D01*
X211607707Y-93704396D01*
X211575383Y-93742203D01*
X211553467Y-93768285D01*
X211530892Y-93795842D01*
X211511003Y-93821308D01*
X211493426Y-93845222D01*
X211477792Y-93868122D01*
X211463730Y-93890545D01*
X211450868Y-93913030D01*
X211441651Y-93930524D01*
X211436992Y-93939843D01*
X211433858Y-93946844D01*
X211431887Y-93952772D01*
X211430716Y-93958870D01*
X211429984Y-93966383D01*
X211429620Y-93971840D01*
X211429241Y-93976838D01*
X211428677Y-93981786D01*
X211427827Y-93987013D01*
X211426590Y-93992851D01*
X211424863Y-93999630D01*
X211422544Y-94007682D01*
X211419531Y-94017336D01*
X211415723Y-94028925D01*
X211411018Y-94042777D01*
X211405313Y-94059226D01*
X211398507Y-94078600D01*
X211390498Y-94101231D01*
X211384918Y-94116948D01*
X211376249Y-94141980D01*
X211368995Y-94164478D01*
X211362848Y-94185552D01*
X211357504Y-94206312D01*
X211352654Y-94227871D01*
X211348253Y-94249964D01*
X211344307Y-94271279D01*
X211341159Y-94289520D01*
X211338707Y-94305543D01*
X211336849Y-94320204D01*
X211335484Y-94334357D01*
X211334508Y-94348857D01*
X211333820Y-94364561D01*
X211333553Y-94373110D01*
X211332414Y-94413625D01*
X211265726Y-94413625D01*
X211265035Y-94396608D01*
X211265807Y-94364575D01*
X211268488Y-94329591D01*
X211273046Y-94291938D01*
X211279451Y-94251899D01*
X211287671Y-94209756D01*
X211293026Y-94185472D01*
X211295818Y-94174591D01*
X211299948Y-94160363D01*
X211305281Y-94143194D01*
X211311684Y-94123490D01*
X211319025Y-94101656D01*
X211327171Y-94078100D01*
X211335988Y-94053226D01*
X211339898Y-94042379D01*
X211357417Y-93994009D01*
X211355015Y-93982501D01*
X211354116Y-93977462D01*
X211353800Y-93972812D01*
X211354231Y-93967918D01*
X211355571Y-93962143D01*
X211357985Y-93954852D01*
X211361634Y-93945410D01*
X211366682Y-93933183D01*
X211369242Y-93927103D01*
X211382457Y-93898488D01*
X211398339Y-93869000D01*
X211417038Y-93838404D01*
X211438707Y-93806469D01*
X211463496Y-93772962D01*
X211491559Y-93737649D01*
X211497038Y-93731000D01*
X211535951Y-93684668D01*
X211573068Y-93641784D01*
X211608374Y-93602364D01*
X211641853Y-93566424D01*
X211673490Y-93533981D01*
X211703268Y-93505052D01*
X211731173Y-93479653D01*
X211746132Y-93466848D01*
X211792168Y-93431008D01*
X211840302Y-93398583D01*
X211890444Y-93369601D01*
X211942507Y-93344093D01*
X211996402Y-93322085D01*
X212052042Y-93303606D01*
X212109337Y-93288686D01*
X212168199Y-93277352D01*
X212228540Y-93269632D01*
X212290272Y-93265557D01*
X212353307Y-93265153D01*
X212369433Y-93265635D01*
G37*
D11*
%TO.C,J3*%
X235880000Y-84480000D02*
X235880000Y-83150000D01*
X237210000Y-84480000D02*
X235880000Y-84480000D01*
X238480000Y-84480000D02*
X243620000Y-84480000D01*
X238480000Y-84480000D02*
X238480000Y-81820000D01*
X243620000Y-84480000D02*
X243620000Y-81820000D01*
X238480000Y-81820000D02*
X243620000Y-81820000D01*
%TO.C,J1*%
X135830000Y-85150000D02*
X135830000Y-83820000D01*
X137160000Y-85150000D02*
X135830000Y-85150000D01*
X138430000Y-85150000D02*
X143570000Y-85150000D01*
X138430000Y-85150000D02*
X138430000Y-82490000D01*
X143570000Y-85150000D02*
X143570000Y-82490000D01*
X138430000Y-82490000D02*
X143570000Y-82490000D01*
%TO.C,J2*%
X43620000Y-81920000D02*
X43620000Y-83250000D01*
X42290000Y-81920000D02*
X43620000Y-81920000D01*
X41020000Y-81920000D02*
X35880000Y-81920000D01*
X41020000Y-81920000D02*
X41020000Y-84580000D01*
X35880000Y-81920000D02*
X35880000Y-84580000D01*
X41020000Y-84580000D02*
X35880000Y-84580000D01*
%TD*%
M02*
