M48
; DRILL file {KiCad 7.0.5-0} date 2023 August 08, Tuesday 15:43:05
; FORMAT={-:-/ absolute / inch / decimal}
; #@! TF.CreationDate,2023-08-08T15:43:05-04:00
; #@! TF.GenerationSoftware,Kicad,Pcbnew,7.0.5-0
; #@! TF.FileFunction,Plated,1,2,PTH
FMAT,2
INCH
; #@! TA.AperFunction,Plated,PTH,ComponentDrill
T1C0.0394
%
G90
G05
T1
X1.465Y-3.2776
X1.565Y-3.2776
X1.665Y-3.2776
X2.4748Y-2.6988
X2.4748Y-3.6988
X2.5748Y-2.6988
X2.5748Y-3.6988
X2.6748Y-2.6988
X2.6748Y-3.6988
X2.7748Y-2.6988
X2.7748Y-3.6988
X2.8748Y-2.6988
X2.8748Y-3.6988
X2.9748Y-2.6988
X2.9748Y-3.6988
X3.0748Y-2.6988
X3.0748Y-3.6988
X3.1748Y-2.6988
X3.1748Y-3.6988
X3.2748Y-2.6988
X3.2748Y-3.6988
X3.3748Y-2.6988
X3.3748Y-3.6988
X3.4748Y-2.6988
X3.4748Y-3.6988
X3.5748Y-2.6988
X3.5748Y-3.6988
X3.6748Y-2.6988
X3.6748Y-3.6988
X3.7748Y-2.6988
X3.7748Y-3.6988
X3.8748Y-2.6988
X3.8748Y-3.6988
X3.9748Y-2.6988
X3.9748Y-3.6988
X4.0748Y-2.6988
X4.0748Y-3.6988
X4.1748Y-2.6988
X4.1748Y-3.6988
X5.4Y-3.3
X5.5Y-3.3
X5.6Y-3.3
X9.339Y-3.2736
X9.439Y-3.2736
X9.539Y-3.2736
T0
M30
