%TF.GenerationSoftware,KiCad,Pcbnew,7.0.5-0*%
%TF.CreationDate,2023-08-08T15:43:03-04:00*%
%TF.ProjectId,Lemmingometre,4c656d6d-696e-4676-9f6d-657472652e6b,rev?*%
%TF.SameCoordinates,Original*%
%TF.FileFunction,Profile,NP*%
%FSLAX46Y46*%
G04 Gerber Fmt 4.6, Leading zero omitted, Abs format (unit mm)*
G04 Created by KiCad (PCBNEW 7.0.5-0) date 2023-08-08 15:43:03*
%MOMM*%
%LPD*%
G01*
G04 APERTURE LIST*
%TA.AperFunction,Profile*%
%ADD10C,0.100000*%
%TD*%
G04 APERTURE END LIST*
D10*
X126000000Y-76200000D02*
X156480000Y-76200000D01*
X157480000Y-101600000D02*
X157480000Y-91440000D01*
X126060000Y-101600000D02*
X27000000Y-101600000D01*
X251200001Y-99200000D02*
G75*
G03*
X251200001Y-99200000I-1503330J0D01*
G01*
X30803330Y-99300000D02*
G75*
G03*
X30803330Y-99300000I-1503330J0D01*
G01*
X30503330Y-67900000D02*
G75*
G03*
X30503330Y-67900000I-1503330J0D01*
G01*
X126000000Y-66040000D02*
X126000000Y-76200000D01*
X251300000Y-68200000D02*
G75*
G03*
X251300000Y-68200000I-1500000J0D01*
G01*
X252000000Y-66040000D02*
X252000000Y-101600000D01*
X157480000Y-91440000D02*
X126060000Y-91440000D01*
X252000000Y-101600000D02*
X157480000Y-101600000D01*
X27000000Y-66040000D02*
X126000000Y-66040000D01*
X156480000Y-66040000D02*
X252000000Y-66040000D01*
X27000000Y-101600000D02*
X27000000Y-66040000D01*
X126060000Y-91440000D02*
X126060000Y-101600000D01*
X156480000Y-76200000D02*
X156480000Y-66040000D01*
%TO.C,U1*%
X112340000Y-68750000D02*
G75*
G03*
X112340000Y-68750000I-1500000J0D01*
G01*
X58640000Y-68850000D02*
G75*
G03*
X58640000Y-68850000I-1500000J0D01*
G01*
X112270000Y-93750000D02*
G75*
G03*
X112270000Y-93750000I-1500000J0D01*
G01*
X58640000Y-93750000D02*
G75*
G03*
X58640000Y-93750000I-1500000J0D01*
G01*
%TD*%
M02*
