%TF.GenerationSoftware,KiCad,Pcbnew,7.0.5-0*%
%TF.CreationDate,2023-08-08T15:43:03-04:00*%
%TF.ProjectId,Lemmingometre,4c656d6d-696e-4676-9f6d-657472652e6b,rev?*%
%TF.SameCoordinates,Original*%
%TF.FileFunction,Copper,L1,Top*%
%TF.FilePolarity,Positive*%
%FSLAX46Y46*%
G04 Gerber Fmt 4.6, Leading zero omitted, Abs format (unit mm)*
G04 Created by KiCad (PCBNEW 7.0.5-0) date 2023-08-08 15:43:03*
%MOMM*%
%LPD*%
G01*
G04 APERTURE LIST*
%TA.AperFunction,ComponentPad*%
%ADD10R,1.700000X1.700000*%
%TD*%
%TA.AperFunction,ComponentPad*%
%ADD11O,1.700000X1.700000*%
%TD*%
%TA.AperFunction,ComponentPad*%
%ADD12C,2.000000*%
%TD*%
%TA.AperFunction,Conductor*%
%ADD13C,0.250000*%
%TD*%
G04 APERTURE END LIST*
D10*
%TO.P,J3,1,Pin_1*%
%TO.N,Net-(J1-Pin_1)*%
X237210000Y-83150000D03*
D11*
%TO.P,J3,2,Pin_2*%
%TO.N,Net-(J2-Pin_2)*%
X239750000Y-83150000D03*
%TO.P,J3,3,Pin_3*%
%TO.N,Net-(J1-Pin_3)*%
X242290000Y-83150000D03*
%TD*%
D10*
%TO.P,J1,1,Pin_1*%
%TO.N,Net-(J1-Pin_1)*%
X137160000Y-83820000D03*
D11*
%TO.P,J1,2,Pin_2*%
%TO.N,Net-(J1-Pin_2)*%
X139700000Y-83820000D03*
%TO.P,J1,3,Pin_3*%
%TO.N,Net-(J1-Pin_3)*%
X142240000Y-83820000D03*
%TD*%
D10*
%TO.P,J2,1,Pin_1*%
%TO.N,Net-(J1-Pin_1)*%
X42290000Y-83250000D03*
D11*
%TO.P,J2,2,Pin_2*%
%TO.N,Net-(J2-Pin_2)*%
X39750000Y-83250000D03*
%TO.P,J2,3,Pin_3*%
%TO.N,Net-(J1-Pin_3)*%
X37210000Y-83250000D03*
%TD*%
D12*
%TO.P,U1,1,IO1/TXD*%
%TO.N,unconnected-(U1-IO1{slash}TXD-Pad1)*%
X65400000Y-93950000D03*
%TO.P,U1,2,IO2/D9*%
%TO.N,unconnected-(U1-IO2{slash}D9-Pad2)*%
X85720000Y-93950000D03*
%TO.P,U1,3,IO3/RXD*%
%TO.N,unconnected-(U1-IO3{slash}RXD-Pad3)*%
X62860000Y-93950000D03*
%TO.P,U1,4,D0/IO4*%
%TO.N,unconnected-(U1-D0{slash}IO4-Pad4)*%
X98420000Y-68550000D03*
%TO.P,U1,5,IO5/D8*%
%TO.N,unconnected-(U1-IO5{slash}D8-Pad5)*%
X83180000Y-93950000D03*
%TO.P,U1,6,IO6/CLK*%
%TO.N,unconnected-(U1-IO6{slash}CLK-Pad6)*%
X88260000Y-93950000D03*
%TO.P,U1,7,IO7/SD0*%
%TO.N,unconnected-(U1-IO7{slash}SD0-Pad7)*%
X90800000Y-93950000D03*
%TO.P,U1,8,IO8/SD1*%
%TO.N,unconnected-(U1-IO8{slash}SD1-Pad8)*%
X93340000Y-93950000D03*
%TO.P,U1,9,IO9/D5*%
%TO.N,unconnected-(U1-IO9{slash}D5-Pad9)*%
X75560000Y-93950000D03*
%TO.P,U1,10,IO10/D6*%
%TO.N,unconnected-(U1-IO10{slash}D6-Pad10)*%
X78100000Y-93950000D03*
%TO.P,U1,11,IO11/CMD*%
%TO.N,unconnected-(U1-IO11{slash}CMD-Pad11)*%
X95880000Y-93950000D03*
%TO.P,U1,12,MCLK/IO12*%
%TO.N,unconnected-(U1-MCLK{slash}IO12-Pad12)*%
X95880000Y-68550000D03*
%TO.P,U1,13,IO13/D7*%
%TO.N,unconnected-(U1-IO13{slash}D7-Pad13)*%
X80640000Y-93950000D03*
%TO.P,U1,14,BCLK/IO14*%
%TO.N,unconnected-(U1-BCLK{slash}IO14-Pad14)*%
X93340000Y-68550000D03*
%TO.P,U1,15,A4/IO15*%
%TO.N,unconnected-(U1-A4{slash}IO15-Pad15)*%
X73020000Y-68550000D03*
%TO.P,U1,16,D1/IO16*%
%TO.N,unconnected-(U1-D1{slash}IO16-Pad16)*%
X100960000Y-68550000D03*
%TO.P,U1,17,LRCK/IO17*%
%TO.N,unconnected-(U1-LRCK{slash}IO17-Pad17)*%
X103500000Y-68550000D03*
%TO.P,U1,18,SCK/IO18*%
%TO.N,unconnected-(U1-SCK{slash}IO18-Pad18)*%
X80640000Y-68550000D03*
%TO.P,U1,19,MISO/IO19*%
%TO.N,unconnected-(U1-MISO{slash}IO19-Pad19)*%
X85720000Y-68550000D03*
%TO.P,U1,21,SDA/IO21*%
%TO.N,unconnected-(U1-SDA{slash}IO21-Pad21)*%
X88260000Y-68550000D03*
%TO.P,U1,22,SCL/IO22*%
%TO.N,unconnected-(U1-SCL{slash}IO22-Pad22)*%
X90800000Y-68550000D03*
%TO.P,U1,23,MOSI/IO23*%
%TO.N,unconnected-(U1-MOSI{slash}IO23-Pad23)*%
X83180000Y-68550000D03*
%TO.P,U1,25,IO25/D2*%
%TO.N,unconnected-(U1-IO25{slash}D2-Pad25)*%
X67940000Y-93950000D03*
%TO.P,U1,26,IO26/D3*%
%TO.N,Net-(J2-Pin_2)*%
X70480000Y-93950000D03*
%TO.P,U1,27,IO27/D4*%
%TO.N,Net-(J1-Pin_2)*%
X73020000Y-93950000D03*
%TO.P,U1,34,A2/IO34*%
%TO.N,unconnected-(U1-A2{slash}IO34-Pad34)*%
X67940000Y-68550000D03*
%TO.P,U1,35,A3/IO35*%
%TO.N,unconnected-(U1-A3{slash}IO35-Pad35)*%
X70480000Y-68550000D03*
%TO.P,U1,36,A0/IO36*%
%TO.N,unconnected-(U1-A0{slash}IO36-Pad36)*%
X62860000Y-68550000D03*
%TO.P,U1,39,A1/IO39*%
%TO.N,unconnected-(U1-A1{slash}IO39-Pad39)*%
X65400000Y-68550000D03*
%TO.P,U1,40,NC*%
%TO.N,unconnected-(U1-NC-Pad40)*%
X75560000Y-68550000D03*
%TO.P,U1,41,IO0*%
%TO.N,unconnected-(U1-IO0-Pad41)*%
X78100000Y-68550000D03*
%TO.P,U1,42,RST*%
%TO.N,unconnected-(U1-RST-Pad42)*%
X106040000Y-68550000D03*
%TO.P,U1,43,GND*%
%TO.N,Net-(J1-Pin_1)*%
X98420000Y-93950000D03*
%TO.P,U1,44,AREF*%
%TO.N,unconnected-(U1-AREF-Pad44)*%
X100960000Y-93950000D03*
%TO.P,U1,45,3V3*%
%TO.N,Net-(J1-Pin_3)*%
X103500000Y-93950000D03*
%TO.P,U1,46,VCC*%
%TO.N,unconnected-(U1-VCC-Pad46)*%
X106040000Y-93950000D03*
%TD*%
D13*
%TO.N,Net-(J1-Pin_1)*%
X90300000Y-83250000D02*
X98420000Y-91370000D01*
X237210000Y-85001701D02*
X237210000Y-83150000D01*
X137160000Y-85760000D02*
X140050000Y-88650000D01*
X233561701Y-88650000D02*
X237210000Y-85001701D01*
X106130000Y-83820000D02*
X98420000Y-91530000D01*
X137160000Y-83820000D02*
X106130000Y-83820000D01*
X137160000Y-83820000D02*
X137160000Y-85760000D01*
X140050000Y-88650000D02*
X233561701Y-88650000D01*
X98420000Y-91370000D02*
X98420000Y-93950000D01*
X98420000Y-91530000D02*
X98420000Y-93950000D01*
X42290000Y-83250000D02*
X90300000Y-83250000D01*
%TO.N,Net-(J1-Pin_3)*%
X242290000Y-83150000D02*
X242290000Y-80890000D01*
X103500000Y-96150000D02*
X103500000Y-93950000D01*
X44300000Y-97050000D02*
X102600000Y-97050000D01*
X37210000Y-89960000D02*
X44300000Y-97050000D01*
X240850000Y-79450000D02*
X144700000Y-79450000D01*
X242290000Y-80890000D02*
X240850000Y-79450000D01*
X37210000Y-83250000D02*
X37210000Y-89960000D01*
X142240000Y-81910000D02*
X142240000Y-83820000D01*
X102600000Y-97050000D02*
X103500000Y-96150000D01*
X144700000Y-79450000D02*
X142240000Y-81910000D01*
%TO.N,Net-(J2-Pin_2)*%
X39750000Y-85050000D02*
X40700000Y-86000000D01*
X40700000Y-86000000D02*
X64350000Y-86000000D01*
X64350000Y-86000000D02*
X70480000Y-92130000D01*
X70480000Y-92130000D02*
X70480000Y-93950000D01*
X39750000Y-83250000D02*
X39750000Y-85050000D01*
%TD*%
M02*
