%TF.GenerationSoftware,KiCad,Pcbnew,7.0.5-0*%
%TF.CreationDate,2023-07-06T10:59:35-04:00*%
%TF.ProjectId,Lemmingometre_v2,4c656d6d-696e-4676-9f6d-657472655f76,rev?*%
%TF.SameCoordinates,Original*%
%TF.FileFunction,Copper,L1,Top*%
%TF.FilePolarity,Positive*%
%FSLAX46Y46*%
G04 Gerber Fmt 4.6, Leading zero omitted, Abs format (unit mm)*
G04 Created by KiCad (PCBNEW 7.0.5-0) date 2023-07-06 10:59:35*
%MOMM*%
%LPD*%
G01*
G04 APERTURE LIST*
%TA.AperFunction,ComponentPad*%
%ADD10R,2.000000X2.000000*%
%TD*%
%TA.AperFunction,ComponentPad*%
%ADD11O,2.000000X1.600000*%
%TD*%
%TA.AperFunction,ComponentPad*%
%ADD12C,1.600000*%
%TD*%
%TA.AperFunction,ComponentPad*%
%ADD13O,1.600000X1.600000*%
%TD*%
%TA.AperFunction,ComponentPad*%
%ADD14R,1.700000X1.700000*%
%TD*%
%TA.AperFunction,ComponentPad*%
%ADD15O,1.700000X1.700000*%
%TD*%
%TA.AperFunction,ComponentPad*%
%ADD16R,1.050000X1.500000*%
%TD*%
%TA.AperFunction,ComponentPad*%
%ADD17O,1.050000X1.500000*%
%TD*%
%TA.AperFunction,ComponentPad*%
%ADD18C,2.000000*%
%TD*%
%TA.AperFunction,ViaPad*%
%ADD19C,0.800000*%
%TD*%
%TA.AperFunction,Conductor*%
%ADD20C,0.200000*%
%TD*%
G04 APERTURE END LIST*
D10*
%TO.P,MCU1,1,~{RST}*%
%TO.N,Net-(MCU1-~{RST})*%
X147090000Y-94150000D03*
D11*
%TO.P,MCU1,2,A0*%
%TO.N,unconnected-(MCU1-A0-Pad2)*%
X147090000Y-96690000D03*
%TO.P,MCU1,3,D0*%
%TO.N,unconnected-(MCU1-D0-Pad3)*%
X147090000Y-99230000D03*
%TO.P,MCU1,4,SCK/D5*%
%TO.N,Net-(MCU1-SCK{slash}D5)*%
X147090000Y-101770000D03*
%TO.P,MCU1,5,MISO/D6*%
%TO.N,Net-(MCU1-MISO{slash}D6)*%
X147090000Y-104310000D03*
%TO.P,MCU1,6,MOSI/D7*%
%TO.N,Net-(MCU1-MOSI{slash}D7)*%
X147090000Y-106850000D03*
%TO.P,MCU1,7,CS/D8*%
%TO.N,Net-(MCU1-CS{slash}D8)*%
X147090000Y-109390000D03*
%TO.P,MCU1,8,3V3*%
%TO.N,Net-(H1-Pin_1)*%
X147090000Y-111930000D03*
%TO.P,MCU1,9,5V*%
%TO.N,unconnected-(MCU1-5V-Pad9)*%
X169950000Y-111930000D03*
%TO.P,MCU1,10,GND*%
%TO.N,Net-(H1-Pin_2)*%
X169950000Y-109390000D03*
%TO.P,MCU1,11,D4*%
%TO.N,Net-(H6-Pin_2)*%
X169950000Y-106850000D03*
%TO.P,MCU1,12,D3*%
%TO.N,unconnected-(MCU1-D3-Pad12)*%
X169950000Y-104310000D03*
%TO.P,MCU1,13,SDA/D2*%
%TO.N,Net-(MCU1-SDA{slash}D2)*%
X169950000Y-101770000D03*
%TO.P,MCU1,14,SCL/D1*%
%TO.N,Net-(MCU1-SCL{slash}D1)*%
X169950000Y-99230000D03*
%TO.P,MCU1,15,RX*%
%TO.N,unconnected-(MCU1-RX-Pad15)*%
X169950000Y-96690000D03*
%TO.P,MCU1,16,TX*%
%TO.N,unconnected-(MCU1-TX-Pad16)*%
X169950000Y-94150000D03*
%TD*%
D12*
%TO.P,R2,1*%
%TO.N,Net-(C2-Pad2)*%
X172075000Y-44955000D03*
D13*
%TO.P,R2,2*%
%TO.N,Net-(NPN1-B)*%
X172075000Y-52575000D03*
%TD*%
D14*
%TO.P,H6,1,Pin_1*%
%TO.N,Net-(H1-Pin_1)*%
X147175000Y-53500000D03*
D15*
%TO.P,H6,2,Pin_2*%
%TO.N,Net-(H6-Pin_2)*%
X149715000Y-53500000D03*
%TO.P,H6,3,Pin_3*%
%TO.N,Net-(H1-Pin_2)*%
X152255000Y-53500000D03*
%TD*%
D14*
%TO.P,H5,1,Pin_1*%
%TO.N,Net-(H1-Pin_2)*%
X147170000Y-45675000D03*
D15*
%TO.P,H5,2,Pin_2*%
%TO.N,Net-(H1-Pin_1)*%
X149710000Y-45675000D03*
%TO.P,H5,3,Pin_3*%
%TO.N,Net-(H5-Pin_3)*%
X152250000Y-45675000D03*
%TD*%
D14*
%TO.P,H1,1,Pin_1*%
%TO.N,Net-(H1-Pin_1)*%
X156060000Y-45690000D03*
D15*
%TO.P,H1,2,Pin_2*%
%TO.N,Net-(H1-Pin_2)*%
X158600000Y-45690000D03*
%TD*%
D12*
%TO.P,R4,1*%
%TO.N,Net-(NPN1-B)*%
X172060000Y-58475000D03*
D13*
%TO.P,R4,2*%
%TO.N,Net-(H1-Pin_2)*%
X164440000Y-58475000D03*
%TD*%
D12*
%TO.P,R1,1*%
%TO.N,Net-(C1-Pad2)*%
X168725000Y-44905000D03*
D13*
%TO.P,R1,2*%
%TO.N,Net-(NPN2-B)*%
X168725000Y-52525000D03*
%TD*%
D16*
%TO.P,NPN2,1,C*%
%TO.N,Net-(MCU1-~{RST})*%
X155880000Y-52260000D03*
D17*
%TO.P,NPN2,2,B*%
%TO.N,Net-(NPN2-B)*%
X157150000Y-52260000D03*
%TO.P,NPN2,3,E*%
%TO.N,Net-(H1-Pin_2)*%
X158420000Y-52260000D03*
%TD*%
D12*
%TO.P,C1,1*%
%TO.N,Net-(H5-Pin_3)*%
X162200000Y-45400000D03*
%TO.P,C1,2*%
%TO.N,Net-(C1-Pad2)*%
X162200000Y-47900000D03*
%TD*%
%TO.P,R3,1*%
%TO.N,Net-(NPN2-B)*%
X169185000Y-55375000D03*
D13*
%TO.P,R3,2*%
%TO.N,Net-(H1-Pin_2)*%
X161565000Y-55375000D03*
%TD*%
D18*
%TO.P,SD1,1,MISO*%
%TO.N,Net-(MCU1-MISO{slash}D6)*%
X149440000Y-69370000D03*
%TO.P,SD1,2,SCK*%
%TO.N,Net-(MCU1-SCK{slash}D5)*%
X149440000Y-71910000D03*
%TO.P,SD1,3,SS*%
%TO.N,Net-(MCU1-CS{slash}D8)*%
X149440000Y-74450000D03*
%TO.P,SD1,4,MOSI*%
%TO.N,Net-(MCU1-MOSI{slash}D7)*%
X149440000Y-76990000D03*
%TO.P,SD1,5,GND*%
%TO.N,Net-(H1-Pin_2)*%
X149440000Y-79530000D03*
%TO.P,SD1,6,+5V*%
%TO.N,Net-(H1-Pin_1)*%
X149440000Y-82070000D03*
%TD*%
D12*
%TO.P,C2,1*%
%TO.N,Net-(H4-Pin_3)*%
X165550000Y-45425000D03*
%TO.P,C2,2*%
%TO.N,Net-(C2-Pad2)*%
X165550000Y-47925000D03*
%TD*%
D16*
%TO.P,NPN1,1,C*%
%TO.N,Net-(MCU1-~{RST})*%
X155885000Y-57175000D03*
D17*
%TO.P,NPN1,2,B*%
%TO.N,Net-(NPN1-B)*%
X157155000Y-57175000D03*
%TO.P,NPN1,3,E*%
%TO.N,Net-(H1-Pin_2)*%
X158425000Y-57175000D03*
%TD*%
D14*
%TO.P,H4,1,Pin_1*%
%TO.N,Net-(H1-Pin_2)*%
X147175000Y-49625000D03*
D15*
%TO.P,H4,2,Pin_2*%
%TO.N,Net-(H1-Pin_1)*%
X149715000Y-49625000D03*
%TO.P,H4,3,Pin_3*%
%TO.N,Net-(H4-Pin_3)*%
X152255000Y-49625000D03*
%TD*%
D18*
%TO.P,RTC1,5,SQW*%
%TO.N,unconnected-(RTC1-SQW-Pad5)*%
X164140000Y-62940000D03*
%TO.P,RTC1,4,SCL*%
%TO.N,Net-(MCU1-SCL{slash}D1)*%
X161600000Y-62940000D03*
%TO.P,RTC1,3,SDA*%
%TO.N,Net-(MCU1-SDA{slash}D2)*%
X159060000Y-62940000D03*
%TO.P,RTC1,2,VCC*%
%TO.N,Net-(H1-Pin_1)*%
X156520000Y-62940000D03*
%TO.P,RTC1,1,GND*%
%TO.N,Net-(H1-Pin_2)*%
X153980000Y-62940000D03*
%TD*%
D19*
%TO.N,Net-(H6-Pin_2)*%
X151550000Y-62675000D03*
%TO.N,Net-(MCU1-~{RST})*%
X149400000Y-63775000D03*
%TD*%
D20*
%TO.N,Net-(H4-Pin_3)*%
X165550000Y-45425000D02*
X164030635Y-45425000D01*
X164030635Y-45425000D02*
X162805635Y-46650000D01*
X162805635Y-46650000D02*
X161515686Y-46650000D01*
X160215686Y-47950000D02*
X153930000Y-47950000D01*
X161515686Y-46650000D02*
X160215686Y-47950000D01*
X153930000Y-47950000D02*
X152255000Y-49625000D01*
%TO.N,Net-(H5-Pin_3)*%
X152250000Y-45675000D02*
X153415000Y-46840000D01*
X153415000Y-46840000D02*
X159800000Y-46840000D01*
X159800000Y-46840000D02*
X161240000Y-45400000D01*
X161240000Y-45400000D02*
X162200000Y-45400000D01*
%TO.N,Net-(C1-Pad2)*%
X168725000Y-44905000D02*
X166930000Y-46700000D01*
X166930000Y-46700000D02*
X163400000Y-46700000D01*
X163400000Y-46700000D02*
X162200000Y-47900000D01*
%TO.N,Net-(MCU1-SCK{slash}D5)*%
X147090000Y-101770000D02*
X147290000Y-101770000D01*
X151230000Y-97830000D02*
X151230000Y-73700000D01*
X147290000Y-101770000D02*
X151230000Y-97830000D01*
X151230000Y-73700000D02*
X149440000Y-71910000D01*
%TO.N,Net-(MCU1-MISO{slash}D6)*%
X147090000Y-104310000D02*
X152090000Y-99310000D01*
X152090000Y-99310000D02*
X152090000Y-72020000D01*
X152090000Y-72020000D02*
X149440000Y-69370000D01*
%TO.N,Net-(H6-Pin_2)*%
X151550000Y-62675000D02*
X152950000Y-64075000D01*
X152950000Y-89850000D02*
X169950000Y-106850000D01*
X152950000Y-64075000D02*
X152950000Y-89850000D01*
%TO.N,Net-(H1-Pin_2)*%
X152255000Y-53500000D02*
X152255000Y-58845000D01*
X152255000Y-58845000D02*
X145980000Y-65120000D01*
X145980000Y-65120000D02*
X145980000Y-76070000D01*
X145980000Y-76070000D02*
X149440000Y-79530000D01*
%TO.N,Net-(C2-Pad2)*%
X169105000Y-47925000D02*
X165550000Y-47925000D01*
X172075000Y-44955000D02*
X169105000Y-47925000D01*
%TO.N,Net-(NPN1-B)*%
X170960000Y-59575000D02*
X159150000Y-59575000D01*
X159150000Y-59575000D02*
X157155000Y-57580000D01*
X172075000Y-58460000D02*
X172060000Y-58475000D01*
X172075000Y-52575000D02*
X172075000Y-58460000D01*
X157155000Y-57580000D02*
X157155000Y-57175000D01*
X172060000Y-58475000D02*
X170960000Y-59575000D01*
%TO.N,Net-(NPN2-B)*%
X168725000Y-52525000D02*
X168725000Y-54915000D01*
X168725000Y-54915000D02*
X169185000Y-55375000D01*
%TO.N,Net-(H1-Pin_2)*%
X161565000Y-55375000D02*
X158450000Y-52260000D01*
X157405000Y-53500000D02*
X152255000Y-53500000D01*
X160225000Y-55375000D02*
X158425000Y-57175000D01*
X147170000Y-49620000D02*
X147175000Y-49625000D01*
X161565000Y-55375000D02*
X160225000Y-55375000D01*
X158450000Y-52260000D02*
X158420000Y-52260000D01*
X158420000Y-52260000D02*
X158420000Y-52485000D01*
X158420000Y-52485000D02*
X157405000Y-53500000D01*
X147170000Y-45675000D02*
X147170000Y-49620000D01*
%TO.N,Net-(H1-Pin_1)*%
X147090000Y-111930000D02*
X145790000Y-110630000D01*
X149710000Y-45675000D02*
X150860000Y-44525000D01*
X145790000Y-85720000D02*
X149440000Y-82070000D01*
X145790000Y-110630000D02*
X145790000Y-85720000D01*
X148625000Y-52050000D02*
X147175000Y-53500000D01*
X150860000Y-44525000D02*
X154895000Y-44525000D01*
X149710000Y-49620000D02*
X149715000Y-49625000D01*
X149715000Y-49625000D02*
X148625000Y-50715000D01*
X148625000Y-50715000D02*
X148625000Y-52050000D01*
X149710000Y-45675000D02*
X149710000Y-49620000D01*
X154895000Y-44525000D02*
X156060000Y-45690000D01*
%TO.N,Net-(MCU1-~{RST})*%
X155885000Y-57175000D02*
X149400000Y-63660000D01*
X149400000Y-63660000D02*
X149400000Y-63775000D01*
%TO.N,Net-(MCU1-SDA{slash}D2)*%
X159060000Y-62940000D02*
X159060000Y-90880000D01*
X159060000Y-90880000D02*
X169950000Y-101770000D01*
%TO.N,Net-(MCU1-SCL{slash}D1)*%
X161600000Y-62940000D02*
X161600000Y-90880000D01*
X161600000Y-90880000D02*
X169950000Y-99230000D01*
%TD*%
M02*
