M48
; DRILL file {KiCad 7.0.5-0} date 2023 July 06, Thursday 11:00:33
; FORMAT={-:-/ absolute / inch / decimal}
; #@! TF.CreationDate,2023-07-06T11:00:33-04:00
; #@! TF.GenerationSoftware,Kicad,Pcbnew,7.0.5-0
; #@! TF.FileFunction,Plated,1,2,PTH
FMAT,2
INCH
; #@! TA.AperFunction,Plated,PTH,ViaDrill
T1C0.0157
; #@! TA.AperFunction,Plated,PTH,ComponentDrill
T2C0.0295
; #@! TA.AperFunction,Plated,PTH,ComponentDrill
T3C0.0315
; #@! TA.AperFunction,Plated,PTH,ComponentDrill
T4C0.0354
; #@! TA.AperFunction,Plated,PTH,ComponentDrill
T5C0.0394
%
G90
G05
T1
X5.8819Y-2.5108
X5.9665Y-2.4675
T2
X6.137Y-2.0575
X6.1372Y-2.251
X6.187Y-2.0575
X6.1872Y-2.251
X6.237Y-2.0575
X6.2372Y-2.251
T3
X6.3608Y-2.1801
X6.3858Y-1.7874
X6.3858Y-1.8858
X6.474Y-2.3022
X6.5177Y-1.7884
X6.5177Y-1.8868
X6.6427Y-1.7679
X6.6427Y-2.0679
X6.6608Y-2.1801
X6.774Y-2.3022
X6.7746Y-1.7699
X6.7746Y-2.0699
T4
X5.8835Y-2.7311
X5.8835Y-2.8311
X5.8835Y-2.9311
X5.8835Y-3.0311
X5.8835Y-3.1311
X5.8835Y-3.2311
X6.0622Y-2.478
X6.1622Y-2.478
X6.2622Y-2.478
X6.3622Y-2.478
X6.4622Y-2.478
T5
X5.7909Y-3.7067
X5.7909Y-3.8067
X5.7909Y-3.9067
X5.7909Y-4.0067
X5.7909Y-4.1067
X5.7909Y-4.2067
X5.7909Y-4.3067
X5.7909Y-4.4067
X5.7941Y-1.7982
X5.7943Y-1.9537
X5.7943Y-2.1063
X5.8941Y-1.7982
X5.8943Y-1.9537
X5.8943Y-2.1063
X5.9941Y-1.7982
X5.9943Y-1.9537
X5.9943Y-2.1063
X6.1441Y-1.7988
X6.2441Y-1.7988
X6.6909Y-3.7067
X6.6909Y-3.8067
X6.6909Y-3.9067
X6.6909Y-4.0067
X6.6909Y-4.1067
X6.6909Y-4.2067
X6.6909Y-4.3067
X6.6909Y-4.4067
T0
M30
