%TF.GenerationSoftware,KiCad,Pcbnew,7.0.5-0*%
%TF.CreationDate,2023-11-06T11:32:01-05:00*%
%TF.ProjectId,Lemmingometre_v3,4c656d6d-696e-4676-9f6d-657472655f76,rev?*%
%TF.SameCoordinates,Original*%
%TF.FileFunction,Soldermask,Bot*%
%TF.FilePolarity,Negative*%
%FSLAX46Y46*%
G04 Gerber Fmt 4.6, Leading zero omitted, Abs format (unit mm)*
G04 Created by KiCad (PCBNEW 7.0.5-0) date 2023-11-06 11:32:01*
%MOMM*%
%LPD*%
G01*
G04 APERTURE LIST*
G04 Aperture macros list*
%AMRoundRect*
0 Rectangle with rounded corners*
0 $1 Rounding radius*
0 $2 $3 $4 $5 $6 $7 $8 $9 X,Y pos of 4 corners*
0 Add a 4 corners polygon primitive as box body*
4,1,4,$2,$3,$4,$5,$6,$7,$8,$9,$2,$3,0*
0 Add four circle primitives for the rounded corners*
1,1,$1+$1,$2,$3*
1,1,$1+$1,$4,$5*
1,1,$1+$1,$6,$7*
1,1,$1+$1,$8,$9*
0 Add four rect primitives between the rounded corners*
20,1,$1+$1,$2,$3,$4,$5,0*
20,1,$1+$1,$4,$5,$6,$7,0*
20,1,$1+$1,$6,$7,$8,$9,0*
20,1,$1+$1,$8,$9,$2,$3,0*%
G04 Aperture macros list end*
%ADD10C,3.500000*%
%ADD11R,3.000000X3.000000*%
%ADD12C,3.000000*%
%ADD13RoundRect,0.250000X0.625000X-0.350000X0.625000X0.350000X-0.625000X0.350000X-0.625000X-0.350000X0*%
%ADD14O,1.750000X1.200000*%
%ADD15C,2.000000*%
%ADD16R,2.000000X2.000000*%
%ADD17R,7.000000X2.000000*%
G04 APERTURE END LIST*
D10*
%TO.C,Battery*%
X104050000Y-96550000D03*
X104050000Y-126550000D03*
D11*
X77350000Y-96550000D03*
D12*
X77350000Y-109350000D03*
%TD*%
D13*
%TO.C,PIR*%
X174400000Y-113900000D03*
D14*
X174400000Y-111900000D03*
X174400000Y-109900000D03*
%TD*%
D15*
%TO.C,Firebeetle*%
X190260000Y-124100000D03*
X210580000Y-124100000D03*
D16*
X187720000Y-124100000D03*
D15*
X223280000Y-98700000D03*
X208040000Y-124100000D03*
X213120000Y-124100000D03*
X215660000Y-124100000D03*
X218200000Y-124100000D03*
X200420000Y-124100000D03*
X202960000Y-124100000D03*
X220740000Y-124100000D03*
X220740000Y-98700000D03*
X205500000Y-124100000D03*
X218200000Y-98700000D03*
X197880000Y-98700000D03*
X225820000Y-98700000D03*
X228360000Y-98700000D03*
X205500000Y-98700000D03*
X210580000Y-98700000D03*
X213120000Y-98700000D03*
X215660000Y-98700000D03*
X208040000Y-98700000D03*
X192800000Y-124100000D03*
X195340000Y-124100000D03*
X197880000Y-124100000D03*
X192800000Y-98700000D03*
X195340000Y-98700000D03*
D16*
X187720000Y-98700000D03*
D15*
X190260000Y-98700000D03*
X200420000Y-98700000D03*
X202960000Y-98700000D03*
X230900000Y-98700000D03*
X223280000Y-124100000D03*
X225820000Y-124100000D03*
X228360000Y-124100000D03*
X230900000Y-124100000D03*
%TD*%
%TO.C,RTC*%
X51900000Y-125900000D03*
X54440000Y-125900000D03*
X56980000Y-125900000D03*
X59520000Y-125900000D03*
X62060000Y-125900000D03*
%TD*%
D17*
%TO.C,Switch*%
X34500000Y-105800000D03*
X34500000Y-112900000D03*
%TD*%
M02*
