M48
; DRILL file {KiCad 7.0.5-0} date 2023 November 06, Monday 11:14:17
; FORMAT={-:-/ absolute / inch / decimal}
; #@! TF.CreationDate,2023-11-06T11:14:17-05:00
; #@! TF.GenerationSoftware,Kicad,Pcbnew,7.0.5-0
; #@! TF.FileFunction,Plated,1,2,PTH
FMAT,2
INCH
; #@! TA.AperFunction,Plated,PTH,ComponentDrill
T1C0.0295
; #@! TA.AperFunction,Plated,PTH,ComponentDrill
T2C0.0394
; #@! TA.AperFunction,Plated,PTH,ComponentDrill
T3C0.0472
%
G90
G05
T1
X6.8661Y-4.3268
X6.8661Y-4.4055
X6.8661Y-4.4843
T2
X2.0433Y-4.9567
X2.1433Y-4.9567
X2.2433Y-4.9567
X2.3433Y-4.9567
X2.4433Y-4.9567
X7.3906Y-3.8858
X7.3906Y-4.8858
X7.4906Y-3.8858
X7.4906Y-4.8858
X7.5906Y-3.8858
X7.5906Y-4.8858
X7.6906Y-3.8858
X7.6906Y-4.8858
X7.7906Y-3.8858
X7.7906Y-4.8858
X7.8906Y-3.8858
X7.8906Y-4.8858
X7.9906Y-3.8858
X7.9906Y-4.8858
X8.0906Y-3.8858
X8.0906Y-4.8858
X8.1906Y-3.8858
X8.1906Y-4.8858
X8.2906Y-3.8858
X8.2906Y-4.8858
X8.3906Y-3.8858
X8.3906Y-4.8858
X8.4906Y-3.8858
X8.4906Y-4.8858
X8.5906Y-3.8858
X8.5906Y-4.8858
X8.6906Y-3.8858
X8.6906Y-4.8858
X8.7906Y-3.8858
X8.7906Y-4.8858
X8.8906Y-3.8858
X8.8906Y-4.8858
X8.9906Y-3.8858
X8.9906Y-4.8858
X9.0906Y-3.8858
X9.0906Y-4.8858
T3
X3.0453Y-3.8012
X3.0453Y-4.3051
T3
G00X1.2677Y-4.1654
M15
G01X1.4488Y-4.1654
M16
G05
G00X1.2677Y-4.4449
M15
G01X1.4488Y-4.4449
M16
G05
T0
M30
