G04 #@! TF.GenerationSoftware,KiCad,Pcbnew,7.0.5-0*
G04 #@! TF.CreationDate,2023-07-20T07:38:15-04:00*
G04 #@! TF.ProjectId,Lemmingometre_JST,4c656d6d-696e-4676-9f6d-657472655f4a,rev?*
G04 #@! TF.SameCoordinates,Original*
G04 #@! TF.FileFunction,Legend,Bot*
G04 #@! TF.FilePolarity,Positive*
%FSLAX46Y46*%
G04 Gerber Fmt 4.6, Leading zero omitted, Abs format (unit mm)*
G04 Created by KiCad (PCBNEW 7.0.5-0) date 2023-07-20 07:38:15*
%MOMM*%
%LPD*%
G01*
G04 APERTURE LIST*
%ADD10C,0.250000*%
%ADD11C,0.100000*%
G04 APERTURE END LIST*
D10*
X159740288Y-118014619D02*
X159406955Y-119014619D01*
X159406955Y-119014619D02*
X159073622Y-118014619D01*
X158787907Y-118109857D02*
X158740288Y-118062238D01*
X158740288Y-118062238D02*
X158645050Y-118014619D01*
X158645050Y-118014619D02*
X158406955Y-118014619D01*
X158406955Y-118014619D02*
X158311717Y-118062238D01*
X158311717Y-118062238D02*
X158264098Y-118109857D01*
X158264098Y-118109857D02*
X158216479Y-118205095D01*
X158216479Y-118205095D02*
X158216479Y-118300333D01*
X158216479Y-118300333D02*
X158264098Y-118443190D01*
X158264098Y-118443190D02*
X158835526Y-119014619D01*
X158835526Y-119014619D02*
X158216479Y-119014619D01*
D11*
G04 #@! TO.C,RTC1*
X160602380Y-71767580D02*
X160269047Y-72243771D01*
X160030952Y-71767580D02*
X160030952Y-72767580D01*
X160030952Y-72767580D02*
X160411904Y-72767580D01*
X160411904Y-72767580D02*
X160507142Y-72719961D01*
X160507142Y-72719961D02*
X160554761Y-72672342D01*
X160554761Y-72672342D02*
X160602380Y-72577104D01*
X160602380Y-72577104D02*
X160602380Y-72434247D01*
X160602380Y-72434247D02*
X160554761Y-72339009D01*
X160554761Y-72339009D02*
X160507142Y-72291390D01*
X160507142Y-72291390D02*
X160411904Y-72243771D01*
X160411904Y-72243771D02*
X160030952Y-72243771D01*
X160888095Y-72767580D02*
X161459523Y-72767580D01*
X161173809Y-71767580D02*
X161173809Y-72767580D01*
X162364285Y-71862819D02*
X162316666Y-71815200D01*
X162316666Y-71815200D02*
X162173809Y-71767580D01*
X162173809Y-71767580D02*
X162078571Y-71767580D01*
X162078571Y-71767580D02*
X161935714Y-71815200D01*
X161935714Y-71815200D02*
X161840476Y-71910438D01*
X161840476Y-71910438D02*
X161792857Y-72005676D01*
X161792857Y-72005676D02*
X161745238Y-72196152D01*
X161745238Y-72196152D02*
X161745238Y-72339009D01*
X161745238Y-72339009D02*
X161792857Y-72529485D01*
X161792857Y-72529485D02*
X161840476Y-72624723D01*
X161840476Y-72624723D02*
X161935714Y-72719961D01*
X161935714Y-72719961D02*
X162078571Y-72767580D01*
X162078571Y-72767580D02*
X162173809Y-72767580D01*
X162173809Y-72767580D02*
X162316666Y-72719961D01*
X162316666Y-72719961D02*
X162364285Y-72672342D01*
X163316666Y-71767580D02*
X162745238Y-71767580D01*
X163030952Y-71767580D02*
X163030952Y-72767580D01*
X163030952Y-72767580D02*
X162935714Y-72624723D01*
X162935714Y-72624723D02*
X162840476Y-72529485D01*
X162840476Y-72529485D02*
X162745238Y-72481866D01*
X150815000Y-60375000D02*
X150815000Y-85825000D01*
X150815000Y-60400000D02*
X172385000Y-60400000D01*
X150815000Y-85800000D02*
X156815000Y-85800000D01*
X156815000Y-85800000D02*
X159060000Y-83260000D01*
X159060000Y-83260000D02*
X164140000Y-83260000D01*
X164140000Y-83260000D02*
X166385000Y-85800000D01*
X172385000Y-85800000D02*
X166385000Y-85800000D01*
X172385000Y-85885000D02*
X172385000Y-60315000D01*
G04 #@! TO.C,G\u002A\u002A\u002A*
G36*
X161737331Y-100835282D02*
G01*
X161737331Y-102030800D01*
X161144862Y-102030800D01*
X160552393Y-102030800D01*
X160552393Y-101895378D01*
X160552393Y-101759957D01*
X161003093Y-101759957D01*
X161453792Y-101759957D01*
X161453792Y-100699860D01*
X161453792Y-99639764D01*
X161595562Y-99639764D01*
X161737331Y-99639764D01*
X161737331Y-100835282D01*
G37*
G36*
X160226535Y-100835294D02*
G01*
X160226535Y-102030825D01*
X159535673Y-102029755D01*
X158844812Y-102028684D01*
X158844812Y-101891146D01*
X158844812Y-101753609D01*
X159393904Y-101752535D01*
X159942996Y-101751461D01*
X159942996Y-101313473D01*
X159942996Y-100875485D01*
X159392846Y-100875485D01*
X158842696Y-100875485D01*
X158842696Y-100740064D01*
X158842696Y-100604642D01*
X159392846Y-100604642D01*
X159942996Y-100604642D01*
X159942996Y-100261856D01*
X159942996Y-99919071D01*
X159388614Y-99919071D01*
X158834232Y-99919071D01*
X158834232Y-99779417D01*
X158834232Y-99639764D01*
X159530384Y-99639764D01*
X160226535Y-99639764D01*
X160226535Y-100835294D01*
G37*
G36*
X156883511Y-103099228D02*
G01*
X156940214Y-103105867D01*
X157001480Y-103116744D01*
X157025678Y-103122554D01*
X157070437Y-103138274D01*
X157110416Y-103159145D01*
X157144953Y-103184635D01*
X157173387Y-103214215D01*
X157195057Y-103247354D01*
X157209300Y-103283520D01*
X157212051Y-103294688D01*
X157217740Y-103335587D01*
X157218037Y-103380139D01*
X157213017Y-103426195D01*
X157202755Y-103471604D01*
X157202343Y-103473014D01*
X157191298Y-103504967D01*
X157176298Y-103540604D01*
X157158663Y-103577177D01*
X157139714Y-103611939D01*
X157120773Y-103642141D01*
X157092752Y-103680568D01*
X157046692Y-103733948D01*
X156996826Y-103780346D01*
X156942426Y-103820410D01*
X156882765Y-103854791D01*
X156858175Y-103866762D01*
X156823891Y-103881167D01*
X156789794Y-103892300D01*
X156752126Y-103901502D01*
X156751867Y-103901557D01*
X156727685Y-103905565D01*
X156700423Y-103908251D01*
X156671988Y-103909611D01*
X156644285Y-103909644D01*
X156619221Y-103908346D01*
X156598701Y-103905716D01*
X156584633Y-103901748D01*
X156571714Y-103894245D01*
X156555631Y-103878044D01*
X156545789Y-103858241D01*
X156542603Y-103836502D01*
X156546484Y-103814488D01*
X156557846Y-103793864D01*
X156560590Y-103790516D01*
X156569628Y-103781863D01*
X156580340Y-103775989D01*
X156594414Y-103772401D01*
X156613537Y-103770608D01*
X156639398Y-103770120D01*
X156654522Y-103769914D01*
X156708206Y-103765303D01*
X156757845Y-103754284D01*
X156805095Y-103736398D01*
X156851613Y-103711184D01*
X156858385Y-103706886D01*
X156900846Y-103675734D01*
X156940447Y-103639573D01*
X156976449Y-103599496D01*
X157008111Y-103556598D01*
X157034695Y-103511973D01*
X157055459Y-103466713D01*
X157069664Y-103421913D01*
X157076570Y-103378667D01*
X157077123Y-103368013D01*
X157075872Y-103339887D01*
X157069829Y-103316496D01*
X157058396Y-103297247D01*
X157040975Y-103281546D01*
X157016967Y-103268796D01*
X156985773Y-103258405D01*
X156946795Y-103249778D01*
X156935367Y-103247729D01*
X156888603Y-103240893D01*
X156847603Y-103237902D01*
X156810866Y-103238861D01*
X156776887Y-103243878D01*
X156744162Y-103253059D01*
X156711190Y-103266512D01*
X156698937Y-103272366D01*
X156675342Y-103284931D01*
X156653678Y-103298738D01*
X156631419Y-103315475D01*
X156606042Y-103336831D01*
X156590938Y-103349607D01*
X156575601Y-103360992D01*
X156562749Y-103367925D01*
X156550527Y-103371360D01*
X156537081Y-103372250D01*
X156533692Y-103372133D01*
X156512861Y-103366944D01*
X156494587Y-103355249D01*
X156480346Y-103338691D01*
X156471615Y-103318910D01*
X156469871Y-103297548D01*
X156470538Y-103292633D01*
X156475520Y-103276038D01*
X156485302Y-103259530D01*
X156500797Y-103241801D01*
X156522920Y-103221539D01*
X156533213Y-103212925D01*
X156586114Y-103173927D01*
X156640192Y-103142945D01*
X156696172Y-103119610D01*
X156754780Y-103103552D01*
X156786605Y-103098815D01*
X156832073Y-103096865D01*
X156883511Y-103099228D01*
G37*
G36*
X156305658Y-99640071D02*
G01*
X156770805Y-100585752D01*
X156784709Y-100614018D01*
X156825837Y-100697598D01*
X156865944Y-100779060D01*
X156904871Y-100858082D01*
X156942458Y-100934341D01*
X156978545Y-101007516D01*
X157012974Y-101077283D01*
X157045585Y-101143322D01*
X157076219Y-101205308D01*
X157104715Y-101262921D01*
X157130914Y-101315838D01*
X157154658Y-101363736D01*
X157175786Y-101406293D01*
X157194139Y-101443188D01*
X157209558Y-101474096D01*
X157221883Y-101498698D01*
X157230955Y-101516669D01*
X157236614Y-101527688D01*
X157238700Y-101531433D01*
X157238998Y-101531001D01*
X157242331Y-101524767D01*
X157249205Y-101511379D01*
X157259458Y-101491158D01*
X157272932Y-101464425D01*
X157289465Y-101431504D01*
X157308896Y-101392714D01*
X157331066Y-101348379D01*
X157355814Y-101298819D01*
X157382980Y-101244356D01*
X157412403Y-101185313D01*
X157443923Y-101122010D01*
X157477379Y-101054770D01*
X157512611Y-100983914D01*
X157549459Y-100909764D01*
X157587762Y-100832641D01*
X157627360Y-100752868D01*
X157668092Y-100670766D01*
X157709798Y-100586656D01*
X158178146Y-99641880D01*
X158212887Y-99641880D01*
X158247628Y-99641880D01*
X158415886Y-100824702D01*
X158422989Y-100874640D01*
X158436935Y-100972749D01*
X158450545Y-101068567D01*
X158463772Y-101161757D01*
X158476568Y-101251979D01*
X158488886Y-101338895D01*
X158500676Y-101422167D01*
X158511893Y-101501458D01*
X158522488Y-101576428D01*
X158532413Y-101646739D01*
X158541621Y-101712054D01*
X158550064Y-101772034D01*
X158557695Y-101826340D01*
X158564465Y-101874635D01*
X158570327Y-101916580D01*
X158575233Y-101951837D01*
X158579136Y-101980068D01*
X158581988Y-102000935D01*
X158583741Y-102014099D01*
X158584347Y-102019222D01*
X158584549Y-102030919D01*
X158450185Y-102029801D01*
X158315822Y-102028684D01*
X158205627Y-101215285D01*
X158203652Y-101200706D01*
X158192582Y-101119091D01*
X158181806Y-101039794D01*
X158171381Y-100963220D01*
X158161363Y-100889772D01*
X158151806Y-100819855D01*
X158142768Y-100753875D01*
X158134303Y-100692236D01*
X158126468Y-100635343D01*
X158119318Y-100583599D01*
X158112909Y-100537411D01*
X158107297Y-100497183D01*
X158102538Y-100463318D01*
X158098688Y-100436223D01*
X158095802Y-100416302D01*
X158093936Y-100403959D01*
X158093146Y-100399599D01*
X158093132Y-100399597D01*
X158090899Y-100403441D01*
X158085091Y-100414510D01*
X158075882Y-100432460D01*
X158063443Y-100456944D01*
X158047947Y-100487619D01*
X158029567Y-100524139D01*
X158008475Y-100566160D01*
X157984844Y-100613336D01*
X157958846Y-100665323D01*
X157930654Y-100721775D01*
X157900440Y-100782348D01*
X157868377Y-100846696D01*
X157834637Y-100914475D01*
X157799393Y-100985339D01*
X157762818Y-101058945D01*
X157725083Y-101134946D01*
X157686361Y-101212998D01*
X157281864Y-102028684D01*
X157238689Y-102028684D01*
X157195514Y-102028684D01*
X156795021Y-101217614D01*
X156757027Y-101140681D01*
X156719551Y-101064822D01*
X156683241Y-100991348D01*
X156648268Y-100920606D01*
X156614806Y-100852942D01*
X156583025Y-100788704D01*
X156553097Y-100728238D01*
X156525195Y-100671892D01*
X156499491Y-100620012D01*
X156476156Y-100572947D01*
X156455362Y-100531042D01*
X156437282Y-100494645D01*
X156422087Y-100464103D01*
X156409949Y-100439763D01*
X156401041Y-100421972D01*
X156395534Y-100411077D01*
X156393599Y-100407425D01*
X156393018Y-100411129D01*
X156391354Y-100422745D01*
X156388680Y-100441792D01*
X156385062Y-100467777D01*
X156380569Y-100500205D01*
X156375267Y-100538585D01*
X156369224Y-100582421D01*
X156362508Y-100631222D01*
X156355185Y-100684493D01*
X156347324Y-100741741D01*
X156338992Y-100802473D01*
X156330255Y-100866196D01*
X156321183Y-100932416D01*
X156311841Y-101000640D01*
X156302298Y-101070375D01*
X156292620Y-101141127D01*
X156282876Y-101212403D01*
X156273133Y-101283710D01*
X156263457Y-101354554D01*
X156253918Y-101424442D01*
X156244581Y-101492880D01*
X156235514Y-101559376D01*
X156226786Y-101623436D01*
X156218463Y-101684566D01*
X156210612Y-101742273D01*
X156203302Y-101796065D01*
X156196599Y-101845447D01*
X156190571Y-101889926D01*
X156185285Y-101929009D01*
X156180809Y-101962203D01*
X156177211Y-101989014D01*
X156174557Y-102008949D01*
X156172915Y-102021515D01*
X156172353Y-102026217D01*
X156172130Y-102026609D01*
X156167087Y-102027933D01*
X156155166Y-102028993D01*
X156136049Y-102029799D01*
X156109421Y-102030362D01*
X156074964Y-102030692D01*
X156032363Y-102030800D01*
X155892374Y-102030800D01*
X155894808Y-102019162D01*
X155894824Y-102019082D01*
X155895667Y-102013569D01*
X155897644Y-102000136D01*
X155900696Y-101979191D01*
X155904765Y-101951142D01*
X155909792Y-101916395D01*
X155915719Y-101875359D01*
X155922488Y-101828441D01*
X155930039Y-101776048D01*
X155938315Y-101718587D01*
X155947256Y-101656466D01*
X155956805Y-101590093D01*
X155966903Y-101519875D01*
X155977492Y-101446219D01*
X155988513Y-101369532D01*
X155999908Y-101290223D01*
X156011617Y-101208698D01*
X156023584Y-101125366D01*
X156035749Y-101040633D01*
X156048054Y-100954906D01*
X156060440Y-100868594D01*
X156072849Y-100782104D01*
X156085223Y-100695842D01*
X156097503Y-100610218D01*
X156109630Y-100525637D01*
X156121546Y-100442508D01*
X156133194Y-100361237D01*
X156144513Y-100282233D01*
X156155446Y-100205903D01*
X156165935Y-100132654D01*
X156175920Y-100062893D01*
X156185343Y-99997028D01*
X156194147Y-99935467D01*
X156202272Y-99878616D01*
X156209660Y-99826884D01*
X156216253Y-99780677D01*
X156221992Y-99740404D01*
X156226818Y-99706471D01*
X156230674Y-99679286D01*
X156233500Y-99659256D01*
X156235239Y-99646790D01*
X156235832Y-99642293D01*
X156236301Y-99641882D01*
X156242616Y-99640829D01*
X156254754Y-99640130D01*
X156270745Y-99639917D01*
X156305658Y-99640071D01*
G37*
G36*
X164014820Y-103280483D02*
G01*
X164014802Y-103402724D01*
X164014765Y-103524480D01*
X164014710Y-103645445D01*
X164014637Y-103765311D01*
X164014545Y-103883773D01*
X164014436Y-104000523D01*
X164014308Y-104115254D01*
X164014161Y-104227661D01*
X164013997Y-104337435D01*
X164013814Y-104444272D01*
X164013612Y-104547862D01*
X164013393Y-104647901D01*
X164013155Y-104744081D01*
X164012898Y-104836096D01*
X164012624Y-104923639D01*
X164012331Y-105006402D01*
X164012019Y-105084080D01*
X164011690Y-105156366D01*
X164011342Y-105222953D01*
X164010975Y-105283533D01*
X164010591Y-105337802D01*
X164010188Y-105385451D01*
X164009766Y-105426174D01*
X164009326Y-105459664D01*
X164008868Y-105485615D01*
X164008392Y-105503720D01*
X164007897Y-105513672D01*
X164003646Y-105557860D01*
X163985871Y-105690816D01*
X163960850Y-105819911D01*
X163928390Y-105945830D01*
X163888299Y-106069260D01*
X163840385Y-106190885D01*
X163784457Y-106311390D01*
X163768038Y-106343597D01*
X163742809Y-106390360D01*
X163715905Y-106436835D01*
X163686025Y-106485241D01*
X163651872Y-106537798D01*
X163593663Y-106621308D01*
X163510853Y-106727448D01*
X163422266Y-106827663D01*
X163328216Y-106921781D01*
X163229015Y-107009628D01*
X163124978Y-107091030D01*
X163016418Y-107165815D01*
X162903648Y-107233810D01*
X162786982Y-107294841D01*
X162666734Y-107348736D01*
X162543216Y-107395320D01*
X162416743Y-107434421D01*
X162287628Y-107465866D01*
X162156184Y-107489481D01*
X162022725Y-107505093D01*
X161887565Y-107512529D01*
X161886619Y-107512544D01*
X161877762Y-107512602D01*
X161860713Y-107512658D01*
X161835686Y-107512711D01*
X161802895Y-107512763D01*
X161762554Y-107512811D01*
X161714879Y-107512858D01*
X161660084Y-107512902D01*
X161598383Y-107512944D01*
X161529990Y-107512983D01*
X161455121Y-107513020D01*
X161373989Y-107513054D01*
X161286809Y-107513086D01*
X161193796Y-107513115D01*
X161095164Y-107513142D01*
X160991127Y-107513165D01*
X160881900Y-107513186D01*
X160767697Y-107513204D01*
X160648733Y-107513220D01*
X160525223Y-107513232D01*
X160397380Y-107513241D01*
X160265420Y-107513248D01*
X160129556Y-107513251D01*
X159990004Y-107513252D01*
X159846977Y-107513249D01*
X159700690Y-107513243D01*
X159551358Y-107513234D01*
X159399194Y-107513222D01*
X159244415Y-107513207D01*
X159087233Y-107513188D01*
X158927864Y-107513166D01*
X158766522Y-107513140D01*
X158640707Y-107513120D01*
X158451841Y-107513090D01*
X158271132Y-107513063D01*
X158098392Y-107513037D01*
X157933433Y-107513012D01*
X157776069Y-107512985D01*
X157626113Y-107512956D01*
X157483377Y-107512924D01*
X157347674Y-107512888D01*
X157218817Y-107512847D01*
X157096619Y-107512799D01*
X156980892Y-107512744D01*
X156871450Y-107512680D01*
X156768105Y-107512607D01*
X156670669Y-107512523D01*
X156578956Y-107512428D01*
X156492779Y-107512319D01*
X156411950Y-107512197D01*
X156336282Y-107512060D01*
X156265588Y-107511906D01*
X156199680Y-107511736D01*
X156138372Y-107511547D01*
X156081476Y-107511339D01*
X156028806Y-107511111D01*
X155980173Y-107510861D01*
X155935391Y-107510588D01*
X155894272Y-107510292D01*
X155856630Y-107509972D01*
X155822277Y-107509625D01*
X155791025Y-107509252D01*
X155762689Y-107508851D01*
X155737079Y-107508421D01*
X155714010Y-107507961D01*
X155693294Y-107507469D01*
X155674744Y-107506945D01*
X155658173Y-107506389D01*
X155643393Y-107505797D01*
X155630217Y-107505170D01*
X155618459Y-107504507D01*
X155607930Y-107503806D01*
X155598444Y-107503066D01*
X155589813Y-107502287D01*
X155581851Y-107501467D01*
X155574370Y-107500604D01*
X155567182Y-107499699D01*
X155560101Y-107498750D01*
X155552940Y-107497755D01*
X155545511Y-107496714D01*
X155537627Y-107495626D01*
X155529101Y-107494490D01*
X155490344Y-107489055D01*
X155363314Y-107465945D01*
X155235666Y-107434684D01*
X155108024Y-107395419D01*
X155034618Y-107368924D01*
X154915263Y-107318976D01*
X154798066Y-107261424D01*
X154683985Y-107196789D01*
X154573979Y-107125590D01*
X154469004Y-107048348D01*
X154439894Y-107025014D01*
X154367435Y-106962762D01*
X154295290Y-106895142D01*
X154225407Y-106824104D01*
X154159735Y-106751596D01*
X154100223Y-106679567D01*
X154039444Y-106598248D01*
X153964632Y-106486018D01*
X153897060Y-106369759D01*
X153836888Y-106249852D01*
X153784274Y-106126677D01*
X153739378Y-106000613D01*
X153702357Y-105872041D01*
X153673371Y-105741340D01*
X153652578Y-105608891D01*
X153652322Y-105606843D01*
X153651074Y-105596951D01*
X153649888Y-105587537D01*
X153648763Y-105578375D01*
X153647698Y-105569243D01*
X153646690Y-105559916D01*
X153645739Y-105550172D01*
X153644842Y-105539787D01*
X153643998Y-105528537D01*
X153643205Y-105516199D01*
X153642462Y-105502550D01*
X153641767Y-105487365D01*
X153641119Y-105470422D01*
X153640516Y-105451496D01*
X153639955Y-105430365D01*
X153639437Y-105406805D01*
X153638958Y-105380592D01*
X153638518Y-105351502D01*
X153638115Y-105319313D01*
X153637747Y-105283801D01*
X153637413Y-105244743D01*
X153637111Y-105201914D01*
X153636839Y-105155091D01*
X153636596Y-105104051D01*
X153636380Y-105048570D01*
X153636190Y-104988425D01*
X153636024Y-104923393D01*
X153635880Y-104853249D01*
X153635757Y-104777770D01*
X153635653Y-104696734D01*
X153635567Y-104609915D01*
X153635496Y-104517091D01*
X153635440Y-104418038D01*
X153635397Y-104312533D01*
X153635364Y-104200353D01*
X153635342Y-104081272D01*
X153635327Y-103955070D01*
X153635318Y-103821520D01*
X153635315Y-103680401D01*
X153635314Y-103531489D01*
X153635315Y-103374560D01*
X153635315Y-103209390D01*
X153635315Y-103176556D01*
X153635315Y-103173595D01*
X153739105Y-103173595D01*
X153739107Y-103293697D01*
X153739121Y-103413576D01*
X153739147Y-103532916D01*
X153739183Y-103651399D01*
X153739232Y-103768709D01*
X153739292Y-103884528D01*
X153739363Y-103998540D01*
X153739446Y-104110428D01*
X153739540Y-104219874D01*
X153739646Y-104326562D01*
X153739764Y-104430175D01*
X153739893Y-104530396D01*
X153740033Y-104626907D01*
X153740185Y-104719392D01*
X153740348Y-104807534D01*
X153740523Y-104891015D01*
X153740710Y-104969520D01*
X153740908Y-105042730D01*
X153741117Y-105110330D01*
X153741338Y-105172001D01*
X153741571Y-105227428D01*
X153741815Y-105276292D01*
X153742070Y-105318277D01*
X153742337Y-105353067D01*
X153742616Y-105380343D01*
X153742906Y-105399790D01*
X153743208Y-105411090D01*
X153743670Y-105421434D01*
X153748500Y-105501527D01*
X153755462Y-105576192D01*
X153764882Y-105647964D01*
X153777087Y-105719381D01*
X153792404Y-105792979D01*
X153797646Y-105815688D01*
X153831843Y-105941880D01*
X153873881Y-106065198D01*
X153923551Y-106185320D01*
X153980645Y-106301922D01*
X154044952Y-106414682D01*
X154116264Y-106523278D01*
X154194371Y-106627387D01*
X154279065Y-106726687D01*
X154370135Y-106820855D01*
X154467373Y-106909569D01*
X154570570Y-106992506D01*
X154615090Y-107025072D01*
X154722106Y-107096031D01*
X154834013Y-107160506D01*
X154950022Y-107218122D01*
X155069343Y-107268504D01*
X155191187Y-107311276D01*
X155314763Y-107346063D01*
X155359221Y-107356646D01*
X155410547Y-107367686D01*
X155461309Y-107377155D01*
X155513765Y-107385436D01*
X155570170Y-107392912D01*
X155632783Y-107399964D01*
X155637400Y-107400407D01*
X155642809Y-107400837D01*
X155649137Y-107401248D01*
X155656568Y-107401641D01*
X155665288Y-107402017D01*
X155675478Y-107402375D01*
X155687324Y-107402716D01*
X155701010Y-107403041D01*
X155716719Y-107403349D01*
X155734635Y-107403642D01*
X155754943Y-107403920D01*
X155777827Y-107404184D01*
X155803470Y-107404433D01*
X155832056Y-107404668D01*
X155863771Y-107404890D01*
X155898796Y-107405099D01*
X155937318Y-107405295D01*
X155979519Y-107405480D01*
X156025583Y-107405652D01*
X156075695Y-107405814D01*
X156130039Y-107405965D01*
X156188798Y-107406105D01*
X156252158Y-107406236D01*
X156320300Y-107406357D01*
X156393411Y-107406470D01*
X156471673Y-107406574D01*
X156555270Y-107406669D01*
X156644388Y-107406757D01*
X156739209Y-107406838D01*
X156839917Y-107406912D01*
X156946698Y-107406980D01*
X157059734Y-107407042D01*
X157179210Y-107407098D01*
X157305310Y-107407149D01*
X157438217Y-107407196D01*
X157578117Y-107407239D01*
X157725192Y-107407278D01*
X157879626Y-107407313D01*
X158041605Y-107407346D01*
X158211311Y-107407377D01*
X158388930Y-107407405D01*
X158574644Y-107407432D01*
X158768637Y-107407458D01*
X158806226Y-107407463D01*
X158966963Y-107407482D01*
X159125676Y-107407497D01*
X159282152Y-107407509D01*
X159436176Y-107407518D01*
X159587532Y-107407523D01*
X159736007Y-107407526D01*
X159881385Y-107407525D01*
X160023453Y-107407522D01*
X160161994Y-107407515D01*
X160296795Y-107407506D01*
X160427641Y-107407494D01*
X160554317Y-107407479D01*
X160676608Y-107407461D01*
X160794300Y-107407440D01*
X160907179Y-107407417D01*
X161015028Y-107407392D01*
X161117634Y-107407363D01*
X161214782Y-107407333D01*
X161306257Y-107407300D01*
X161391845Y-107407264D01*
X161471330Y-107407226D01*
X161544499Y-107407186D01*
X161611136Y-107407143D01*
X161671027Y-107407099D01*
X161723957Y-107407052D01*
X161769711Y-107407003D01*
X161808075Y-107406952D01*
X161838834Y-107406899D01*
X161861773Y-107406845D01*
X161876677Y-107406788D01*
X161883333Y-107406729D01*
X161887487Y-107406622D01*
X161928417Y-107404973D01*
X161973386Y-107402268D01*
X162019270Y-107398744D01*
X162062942Y-107394637D01*
X162101277Y-107390186D01*
X162227218Y-107369890D01*
X162356699Y-107340832D01*
X162483129Y-107303888D01*
X162606445Y-107259084D01*
X162726582Y-107206449D01*
X162843476Y-107146012D01*
X162957065Y-107077800D01*
X163067284Y-107001841D01*
X163174069Y-106918163D01*
X163174618Y-106917705D01*
X163198983Y-106896555D01*
X163227423Y-106870551D01*
X163258459Y-106841152D01*
X163290610Y-106809820D01*
X163322396Y-106778016D01*
X163352338Y-106747200D01*
X163378955Y-106718834D01*
X163400768Y-106694379D01*
X163475755Y-106602400D01*
X163554398Y-106493884D01*
X163625255Y-106382062D01*
X163688311Y-106266966D01*
X163743552Y-106148629D01*
X163790966Y-106027082D01*
X163830539Y-105902357D01*
X163862257Y-105774487D01*
X163886107Y-105643504D01*
X163902074Y-105509440D01*
X163902129Y-105508766D01*
X163902627Y-105497948D01*
X163903105Y-105479007D01*
X163903565Y-105452250D01*
X163904007Y-105417984D01*
X163904430Y-105376516D01*
X163904835Y-105328153D01*
X163905221Y-105273203D01*
X163905589Y-105211973D01*
X163905939Y-105144769D01*
X163906270Y-105071899D01*
X163906582Y-104993671D01*
X163906876Y-104910390D01*
X163907151Y-104822366D01*
X163907408Y-104729903D01*
X163907647Y-104633310D01*
X163907867Y-104532894D01*
X163908069Y-104428962D01*
X163908252Y-104321822D01*
X163908416Y-104211779D01*
X163908563Y-104099142D01*
X163908690Y-103984217D01*
X163908800Y-103867313D01*
X163908890Y-103748735D01*
X163908963Y-103628791D01*
X163909017Y-103507788D01*
X163909052Y-103386034D01*
X163909069Y-103263835D01*
X163909068Y-103141498D01*
X163909048Y-103019332D01*
X163909009Y-102897642D01*
X163908953Y-102776736D01*
X163908877Y-102656922D01*
X163908784Y-102538506D01*
X163908672Y-102421795D01*
X163908541Y-102307097D01*
X163908392Y-102194719D01*
X163908225Y-102084968D01*
X163908039Y-101978151D01*
X163907834Y-101874575D01*
X163907612Y-101774548D01*
X163907370Y-101678376D01*
X163907111Y-101586367D01*
X163906833Y-101498827D01*
X163906536Y-101416065D01*
X163906221Y-101338387D01*
X163905888Y-101266100D01*
X163905536Y-101199511D01*
X163905166Y-101138928D01*
X163904777Y-101084658D01*
X163904370Y-101037007D01*
X163903944Y-100996284D01*
X163903500Y-100962795D01*
X163903038Y-100936847D01*
X163902557Y-100918748D01*
X163902058Y-100908804D01*
X163887609Y-100783844D01*
X163865823Y-100659297D01*
X163836765Y-100537957D01*
X163800171Y-100418863D01*
X163755779Y-100301053D01*
X163703324Y-100183566D01*
X163661647Y-100101761D01*
X163596496Y-99989564D01*
X163524364Y-99881731D01*
X163445603Y-99778612D01*
X163360563Y-99680559D01*
X163269598Y-99587923D01*
X163173057Y-99501058D01*
X163071293Y-99420313D01*
X162964658Y-99346041D01*
X162853504Y-99278594D01*
X162738181Y-99218323D01*
X162725087Y-99212058D01*
X162610507Y-99161628D01*
X162495283Y-99118901D01*
X162378426Y-99083609D01*
X162258948Y-99055482D01*
X162135860Y-99034251D01*
X162008174Y-99019648D01*
X162004926Y-99019448D01*
X161991957Y-99019037D01*
X161970906Y-99018638D01*
X161942030Y-99018253D01*
X161905589Y-99017881D01*
X161861840Y-99017522D01*
X161811043Y-99017175D01*
X161753455Y-99016842D01*
X161689336Y-99016522D01*
X161618943Y-99016215D01*
X161542535Y-99015921D01*
X161460372Y-99015640D01*
X161372710Y-99015372D01*
X161279809Y-99015117D01*
X161181928Y-99014875D01*
X161079324Y-99014647D01*
X160972256Y-99014431D01*
X160860983Y-99014228D01*
X160745764Y-99014038D01*
X160626856Y-99013861D01*
X160504519Y-99013698D01*
X160379010Y-99013547D01*
X160250589Y-99013409D01*
X160119513Y-99013284D01*
X159986042Y-99013173D01*
X159850433Y-99013074D01*
X159712946Y-99012988D01*
X159573839Y-99012915D01*
X159433370Y-99012856D01*
X159291798Y-99012809D01*
X159149381Y-99012775D01*
X159006378Y-99012754D01*
X158863048Y-99012746D01*
X158719648Y-99012751D01*
X158576438Y-99012769D01*
X158433675Y-99012800D01*
X158291619Y-99012844D01*
X158150528Y-99012901D01*
X158010660Y-99012970D01*
X157872274Y-99013053D01*
X157735628Y-99013149D01*
X157600982Y-99013257D01*
X157468592Y-99013379D01*
X157338719Y-99013513D01*
X157211620Y-99013661D01*
X157087554Y-99013821D01*
X156966779Y-99013994D01*
X156849555Y-99014180D01*
X156736139Y-99014379D01*
X156626789Y-99014591D01*
X156521766Y-99014816D01*
X156421326Y-99015054D01*
X156325728Y-99015305D01*
X156235232Y-99015568D01*
X156150095Y-99015845D01*
X156070576Y-99016134D01*
X155996934Y-99016436D01*
X155929426Y-99016751D01*
X155868312Y-99017079D01*
X155813850Y-99017420D01*
X155766299Y-99017774D01*
X155725916Y-99018140D01*
X155692961Y-99018520D01*
X155667692Y-99018912D01*
X155650368Y-99019317D01*
X155641247Y-99019735D01*
X155628194Y-99020893D01*
X155501641Y-99035989D01*
X155379379Y-99057869D01*
X155260342Y-99086823D01*
X155143463Y-99123143D01*
X155027675Y-99167122D01*
X154911911Y-99219049D01*
X154854588Y-99247720D01*
X154747707Y-99307195D01*
X154645992Y-99372209D01*
X154548435Y-99443474D01*
X154454027Y-99521703D01*
X154361760Y-99607608D01*
X154284625Y-99687106D01*
X154205551Y-99777837D01*
X154133185Y-99871688D01*
X154066696Y-99969819D01*
X154005249Y-100073392D01*
X153948010Y-100183566D01*
X153904866Y-100277837D01*
X153859493Y-100393243D01*
X153821733Y-100510174D01*
X153791405Y-100629358D01*
X153768328Y-100751521D01*
X153752323Y-100877390D01*
X153743208Y-101007691D01*
X153743084Y-101011255D01*
X153742788Y-101025884D01*
X153742502Y-101048532D01*
X153742228Y-101078882D01*
X153741966Y-101116617D01*
X153741715Y-101161420D01*
X153741476Y-101212973D01*
X153741248Y-101270961D01*
X153741031Y-101335065D01*
X153740826Y-101404969D01*
X153740633Y-101480357D01*
X153740451Y-101560910D01*
X153740281Y-101646313D01*
X153740122Y-101736248D01*
X153739975Y-101830397D01*
X153739839Y-101928445D01*
X153739715Y-102030074D01*
X153739602Y-102134968D01*
X153739501Y-102242808D01*
X153739411Y-102353279D01*
X153739333Y-102466063D01*
X153739266Y-102580843D01*
X153739211Y-102697303D01*
X153739167Y-102815125D01*
X153739135Y-102933992D01*
X153739114Y-103053588D01*
X153739105Y-103173595D01*
X153635315Y-103173595D01*
X153635314Y-103013023D01*
X153635314Y-102857687D01*
X153635315Y-102710324D01*
X153635320Y-102570710D01*
X153635329Y-102438623D01*
X153635346Y-102313838D01*
X153635370Y-102196132D01*
X153635404Y-102085281D01*
X153635450Y-101981063D01*
X153635509Y-101883252D01*
X153635582Y-101791627D01*
X153635671Y-101705962D01*
X153635779Y-101626035D01*
X153635906Y-101551622D01*
X153636054Y-101482499D01*
X153636224Y-101418444D01*
X153636419Y-101359231D01*
X153636640Y-101304639D01*
X153636888Y-101254443D01*
X153637165Y-101208419D01*
X153637473Y-101166345D01*
X153637814Y-101127996D01*
X153638188Y-101093149D01*
X153638598Y-101061580D01*
X153639045Y-101033067D01*
X153639530Y-101007385D01*
X153640056Y-100984310D01*
X153640624Y-100963620D01*
X153641235Y-100945090D01*
X153641892Y-100928498D01*
X153642595Y-100913619D01*
X153643347Y-100900230D01*
X153644148Y-100888107D01*
X153645002Y-100877027D01*
X153645908Y-100866767D01*
X153646869Y-100857102D01*
X153647887Y-100847810D01*
X153648962Y-100838666D01*
X153650097Y-100829447D01*
X153651294Y-100819930D01*
X153652553Y-100809890D01*
X153666853Y-100714479D01*
X153689636Y-100601656D01*
X153718545Y-100488777D01*
X153753023Y-100378234D01*
X153754083Y-100375138D01*
X153801368Y-100250316D01*
X153856287Y-100128828D01*
X153918554Y-100011038D01*
X153987881Y-99897311D01*
X154063982Y-99788010D01*
X154146569Y-99683499D01*
X154235354Y-99584141D01*
X154330052Y-99490301D01*
X154430374Y-99402343D01*
X154536034Y-99320631D01*
X154646745Y-99245528D01*
X154756744Y-99180091D01*
X154876690Y-99118025D01*
X154999403Y-99063927D01*
X155124976Y-99017766D01*
X155253502Y-98979510D01*
X155385074Y-98949130D01*
X155519786Y-98926595D01*
X155657731Y-98911873D01*
X155660081Y-98911748D01*
X155671716Y-98911455D01*
X155691767Y-98911172D01*
X155720199Y-98910900D01*
X155756977Y-98910639D01*
X155802067Y-98910388D01*
X155855435Y-98910149D01*
X155917046Y-98909920D01*
X155986867Y-98909702D01*
X156064862Y-98909495D01*
X156150997Y-98909299D01*
X156245237Y-98909114D01*
X156347550Y-98908941D01*
X156457899Y-98908778D01*
X156576252Y-98908626D01*
X156702572Y-98908486D01*
X156836827Y-98908357D01*
X156978981Y-98908239D01*
X157129001Y-98908133D01*
X157286851Y-98908038D01*
X157452498Y-98907955D01*
X157625907Y-98907883D01*
X157807044Y-98907822D01*
X157995874Y-98907773D01*
X158192363Y-98907736D01*
X158396477Y-98907711D01*
X158608181Y-98907697D01*
X158827441Y-98907695D01*
X158943620Y-98907696D01*
X159135065Y-98907698D01*
X159318341Y-98907699D01*
X159493633Y-98907701D01*
X159661126Y-98907704D01*
X159821005Y-98907709D01*
X159973456Y-98907718D01*
X160118665Y-98907732D01*
X160256817Y-98907752D01*
X160388097Y-98907778D01*
X160512690Y-98907812D01*
X160630783Y-98907855D01*
X160742560Y-98907907D01*
X160848207Y-98907971D01*
X160947909Y-98908047D01*
X161041852Y-98908135D01*
X161130221Y-98908238D01*
X161213202Y-98908356D01*
X161290980Y-98908490D01*
X161363740Y-98908641D01*
X161431668Y-98908811D01*
X161494949Y-98909000D01*
X161553768Y-98909209D01*
X161608312Y-98909439D01*
X161658766Y-98909693D01*
X161705314Y-98909969D01*
X161748142Y-98910270D01*
X161787437Y-98910597D01*
X161823382Y-98910951D01*
X161856164Y-98911332D01*
X161885968Y-98911742D01*
X161912979Y-98912182D01*
X161937383Y-98912652D01*
X161959365Y-98913155D01*
X161979111Y-98913690D01*
X161996806Y-98914260D01*
X162012635Y-98914864D01*
X162026784Y-98915505D01*
X162039439Y-98916183D01*
X162050784Y-98916898D01*
X162061005Y-98917654D01*
X162070288Y-98918449D01*
X162078818Y-98919286D01*
X162086780Y-98920165D01*
X162094360Y-98921088D01*
X162101743Y-98922055D01*
X162109115Y-98923068D01*
X162116661Y-98924127D01*
X162124566Y-98925234D01*
X162133016Y-98926390D01*
X162147438Y-98928378D01*
X162278785Y-98951171D01*
X162407956Y-98981996D01*
X162534611Y-99020637D01*
X162658413Y-99066880D01*
X162779024Y-99120510D01*
X162896105Y-99181312D01*
X163009319Y-99249070D01*
X163118327Y-99323570D01*
X163222791Y-99404598D01*
X163322373Y-99491937D01*
X163416734Y-99585374D01*
X163505537Y-99684693D01*
X163588443Y-99789679D01*
X163665114Y-99900117D01*
X163732925Y-100011447D01*
X163795507Y-100129631D01*
X163850226Y-100250704D01*
X163897139Y-100374828D01*
X163936301Y-100502167D01*
X163967767Y-100632885D01*
X163991594Y-100767144D01*
X164007838Y-100905108D01*
X164007926Y-100906225D01*
X164008418Y-100917510D01*
X164008891Y-100936897D01*
X164009347Y-100964082D01*
X164009785Y-100998756D01*
X164010204Y-101040614D01*
X164010605Y-101089348D01*
X164010988Y-101144653D01*
X164011353Y-101206220D01*
X164011699Y-101273744D01*
X164012028Y-101346918D01*
X164012338Y-101425435D01*
X164012630Y-101508988D01*
X164012903Y-101597270D01*
X164013159Y-101689976D01*
X164013396Y-101786797D01*
X164013615Y-101887428D01*
X164013816Y-101991562D01*
X164013998Y-102098891D01*
X164014163Y-102209110D01*
X164014309Y-102321911D01*
X164014436Y-102436988D01*
X164014546Y-102554034D01*
X164014637Y-102672742D01*
X164014710Y-102792806D01*
X164014765Y-102913919D01*
X164014802Y-103035774D01*
X164014820Y-103158064D01*
X164014820Y-103263835D01*
X164014820Y-103280483D01*
G37*
G36*
X163100564Y-105063193D02*
G01*
X163098636Y-105085174D01*
X163094032Y-105124612D01*
X163088557Y-105156881D01*
X163082291Y-105181559D01*
X163075313Y-105198220D01*
X163068146Y-105207232D01*
X163053959Y-105218505D01*
X163037715Y-105226795D01*
X163022778Y-105230064D01*
X163011140Y-105230133D01*
X163011133Y-105269279D01*
X163010839Y-105290790D01*
X163009549Y-105326446D01*
X163007361Y-105367395D01*
X163004417Y-105411840D01*
X163000857Y-105457987D01*
X162996823Y-105504042D01*
X162992456Y-105548209D01*
X162987896Y-105588694D01*
X162983284Y-105623702D01*
X162976070Y-105669312D01*
X162959374Y-105752382D01*
X162939096Y-105828142D01*
X162915144Y-105896869D01*
X162887428Y-105958843D01*
X162855857Y-106014341D01*
X162826797Y-106056830D01*
X162793412Y-106099037D01*
X162756783Y-106138623D01*
X162715913Y-106176509D01*
X162669804Y-106213613D01*
X162617460Y-106250856D01*
X162557884Y-106289156D01*
X162522788Y-106310386D01*
X162425417Y-106364979D01*
X162329761Y-106412014D01*
X162234978Y-106451792D01*
X162140227Y-106484617D01*
X162044668Y-106510790D01*
X161947458Y-106530615D01*
X161847756Y-106544393D01*
X161832345Y-106545846D01*
X161796596Y-106548196D01*
X161755619Y-106549834D01*
X161711545Y-106550743D01*
X161666505Y-106550908D01*
X161622629Y-106550310D01*
X161582049Y-106548934D01*
X161546895Y-106546762D01*
X161538601Y-106546326D01*
X161521234Y-106545801D01*
X161496035Y-106545271D01*
X161463346Y-106544739D01*
X161423511Y-106544207D01*
X161376873Y-106543680D01*
X161323774Y-106543159D01*
X161264557Y-106542648D01*
X161199565Y-106542149D01*
X161129142Y-106541667D01*
X161053630Y-106541202D01*
X160973371Y-106540759D01*
X160888710Y-106540341D01*
X160799989Y-106539949D01*
X160707550Y-106539588D01*
X159921104Y-106536706D01*
X159903588Y-106527444D01*
X159896212Y-106523080D01*
X159884525Y-106512944D01*
X159875957Y-106499569D01*
X159869999Y-106481668D01*
X159866141Y-106457950D01*
X159863872Y-106427127D01*
X159863217Y-106399483D01*
X159864033Y-106385541D01*
X160002865Y-106385541D01*
X160004298Y-106393814D01*
X160004817Y-106394063D01*
X160011826Y-106394843D01*
X160026984Y-106395539D01*
X160050325Y-106396151D01*
X160081884Y-106396680D01*
X160121697Y-106397126D01*
X160169798Y-106397489D01*
X160226223Y-106397771D01*
X160291005Y-106397970D01*
X160364182Y-106398088D01*
X160445787Y-106398124D01*
X160884599Y-106398105D01*
X160833680Y-106373397D01*
X160782761Y-106348690D01*
X160723650Y-106346225D01*
X160685351Y-106343762D01*
X160647980Y-106338968D01*
X160616212Y-106331826D01*
X160588630Y-106322083D01*
X160565025Y-106309902D01*
X160540483Y-106293461D01*
X160516616Y-106274133D01*
X160494547Y-106253082D01*
X160475398Y-106231470D01*
X160460290Y-106210462D01*
X160450346Y-106191221D01*
X160446688Y-106174910D01*
X160446679Y-106174194D01*
X160446311Y-106170939D01*
X160444542Y-106168605D01*
X160440195Y-106167039D01*
X160432093Y-106166087D01*
X160419058Y-106165597D01*
X160399914Y-106165415D01*
X160373483Y-106165388D01*
X160358368Y-106165474D01*
X160330663Y-106166016D01*
X160304175Y-106166974D01*
X160281319Y-106168251D01*
X160264511Y-106169751D01*
X160255127Y-106170958D01*
X160199135Y-106181234D01*
X160150155Y-106195917D01*
X160108249Y-106214971D01*
X160073482Y-106238363D01*
X160045916Y-106266059D01*
X160025614Y-106298025D01*
X160025548Y-106298160D01*
X160018565Y-106314883D01*
X160012346Y-106334049D01*
X160007349Y-106353592D01*
X160004036Y-106371445D01*
X160002865Y-106385541D01*
X159864033Y-106385541D01*
X159866512Y-106343217D01*
X159876368Y-106291980D01*
X159892894Y-106245421D01*
X159916201Y-106203192D01*
X159946399Y-106164941D01*
X159953400Y-106157270D01*
X159963501Y-106145721D01*
X159970128Y-106137479D01*
X159972106Y-106133962D01*
X159969037Y-106132713D01*
X159958887Y-106129062D01*
X159942711Y-106123418D01*
X159921601Y-106116157D01*
X159896646Y-106107658D01*
X159868937Y-106098297D01*
X159834961Y-106087094D01*
X159757627Y-106063589D01*
X159684348Y-106044399D01*
X159613142Y-106029079D01*
X159542028Y-106017182D01*
X159469021Y-106008263D01*
X159467988Y-106008159D01*
X159440073Y-106006060D01*
X159404726Y-106004495D01*
X159362923Y-106003461D01*
X159315635Y-106002960D01*
X159263837Y-106002990D01*
X159208503Y-106003552D01*
X159150606Y-106004645D01*
X159091119Y-106006268D01*
X159031017Y-106008421D01*
X158973176Y-106010361D01*
X158914147Y-106011602D01*
X158855724Y-106012135D01*
X158799213Y-106011973D01*
X158745921Y-106011128D01*
X158697151Y-106009611D01*
X158654210Y-106007436D01*
X158618404Y-106004614D01*
X158601887Y-106002927D01*
X158576818Y-106000207D01*
X158550845Y-105997237D01*
X158525523Y-105994208D01*
X158502404Y-105991313D01*
X158483041Y-105988741D01*
X158468989Y-105986685D01*
X158461799Y-105985335D01*
X158461347Y-105985360D01*
X158456109Y-105989329D01*
X158445898Y-105999745D01*
X158430679Y-106016651D01*
X158410417Y-106040086D01*
X158385078Y-106070090D01*
X158354625Y-106106704D01*
X158319024Y-106149969D01*
X158182622Y-106316436D01*
X158154004Y-106329618D01*
X158149966Y-106331371D01*
X158130614Y-106338242D01*
X158103597Y-106346125D01*
X158069470Y-106354868D01*
X158028789Y-106364317D01*
X158003861Y-106369959D01*
X157961096Y-106380292D01*
X157924001Y-106390465D01*
X157890795Y-106401195D01*
X157859700Y-106413198D01*
X157828933Y-106427192D01*
X157796715Y-106443893D01*
X157761265Y-106464017D01*
X157720803Y-106488281D01*
X157692026Y-106505709D01*
X157665620Y-106521321D01*
X157644272Y-106533378D01*
X157626905Y-106542437D01*
X157612444Y-106549058D01*
X157599811Y-106553799D01*
X157587931Y-106557218D01*
X157584470Y-106557814D01*
X157576676Y-106558544D01*
X157564921Y-106559204D01*
X157548860Y-106559797D01*
X157528146Y-106560326D01*
X157502433Y-106560795D01*
X157471374Y-106561206D01*
X157434624Y-106561564D01*
X157391834Y-106561871D01*
X157342659Y-106562130D01*
X157286753Y-106562345D01*
X157223769Y-106562520D01*
X157153361Y-106562656D01*
X157075181Y-106562758D01*
X156988885Y-106562829D01*
X156410998Y-106563189D01*
X156392183Y-106551238D01*
X156387475Y-106547948D01*
X156374396Y-106537186D01*
X156359302Y-106523205D01*
X156344599Y-106508183D01*
X156338411Y-106501336D01*
X156308540Y-106462327D01*
X156287031Y-106422402D01*
X156273828Y-106381434D01*
X156268875Y-106339297D01*
X156269436Y-106328978D01*
X156410009Y-106328978D01*
X156412252Y-106354150D01*
X156422784Y-106379735D01*
X156441649Y-106406126D01*
X156456551Y-106423536D01*
X156838153Y-106422637D01*
X156898292Y-106422489D01*
X156965960Y-106422302D01*
X157025965Y-106422104D01*
X157078750Y-106421891D01*
X157124761Y-106421655D01*
X157164440Y-106421390D01*
X157198233Y-106421089D01*
X157226583Y-106420746D01*
X157249934Y-106420354D01*
X157268731Y-106419907D01*
X157283418Y-106419398D01*
X157294438Y-106418820D01*
X157302236Y-106418168D01*
X157307257Y-106417434D01*
X157309943Y-106416613D01*
X157310740Y-106415697D01*
X157310289Y-106413085D01*
X157307879Y-106404003D01*
X157304084Y-106391506D01*
X157301022Y-106383266D01*
X157296672Y-106375326D01*
X157290081Y-106366861D01*
X157280174Y-106356659D01*
X157265876Y-106343510D01*
X157246110Y-106326201D01*
X157244751Y-106325022D01*
X157215012Y-106297928D01*
X157192627Y-106274724D01*
X157177650Y-106255464D01*
X157160507Y-106229161D01*
X157056825Y-106229015D01*
X157036069Y-106228917D01*
X157001714Y-106228568D01*
X156962104Y-106228001D01*
X156919088Y-106227248D01*
X156874516Y-106226344D01*
X156830236Y-106225321D01*
X156788098Y-106224211D01*
X156751557Y-106223293D01*
X156711133Y-106222514D01*
X156671731Y-106221984D01*
X156634837Y-106221712D01*
X156601940Y-106221710D01*
X156574526Y-106221987D01*
X156554083Y-106222554D01*
X156485113Y-106225554D01*
X156464108Y-106242158D01*
X156454641Y-106250531D01*
X156439815Y-106266275D01*
X156427612Y-106282092D01*
X156416011Y-106303826D01*
X156410009Y-106328978D01*
X156269436Y-106328978D01*
X156270884Y-106302350D01*
X156279808Y-106263672D01*
X156296117Y-106226709D01*
X156320161Y-106190680D01*
X156352294Y-106154809D01*
X156367963Y-106139912D01*
X156385662Y-106124375D01*
X156401893Y-106111345D01*
X156414482Y-106102644D01*
X156415767Y-106101887D01*
X156425476Y-106096485D01*
X156434379Y-106092603D01*
X156444327Y-106089835D01*
X156457171Y-106087778D01*
X156474762Y-106086026D01*
X156498951Y-106084174D01*
X156512017Y-106083394D01*
X156537063Y-106082486D01*
X156568496Y-106081920D01*
X156606577Y-106081700D01*
X156651562Y-106081826D01*
X156703711Y-106082301D01*
X156763282Y-106083127D01*
X156830534Y-106084305D01*
X156905725Y-106085837D01*
X156989114Y-106087726D01*
X157019683Y-106088331D01*
X157050097Y-106088701D01*
X157077600Y-106088804D01*
X157100804Y-106088643D01*
X157118322Y-106088219D01*
X157128767Y-106087535D01*
X157152043Y-106084597D01*
X157168325Y-106045644D01*
X157176917Y-106027246D01*
X157189103Y-106004260D01*
X157203008Y-105980202D01*
X157216992Y-105958024D01*
X157249377Y-105909357D01*
X157248775Y-105879734D01*
X157248153Y-105866015D01*
X157246385Y-105849523D01*
X157243214Y-105831385D01*
X157238344Y-105810338D01*
X157231478Y-105785121D01*
X157222319Y-105754471D01*
X157210572Y-105717126D01*
X157186798Y-105642746D01*
X157154609Y-105610644D01*
X157147869Y-105604043D01*
X157111138Y-105571564D01*
X157068536Y-105539269D01*
X157019705Y-105506957D01*
X156964288Y-105474426D01*
X156901927Y-105441476D01*
X156832265Y-105407906D01*
X156754943Y-105373514D01*
X156669604Y-105338099D01*
X156624093Y-105320138D01*
X156507584Y-105277530D01*
X156393712Y-105240970D01*
X156280727Y-105209919D01*
X156166878Y-105183842D01*
X156165073Y-105183468D01*
X156137347Y-105177726D01*
X156117027Y-105173759D01*
X156103252Y-105171748D01*
X156095163Y-105171873D01*
X156091900Y-105174314D01*
X156092603Y-105179252D01*
X156096412Y-105186866D01*
X156102468Y-105197336D01*
X156117882Y-105224904D01*
X156143052Y-105272896D01*
X156169000Y-105325569D01*
X156194759Y-105380832D01*
X156219363Y-105436593D01*
X156241847Y-105490759D01*
X156261245Y-105541241D01*
X156270326Y-105566385D01*
X156277610Y-105587797D01*
X156282293Y-105603972D01*
X156284631Y-105616296D01*
X156284877Y-105626155D01*
X156283285Y-105634933D01*
X156280111Y-105644018D01*
X156275861Y-105652964D01*
X156261374Y-105671427D01*
X156242528Y-105683819D01*
X156220841Y-105689344D01*
X156197833Y-105687205D01*
X156191161Y-105685149D01*
X156177494Y-105678494D01*
X156165898Y-105668314D01*
X156155454Y-105653412D01*
X156145242Y-105632592D01*
X156134342Y-105604659D01*
X156101814Y-105519959D01*
X156050626Y-105403560D01*
X155994139Y-105293122D01*
X155932595Y-105189146D01*
X155927793Y-105181665D01*
X155916089Y-105164348D01*
X155907153Y-105152993D01*
X155900044Y-105146499D01*
X155893819Y-105143764D01*
X155890353Y-105143234D01*
X155877731Y-105141900D01*
X155857907Y-105140185D01*
X155831699Y-105138148D01*
X155799926Y-105135844D01*
X155763406Y-105133331D01*
X155722958Y-105130666D01*
X155679400Y-105127907D01*
X155633552Y-105125109D01*
X155586232Y-105122331D01*
X155556432Y-105120583D01*
X155527513Y-105118819D01*
X155501973Y-105117194D01*
X155481079Y-105115791D01*
X155466099Y-105114691D01*
X155458301Y-105113978D01*
X155444633Y-105112199D01*
X155473885Y-105167993D01*
X155490049Y-105199544D01*
X155524902Y-105272315D01*
X155558402Y-105348504D01*
X155589147Y-105424845D01*
X155615734Y-105498072D01*
X155622407Y-105518816D01*
X155627706Y-105540413D01*
X155629027Y-105557356D01*
X155626236Y-105571308D01*
X155619197Y-105583931D01*
X155607779Y-105596888D01*
X155599224Y-105604403D01*
X155578856Y-105615449D01*
X155557665Y-105618954D01*
X155536905Y-105615262D01*
X155517830Y-105604719D01*
X155501696Y-105587668D01*
X155489757Y-105564455D01*
X155476043Y-105526679D01*
X155457693Y-105477459D01*
X155440609Y-105433567D01*
X155424091Y-105393358D01*
X155407436Y-105355189D01*
X155389941Y-105317415D01*
X155370904Y-105278394D01*
X155349623Y-105236481D01*
X155337604Y-105213431D01*
X155323314Y-105186630D01*
X155309525Y-105161358D01*
X155296909Y-105138815D01*
X155286141Y-105120202D01*
X155277892Y-105106718D01*
X155272836Y-105099564D01*
X155272691Y-105099484D01*
X155267197Y-105098288D01*
X155254802Y-105096136D01*
X155236797Y-105093237D01*
X155214474Y-105089800D01*
X155189128Y-105086034D01*
X155149946Y-105080029D01*
X155095298Y-105070763D01*
X155042246Y-105060778D01*
X154992501Y-105050419D01*
X154947773Y-105040027D01*
X154909773Y-105029946D01*
X154859639Y-105015508D01*
X154862312Y-105028661D01*
X154863601Y-105035147D01*
X154870354Y-105074443D01*
X154876080Y-105116955D01*
X154880768Y-105161717D01*
X154884406Y-105207763D01*
X154886983Y-105254126D01*
X154888487Y-105299838D01*
X154888908Y-105343934D01*
X154888234Y-105385447D01*
X154886455Y-105423410D01*
X154883557Y-105456856D01*
X154879532Y-105484818D01*
X154874366Y-105506330D01*
X154868049Y-105520425D01*
X154866367Y-105522787D01*
X154849193Y-105539486D01*
X154828237Y-105548997D01*
X154804720Y-105550734D01*
X154784832Y-105546347D01*
X154766821Y-105535589D01*
X154751088Y-105517515D01*
X154750361Y-105516457D01*
X154747000Y-105511174D01*
X154744655Y-105505817D01*
X154743224Y-105498989D01*
X154742604Y-105489294D01*
X154742692Y-105475334D01*
X154743385Y-105455713D01*
X154744582Y-105429034D01*
X154745974Y-105393293D01*
X154746922Y-105305993D01*
X154743973Y-105223669D01*
X154736978Y-105144424D01*
X154725789Y-105066356D01*
X154710259Y-104987567D01*
X154703023Y-104955043D01*
X154668892Y-104937287D01*
X154645013Y-104924385D01*
X154580523Y-104884028D01*
X154522265Y-104838687D01*
X154469899Y-104787967D01*
X154423086Y-104731472D01*
X154381485Y-104668810D01*
X154344758Y-104599585D01*
X154312565Y-104523402D01*
X154305518Y-104505008D01*
X154295226Y-104478756D01*
X154283468Y-104449232D01*
X154271206Y-104418852D01*
X154259404Y-104390033D01*
X154258230Y-104387178D01*
X154411660Y-104387178D01*
X154435272Y-104450000D01*
X154449103Y-104485519D01*
X154471913Y-104538316D01*
X154494802Y-104583937D01*
X154518150Y-104623174D01*
X154528320Y-104637495D01*
X154545594Y-104659081D01*
X154565792Y-104682265D01*
X154586973Y-104704912D01*
X154607194Y-104724888D01*
X154624513Y-104740057D01*
X154640467Y-104752693D01*
X154628104Y-104719512D01*
X154627921Y-104719021D01*
X154615910Y-104687705D01*
X154603158Y-104656379D01*
X154589009Y-104623556D01*
X154572805Y-104587748D01*
X154553889Y-104547470D01*
X154531603Y-104501234D01*
X154527706Y-104493221D01*
X154513761Y-104464395D01*
X154503084Y-104441894D01*
X154495281Y-104424704D01*
X154489958Y-104411811D01*
X154486720Y-104402202D01*
X154485173Y-104394862D01*
X154484921Y-104388778D01*
X154485571Y-104382935D01*
X154491566Y-104362035D01*
X154504430Y-104342647D01*
X154523399Y-104329034D01*
X154536710Y-104323818D01*
X154560153Y-104320709D01*
X154582095Y-104325649D01*
X154601699Y-104338538D01*
X154603531Y-104340641D01*
X154610046Y-104350527D01*
X154619291Y-104366531D01*
X154630713Y-104387554D01*
X154643756Y-104412496D01*
X154657864Y-104440256D01*
X154672483Y-104469735D01*
X154687058Y-104499831D01*
X154701033Y-104529446D01*
X154713854Y-104557479D01*
X154724965Y-104582831D01*
X154734081Y-104604718D01*
X154748069Y-104639800D01*
X154762518Y-104677531D01*
X154776665Y-104715829D01*
X154789744Y-104752610D01*
X154800988Y-104785791D01*
X154809634Y-104813289D01*
X154811106Y-104818108D01*
X154816582Y-104833835D01*
X154821816Y-104845997D01*
X154825848Y-104852286D01*
X154830901Y-104855148D01*
X154843553Y-104860421D01*
X154861778Y-104867049D01*
X154884113Y-104874558D01*
X154909095Y-104882474D01*
X154935262Y-104890324D01*
X154961151Y-104897633D01*
X154985299Y-104903928D01*
X154992059Y-104905578D01*
X155016908Y-104911351D01*
X155043483Y-104917155D01*
X155070357Y-104922718D01*
X155096107Y-104927765D01*
X155119305Y-104932023D01*
X155138528Y-104935219D01*
X155152350Y-104937078D01*
X155159346Y-104937328D01*
X155160185Y-104936778D01*
X155159220Y-104931337D01*
X155152995Y-104920126D01*
X155141434Y-104903035D01*
X155124461Y-104879957D01*
X155102002Y-104850783D01*
X155073979Y-104815405D01*
X155051798Y-104788010D01*
X155001749Y-104728512D01*
X154949517Y-104669664D01*
X154893879Y-104610141D01*
X154833613Y-104548620D01*
X154767493Y-104483777D01*
X154749689Y-104466512D01*
X154729325Y-104446498D01*
X154711427Y-104428616D01*
X154696910Y-104413792D01*
X154686691Y-104402952D01*
X154681686Y-104397023D01*
X154680420Y-104394904D01*
X154675462Y-104379372D01*
X154674221Y-104360329D01*
X154676648Y-104341227D01*
X154682693Y-104325521D01*
X154684559Y-104322625D01*
X154700497Y-104305999D01*
X154720456Y-104295682D01*
X154742547Y-104292338D01*
X154764880Y-104296632D01*
X154771337Y-104299862D01*
X154786178Y-104310052D01*
X154805576Y-104325720D01*
X154828946Y-104346265D01*
X154855701Y-104371085D01*
X154885253Y-104399581D01*
X154917018Y-104431151D01*
X154950408Y-104465195D01*
X154984838Y-104501112D01*
X155019720Y-104538301D01*
X155054468Y-104576162D01*
X155088496Y-104614093D01*
X155121218Y-104651494D01*
X155152046Y-104687764D01*
X155180395Y-104722303D01*
X155184113Y-104726950D01*
X155200460Y-104747806D01*
X155218702Y-104771638D01*
X155238136Y-104797476D01*
X155258061Y-104824349D01*
X155277774Y-104851286D01*
X155296572Y-104877315D01*
X155313753Y-104901467D01*
X155328615Y-104922770D01*
X155340455Y-104940253D01*
X155348571Y-104952944D01*
X155352260Y-104959875D01*
X155354981Y-104961392D01*
X155364667Y-104963679D01*
X155379611Y-104965980D01*
X155397997Y-104967973D01*
X155411772Y-104969127D01*
X155434710Y-104970875D01*
X155462250Y-104972837D01*
X155493390Y-104974951D01*
X155527125Y-104977158D01*
X155562452Y-104979398D01*
X155598367Y-104981611D01*
X155633866Y-104983738D01*
X155667946Y-104985717D01*
X155699603Y-104987490D01*
X155727833Y-104988996D01*
X155751633Y-104990176D01*
X155770000Y-104990969D01*
X155781928Y-104991316D01*
X155786416Y-104991157D01*
X155785301Y-104987637D01*
X155778697Y-104978502D01*
X155766835Y-104964339D01*
X155750137Y-104945617D01*
X155729022Y-104922808D01*
X155703910Y-104896381D01*
X155675223Y-104866807D01*
X155599191Y-104793216D01*
X155501874Y-104709524D01*
X155397990Y-104630957D01*
X155287472Y-104557473D01*
X155170257Y-104489028D01*
X155046279Y-104425580D01*
X154915472Y-104367086D01*
X154898684Y-104360025D01*
X154875744Y-104350011D01*
X154858656Y-104341797D01*
X154846132Y-104334608D01*
X154836883Y-104327665D01*
X154829620Y-104320194D01*
X154823053Y-104311417D01*
X154816113Y-104295125D01*
X154814235Y-104274782D01*
X154817717Y-104254026D01*
X154826425Y-104235879D01*
X154834496Y-104226912D01*
X154851707Y-104215275D01*
X154871319Y-104208392D01*
X154890200Y-104207652D01*
X154899604Y-104209880D01*
X154918270Y-104216064D01*
X154942734Y-104225458D01*
X154972032Y-104237609D01*
X155005201Y-104252068D01*
X155041277Y-104268383D01*
X155079295Y-104286103D01*
X155118292Y-104304778D01*
X155157305Y-104323956D01*
X155195369Y-104343187D01*
X155231520Y-104362019D01*
X155264795Y-104380001D01*
X155294229Y-104396684D01*
X155311883Y-104407085D01*
X155429352Y-104481228D01*
X155539721Y-104559839D01*
X155643149Y-104643052D01*
X155739794Y-104731003D01*
X155829816Y-104823825D01*
X155913374Y-104921654D01*
X155928269Y-104940271D01*
X155943762Y-104959667D01*
X155957170Y-104976489D01*
X155967423Y-104989394D01*
X155973453Y-104997038D01*
X155974225Y-104998024D01*
X155978782Y-105003255D01*
X155983888Y-105007106D01*
X155991112Y-105010081D01*
X156002021Y-105012682D01*
X156018182Y-105015412D01*
X156041163Y-105018775D01*
X156046831Y-105019593D01*
X156173654Y-105041476D01*
X156303536Y-105070588D01*
X156435633Y-105106678D01*
X156569099Y-105149496D01*
X156703092Y-105198793D01*
X156836765Y-105254318D01*
X156876517Y-105272293D01*
X156923234Y-105294569D01*
X156969632Y-105317824D01*
X157014193Y-105341257D01*
X157055401Y-105364068D01*
X157091739Y-105385455D01*
X157121688Y-105404620D01*
X157122741Y-105405331D01*
X157134863Y-105413202D01*
X157143770Y-105418421D01*
X157147601Y-105419891D01*
X157147675Y-105419614D01*
X157147357Y-105413650D01*
X157146028Y-105401232D01*
X157143873Y-105383962D01*
X157141076Y-105363439D01*
X157138228Y-105342301D01*
X157132132Y-105290371D01*
X157126417Y-105232828D01*
X157121218Y-105171632D01*
X157116671Y-105108743D01*
X157112910Y-105046122D01*
X157110072Y-104985730D01*
X157108290Y-104929526D01*
X157107701Y-104879472D01*
X157107732Y-104865805D01*
X157107954Y-104839500D01*
X157108475Y-104819729D01*
X157109400Y-104805144D01*
X157110836Y-104794395D01*
X157112891Y-104786135D01*
X157115671Y-104779015D01*
X157120817Y-104769311D01*
X157134891Y-104753456D01*
X157153610Y-104744294D01*
X157177764Y-104741346D01*
X157183772Y-104741406D01*
X157197923Y-104742650D01*
X157208587Y-104746334D01*
X157219474Y-104753542D01*
X157224025Y-104757078D01*
X157230495Y-104762736D01*
X157235742Y-104768895D01*
X157239916Y-104776439D01*
X157243171Y-104786254D01*
X157245658Y-104799225D01*
X157247528Y-104816235D01*
X157248933Y-104838169D01*
X157250026Y-104865912D01*
X157250959Y-104900348D01*
X157251882Y-104942363D01*
X157254466Y-105028474D01*
X157259180Y-105119899D01*
X157266052Y-105209070D01*
X157275316Y-105298522D01*
X157287202Y-105390786D01*
X157301944Y-105488398D01*
X157302658Y-105492835D01*
X157307894Y-105524214D01*
X157312861Y-105551256D01*
X157318053Y-105576021D01*
X157323961Y-105600570D01*
X157331076Y-105626964D01*
X157339891Y-105657263D01*
X157350898Y-105693529D01*
X157360565Y-105725732D01*
X157372166Y-105767375D01*
X157380803Y-105803004D01*
X157386697Y-105833669D01*
X157390071Y-105860421D01*
X157391147Y-105884312D01*
X157390546Y-105903915D01*
X157387421Y-105928618D01*
X157381033Y-105952240D01*
X157370723Y-105976569D01*
X157355831Y-106003390D01*
X157335697Y-106034492D01*
X157330509Y-106042411D01*
X157318978Y-106061697D01*
X157307627Y-106082626D01*
X157297311Y-106103430D01*
X157288884Y-106122339D01*
X157283201Y-106137588D01*
X157281117Y-106147406D01*
X157281803Y-106152500D01*
X157288688Y-106167076D01*
X157302989Y-106185525D01*
X157324729Y-106207873D01*
X157353930Y-106234148D01*
X157374236Y-106251652D01*
X157392212Y-106267489D01*
X157405385Y-106279706D01*
X157414674Y-106289254D01*
X157420993Y-106297083D01*
X157425260Y-106304145D01*
X157428392Y-106311390D01*
X157428676Y-106312162D01*
X157432339Y-106323593D01*
X157436911Y-106339723D01*
X157441856Y-106358410D01*
X157446637Y-106377515D01*
X157450717Y-106394898D01*
X157453559Y-106408420D01*
X157454591Y-106415697D01*
X157454625Y-106415939D01*
X157454730Y-106417570D01*
X157456524Y-106420687D01*
X157461823Y-106422400D01*
X157472279Y-106423041D01*
X157489539Y-106422940D01*
X157490983Y-106422915D01*
X157513383Y-106422390D01*
X157531429Y-106421314D01*
X157546774Y-106419133D01*
X157561070Y-106415294D01*
X157575972Y-106409243D01*
X157593130Y-106400429D01*
X157614199Y-106388296D01*
X157640830Y-106372292D01*
X157660908Y-106360157D01*
X157687668Y-106344052D01*
X157709110Y-106331296D01*
X157726405Y-106321240D01*
X157740726Y-106313236D01*
X157753243Y-106306636D01*
X157765129Y-106300790D01*
X157777556Y-106295050D01*
X157791695Y-106288768D01*
X157810425Y-106280794D01*
X157840815Y-106269084D01*
X157872931Y-106258334D01*
X157908441Y-106248038D01*
X157949012Y-106237690D01*
X157996312Y-106226786D01*
X157999032Y-106226181D01*
X158026799Y-106219734D01*
X158051287Y-106213569D01*
X158071239Y-106208032D01*
X158085403Y-106203470D01*
X158092523Y-106200228D01*
X158095834Y-106196888D01*
X158104295Y-106187364D01*
X158117040Y-106172527D01*
X158133487Y-106153071D01*
X158153052Y-106129688D01*
X158175152Y-106103072D01*
X158199207Y-106073919D01*
X158224632Y-106042920D01*
X158241926Y-106021758D01*
X158268120Y-105989610D01*
X158289651Y-105962992D01*
X158306985Y-105941276D01*
X158320589Y-105923832D01*
X158330927Y-105910031D01*
X158338467Y-105899243D01*
X158343673Y-105890840D01*
X158347012Y-105884192D01*
X158348949Y-105878670D01*
X158349952Y-105873643D01*
X158352976Y-105853863D01*
X158368131Y-105783261D01*
X158390363Y-105709574D01*
X158419364Y-105633491D01*
X158454827Y-105555703D01*
X158496445Y-105476900D01*
X158543911Y-105397770D01*
X158596918Y-105319004D01*
X158597247Y-105318541D01*
X158609861Y-105300100D01*
X158621029Y-105282565D01*
X158629551Y-105267900D01*
X158634225Y-105258067D01*
X158634552Y-105257061D01*
X158637195Y-105246620D01*
X158640817Y-105229650D01*
X158645108Y-105207715D01*
X158649762Y-105182380D01*
X158654471Y-105155208D01*
X158661919Y-105112919D01*
X158672322Y-105061121D01*
X158683204Y-105016115D01*
X158694942Y-104976934D01*
X158707916Y-104942609D01*
X158722501Y-104912171D01*
X158739078Y-104884653D01*
X158758025Y-104859086D01*
X158779718Y-104834501D01*
X158790522Y-104822609D01*
X158804805Y-104804304D01*
X158816671Y-104784800D01*
X158827024Y-104762302D01*
X158836766Y-104735014D01*
X158846801Y-104701143D01*
X158847685Y-104697939D01*
X158865259Y-104625714D01*
X158880345Y-104546592D01*
X158892794Y-104461760D01*
X158902453Y-104372401D01*
X158909171Y-104279703D01*
X158912796Y-104184849D01*
X158913343Y-104161056D01*
X158914117Y-104132491D01*
X158914931Y-104107115D01*
X158915739Y-104086246D01*
X158916494Y-104071203D01*
X158917148Y-104063303D01*
X158921278Y-104051281D01*
X158932214Y-104036223D01*
X158947374Y-104023639D01*
X158964467Y-104015829D01*
X158986689Y-104013599D01*
X159009519Y-104019180D01*
X159030506Y-104032618D01*
X159032462Y-104034370D01*
X159038975Y-104041054D01*
X159044133Y-104048518D01*
X159048063Y-104057720D01*
X159050891Y-104069620D01*
X159052742Y-104085178D01*
X159053743Y-104105355D01*
X159054020Y-104131108D01*
X159053699Y-104163399D01*
X159052905Y-104203187D01*
X159050857Y-104264840D01*
X159044427Y-104367755D01*
X159034413Y-104467083D01*
X159020953Y-104561745D01*
X159004187Y-104650661D01*
X158984256Y-104732751D01*
X158976195Y-104761165D01*
X158964559Y-104797815D01*
X158952818Y-104828589D01*
X158940227Y-104854994D01*
X158926038Y-104878535D01*
X158909504Y-104900720D01*
X158889877Y-104923056D01*
X158874806Y-104940262D01*
X158858234Y-104962808D01*
X158844015Y-104987287D01*
X158831737Y-105014788D01*
X158820988Y-105046400D01*
X158811356Y-105083211D01*
X158802429Y-105126308D01*
X158793794Y-105176780D01*
X158792462Y-105185174D01*
X158786389Y-105222340D01*
X158780905Y-105252745D01*
X158775536Y-105277740D01*
X158769811Y-105298677D01*
X158763256Y-105316907D01*
X158755398Y-105333783D01*
X158745765Y-105350657D01*
X158733884Y-105368879D01*
X158719281Y-105389802D01*
X158675809Y-105453806D01*
X158635485Y-105518690D01*
X158599385Y-105582644D01*
X158568317Y-105644236D01*
X158543091Y-105702029D01*
X158539180Y-105712209D01*
X158531927Y-105732445D01*
X158524343Y-105754961D01*
X158516954Y-105778047D01*
X158510289Y-105799995D01*
X158504875Y-105819095D01*
X158501239Y-105833638D01*
X158499910Y-105841915D01*
X158500126Y-105843481D01*
X158502098Y-105845992D01*
X158507035Y-105848191D01*
X158516030Y-105850307D01*
X158530173Y-105852571D01*
X158550555Y-105855214D01*
X158578269Y-105858466D01*
X158592839Y-105860078D01*
X158648312Y-105865168D01*
X158705706Y-105868738D01*
X158766310Y-105870820D01*
X158831408Y-105871445D01*
X158902287Y-105870646D01*
X158980234Y-105868455D01*
X158984679Y-105868300D01*
X159053671Y-105866160D01*
X159121065Y-105864557D01*
X159186099Y-105863488D01*
X159248013Y-105862951D01*
X159306045Y-105862941D01*
X159359434Y-105863455D01*
X159407420Y-105864491D01*
X159449240Y-105866045D01*
X159484133Y-105868114D01*
X159511340Y-105870695D01*
X159534185Y-105873631D01*
X159629804Y-105888929D01*
X159724744Y-105909180D01*
X159821076Y-105934867D01*
X159920870Y-105966474D01*
X159926761Y-105968466D01*
X159954641Y-105977667D01*
X159981525Y-105986197D01*
X160005665Y-105993523D01*
X160025314Y-105999112D01*
X160038724Y-106002430D01*
X160054541Y-106005381D01*
X160092355Y-106010362D01*
X160136132Y-106013558D01*
X160186452Y-106014992D01*
X160243900Y-106014685D01*
X160309057Y-106012660D01*
X160313550Y-106012473D01*
X160343976Y-106011152D01*
X160371383Y-106009879D01*
X160394685Y-106008709D01*
X160412793Y-106007700D01*
X160424620Y-106006909D01*
X160429077Y-106006392D01*
X160429335Y-106005219D01*
X160429377Y-105997449D01*
X160428779Y-105984142D01*
X160427613Y-105967274D01*
X160424623Y-105929497D01*
X160407044Y-105924326D01*
X160391808Y-105917761D01*
X160373259Y-105903718D01*
X160359932Y-105886082D01*
X160358389Y-105881833D01*
X160355273Y-105869539D01*
X160351510Y-105851638D01*
X160347442Y-105829795D01*
X160343411Y-105805675D01*
X160334338Y-105743376D01*
X160322696Y-105636937D01*
X160316888Y-105536123D01*
X160316941Y-105440584D01*
X160322884Y-105349966D01*
X160334744Y-105263918D01*
X160352552Y-105182088D01*
X160376334Y-105104125D01*
X160406120Y-105029675D01*
X160417307Y-105004842D01*
X160394175Y-104980592D01*
X160389445Y-104975551D01*
X160378679Y-104962803D01*
X160371301Y-104950811D01*
X160367366Y-104938385D01*
X160366932Y-104924336D01*
X160370052Y-104907473D01*
X160376783Y-104886606D01*
X160387180Y-104860546D01*
X160401300Y-104828101D01*
X160433449Y-104757919D01*
X160508712Y-104608435D01*
X160591744Y-104462221D01*
X160682479Y-104319373D01*
X160780852Y-104179983D01*
X160886799Y-104044145D01*
X161000255Y-103911954D01*
X161121156Y-103783502D01*
X161139265Y-103765180D01*
X161174931Y-103729610D01*
X161205469Y-103699967D01*
X161231202Y-103675964D01*
X161252454Y-103657313D01*
X161269547Y-103643724D01*
X161282804Y-103634910D01*
X161292549Y-103630583D01*
X161306562Y-103628362D01*
X161328180Y-103630883D01*
X161347534Y-103639850D01*
X161363386Y-103654024D01*
X161374495Y-103672170D01*
X161379624Y-103693049D01*
X161377532Y-103715425D01*
X161376422Y-103718724D01*
X161373372Y-103724716D01*
X161368241Y-103732189D01*
X161360458Y-103741773D01*
X161349454Y-103754099D01*
X161334658Y-103769798D01*
X161315500Y-103789501D01*
X161291409Y-103813838D01*
X161261817Y-103843441D01*
X161205040Y-103900964D01*
X161114027Y-103997526D01*
X161029700Y-104092996D01*
X160951231Y-104188436D01*
X160877794Y-104284906D01*
X160808562Y-104383468D01*
X160742710Y-104485184D01*
X160679409Y-104591113D01*
X160664114Y-104618216D01*
X160647329Y-104648871D01*
X160629937Y-104681419D01*
X160612402Y-104714926D01*
X160595190Y-104748459D01*
X160578765Y-104781085D01*
X160563591Y-104811873D01*
X160550135Y-104839887D01*
X160538860Y-104864197D01*
X160530230Y-104883868D01*
X160524712Y-104897967D01*
X160522769Y-104905562D01*
X160525098Y-104910369D01*
X160532158Y-104919255D01*
X160542296Y-104929844D01*
X160548019Y-104935533D01*
X160561719Y-104951633D01*
X160569992Y-104967149D01*
X160572944Y-104983576D01*
X160570679Y-105002412D01*
X160563300Y-105025154D01*
X160550913Y-105053297D01*
X160528792Y-105102782D01*
X160505859Y-105163236D01*
X160487696Y-105224060D01*
X160473558Y-105287822D01*
X160462698Y-105357091D01*
X160461072Y-105372935D01*
X160459354Y-105401417D01*
X160458314Y-105435351D01*
X160457936Y-105472987D01*
X160458205Y-105512574D01*
X160459103Y-105552363D01*
X160460616Y-105590604D01*
X160462727Y-105625547D01*
X160465421Y-105655442D01*
X160466567Y-105665614D01*
X160470798Y-105700889D01*
X160474928Y-105731956D01*
X160478824Y-105757971D01*
X160482352Y-105778090D01*
X160485380Y-105791468D01*
X160487774Y-105797262D01*
X160489066Y-105798067D01*
X160496978Y-105801309D01*
X160508551Y-105804992D01*
X160508711Y-105805038D01*
X160525013Y-105813006D01*
X160540349Y-105826025D01*
X160552337Y-105841607D01*
X160558595Y-105857264D01*
X160559047Y-105860469D01*
X160560386Y-105872199D01*
X160562301Y-105890607D01*
X160564681Y-105914565D01*
X160567415Y-105942945D01*
X160570392Y-105974618D01*
X160573500Y-106008455D01*
X160585956Y-106145640D01*
X160599856Y-106160107D01*
X160611153Y-106170573D01*
X160637796Y-106188139D01*
X160666655Y-106199075D01*
X160671368Y-106199990D01*
X160685832Y-106201896D01*
X160705737Y-106203839D01*
X160729099Y-106205638D01*
X160753933Y-106207108D01*
X160822168Y-106210521D01*
X160889355Y-106242494D01*
X160907724Y-106251101D01*
X160988515Y-106285745D01*
X161070849Y-106315709D01*
X161155779Y-106341256D01*
X161244360Y-106362646D01*
X161337649Y-106380142D01*
X161436699Y-106394005D01*
X161478073Y-106398105D01*
X161542566Y-106404496D01*
X161568863Y-106406454D01*
X161675802Y-106410541D01*
X161778519Y-106407894D01*
X161877932Y-106398366D01*
X161974963Y-106381808D01*
X162070529Y-106358072D01*
X162165550Y-106327009D01*
X162260947Y-106288470D01*
X162279322Y-106280143D01*
X162322596Y-106259149D01*
X162368708Y-106235146D01*
X162415874Y-106209157D01*
X162462311Y-106182206D01*
X162506234Y-106155316D01*
X162545860Y-106129509D01*
X162579406Y-106105809D01*
X162603722Y-106086955D01*
X162642952Y-106052837D01*
X162678299Y-106016706D01*
X162709959Y-105978034D01*
X162738129Y-105936298D01*
X162763006Y-105890970D01*
X162784786Y-105841524D01*
X162803665Y-105787435D01*
X162819839Y-105728176D01*
X162833507Y-105663222D01*
X162844863Y-105592046D01*
X162854104Y-105514123D01*
X162861428Y-105428927D01*
X162867030Y-105335932D01*
X162867912Y-105317617D01*
X162869525Y-105282004D01*
X162871123Y-105244419D01*
X162872560Y-105208338D01*
X162873689Y-105177234D01*
X162874554Y-105155886D01*
X162875874Y-105131958D01*
X162877382Y-105111486D01*
X162878952Y-105096139D01*
X162880459Y-105087585D01*
X162886731Y-105074716D01*
X162900815Y-105059234D01*
X162919229Y-105047500D01*
X162939613Y-105041358D01*
X162961538Y-105038450D01*
X162959147Y-104953377D01*
X162958585Y-104935426D01*
X162957141Y-104902451D01*
X162955092Y-104872002D01*
X162952224Y-104842284D01*
X162948323Y-104811501D01*
X162943175Y-104777855D01*
X162936565Y-104739552D01*
X162928278Y-104694795D01*
X162919037Y-104648404D01*
X162908854Y-104603135D01*
X162897631Y-104559542D01*
X162884725Y-104515291D01*
X162869492Y-104468051D01*
X162851291Y-104415488D01*
X162839572Y-104382485D01*
X162822755Y-104334964D01*
X162808464Y-104294282D01*
X162796485Y-104259745D01*
X162786605Y-104230657D01*
X162778609Y-104206324D01*
X162772283Y-104186051D01*
X162767414Y-104169145D01*
X162763787Y-104154909D01*
X162761188Y-104142651D01*
X162759404Y-104131675D01*
X162758221Y-104121286D01*
X162757424Y-104110790D01*
X162756659Y-104099332D01*
X162755122Y-104083557D01*
X162752665Y-104070751D01*
X162748526Y-104058304D01*
X162741945Y-104043603D01*
X162732161Y-104024036D01*
X162712808Y-103987301D01*
X162685800Y-103940086D01*
X162656272Y-103893002D01*
X162623444Y-103844918D01*
X162586537Y-103794704D01*
X162544773Y-103741230D01*
X162497372Y-103683366D01*
X162451351Y-103628598D01*
X162383478Y-103549212D01*
X162319491Y-103476252D01*
X162258943Y-103409313D01*
X162201387Y-103347993D01*
X162146377Y-103291886D01*
X162093465Y-103240588D01*
X162042205Y-103193695D01*
X161992149Y-103150802D01*
X161942852Y-103111505D01*
X161893866Y-103075401D01*
X161844744Y-103042084D01*
X161795039Y-103011150D01*
X161744305Y-102982196D01*
X161692095Y-102954816D01*
X161637667Y-102928573D01*
X161529913Y-102883242D01*
X161419627Y-102845518D01*
X161306489Y-102815333D01*
X161190178Y-102792618D01*
X161070374Y-102777305D01*
X160946756Y-102769326D01*
X160819004Y-102768611D01*
X160782077Y-102769616D01*
X160736031Y-102771489D01*
X160691786Y-102774131D01*
X160648585Y-102777681D01*
X160605670Y-102782284D01*
X160562282Y-102788080D01*
X160517665Y-102795212D01*
X160471060Y-102803822D01*
X160421710Y-102814052D01*
X160368856Y-102826044D01*
X160311742Y-102839940D01*
X160249608Y-102855883D01*
X160181699Y-102874014D01*
X160107255Y-102894476D01*
X160025519Y-102917410D01*
X159987474Y-102928159D01*
X159931664Y-102943875D01*
X159882509Y-102957636D01*
X159839095Y-102969689D01*
X159800510Y-102980279D01*
X159765841Y-102989653D01*
X159734173Y-102998056D01*
X159704593Y-103005735D01*
X159676189Y-103012936D01*
X159648047Y-103019905D01*
X159619254Y-103026888D01*
X159554294Y-103042026D01*
X159476937Y-103058589D01*
X159402796Y-103072607D01*
X159330918Y-103084115D01*
X159260354Y-103093150D01*
X159190151Y-103099750D01*
X159119359Y-103103951D01*
X159047027Y-103105791D01*
X158972203Y-103105306D01*
X158893936Y-103102533D01*
X158811275Y-103097510D01*
X158723269Y-103090272D01*
X158628967Y-103080858D01*
X158527418Y-103069304D01*
X158468364Y-103062281D01*
X158377773Y-103051679D01*
X158293344Y-103042047D01*
X158213702Y-103033244D01*
X158137470Y-103025133D01*
X158063275Y-103017573D01*
X157989739Y-103010427D01*
X157915488Y-103003555D01*
X157839146Y-102996819D01*
X157759337Y-102990079D01*
X157674685Y-102983197D01*
X157651391Y-102981354D01*
X157587483Y-102976487D01*
X157520727Y-102971653D01*
X157451931Y-102966896D01*
X157381900Y-102962262D01*
X157311439Y-102957795D01*
X157241357Y-102953540D01*
X157172457Y-102949543D01*
X157105547Y-102945848D01*
X157041433Y-102942500D01*
X156980920Y-102939544D01*
X156924814Y-102937025D01*
X156873923Y-102934988D01*
X156829051Y-102933479D01*
X156791004Y-102932541D01*
X156760590Y-102932220D01*
X156732638Y-102932352D01*
X156699824Y-102932965D01*
X156668864Y-102934214D01*
X156638753Y-102936244D01*
X156608485Y-102939203D01*
X156577055Y-102943236D01*
X156543457Y-102948491D01*
X156506687Y-102955114D01*
X156465739Y-102963250D01*
X156419608Y-102973048D01*
X156367288Y-102984653D01*
X156307774Y-102998211D01*
X156301706Y-102999607D01*
X156231947Y-103015854D01*
X156169101Y-103030924D01*
X156111874Y-103045183D01*
X156058969Y-103058997D01*
X156009090Y-103072732D01*
X155960943Y-103086754D01*
X155913230Y-103101430D01*
X155864656Y-103117125D01*
X155813924Y-103134206D01*
X155759740Y-103153038D01*
X155687477Y-103179217D01*
X155527977Y-103242186D01*
X155369027Y-103311931D01*
X155211857Y-103387816D01*
X155057698Y-103469205D01*
X154907780Y-103555461D01*
X154763332Y-103645947D01*
X154625585Y-103740026D01*
X154616071Y-103746841D01*
X154591263Y-103764803D01*
X154567567Y-103782213D01*
X154546435Y-103797992D01*
X154529319Y-103811058D01*
X154517671Y-103820331D01*
X154508724Y-103827963D01*
X154493756Y-103841290D01*
X154477725Y-103856064D01*
X154461859Y-103871101D01*
X154447384Y-103885217D01*
X154435527Y-103897229D01*
X154427513Y-103905952D01*
X154424569Y-103910203D01*
X154424582Y-103910328D01*
X154428610Y-103912990D01*
X154437663Y-103915566D01*
X154442490Y-103916706D01*
X154463238Y-103924279D01*
X154486293Y-103935941D01*
X154508822Y-103950130D01*
X154527993Y-103965290D01*
X154531111Y-103968206D01*
X154550885Y-103990980D01*
X154567357Y-104018915D01*
X154570273Y-104024848D01*
X154576433Y-104038231D01*
X154580252Y-104049326D01*
X154582284Y-104060820D01*
X154583083Y-104075402D01*
X154583204Y-104095759D01*
X154583183Y-104100169D01*
X154583094Y-104102604D01*
X154582232Y-104126266D01*
X154579666Y-104146664D01*
X154575213Y-104163689D01*
X154564299Y-104191876D01*
X154546477Y-104227145D01*
X154523673Y-104262289D01*
X154495021Y-104298606D01*
X154459656Y-104337396D01*
X154411660Y-104387178D01*
X154258230Y-104387178D01*
X154254018Y-104376940D01*
X154239185Y-104339914D01*
X154227488Y-104308560D01*
X154218564Y-104281373D01*
X154212050Y-104256847D01*
X154207583Y-104233476D01*
X154204800Y-104209752D01*
X154203338Y-104184171D01*
X154203084Y-104169573D01*
X154343048Y-104169573D01*
X154344432Y-104191498D01*
X154344958Y-104195963D01*
X154347292Y-104213052D01*
X154349686Y-104227076D01*
X154351696Y-104235356D01*
X154353470Y-104239379D01*
X154356276Y-104240814D01*
X154361274Y-104237346D01*
X154370226Y-104228304D01*
X154393328Y-104201847D01*
X154412779Y-104174858D01*
X154427794Y-104148693D01*
X154437979Y-104124294D01*
X154442941Y-104102604D01*
X154442290Y-104084567D01*
X154435631Y-104071126D01*
X154429458Y-104066023D01*
X154415309Y-104058312D01*
X154398186Y-104051605D01*
X154381345Y-104047111D01*
X154368045Y-104046039D01*
X154364803Y-104046472D01*
X154356378Y-104050401D01*
X154351875Y-104060007D01*
X154350039Y-104067999D01*
X154346732Y-104089814D01*
X154344358Y-104115901D01*
X154343076Y-104143431D01*
X154343048Y-104169573D01*
X154203084Y-104169573D01*
X154202835Y-104155225D01*
X154202808Y-104145640D01*
X154203038Y-104118560D01*
X154203911Y-104096911D01*
X154205620Y-104078368D01*
X154208360Y-104060608D01*
X154212322Y-104041307D01*
X154223830Y-103996241D01*
X154241983Y-103943865D01*
X154264813Y-103895987D01*
X154293217Y-103851030D01*
X154328093Y-103807414D01*
X154370338Y-103763562D01*
X154382838Y-103751807D01*
X154421509Y-103718009D01*
X154466965Y-103681428D01*
X154518510Y-103642533D01*
X154575448Y-103601795D01*
X154637083Y-103559680D01*
X154702721Y-103516660D01*
X154771663Y-103473202D01*
X154843216Y-103429777D01*
X154916683Y-103386852D01*
X154991368Y-103344898D01*
X155000924Y-103339652D01*
X155152702Y-103259957D01*
X155306998Y-103185583D01*
X155462817Y-103116931D01*
X155619160Y-103054400D01*
X155775031Y-102998391D01*
X155929433Y-102949305D01*
X156081367Y-102907540D01*
X156128611Y-102895738D01*
X156193332Y-102879980D01*
X156256548Y-102865046D01*
X156317428Y-102851115D01*
X156375140Y-102838368D01*
X156428854Y-102826982D01*
X156477736Y-102817137D01*
X156520956Y-102809012D01*
X156557681Y-102802786D01*
X156587081Y-102798638D01*
X156593023Y-102797977D01*
X156622132Y-102795708D01*
X156658530Y-102794103D01*
X156701293Y-102793158D01*
X156749499Y-102792866D01*
X156802226Y-102793224D01*
X156858552Y-102794226D01*
X156917554Y-102795868D01*
X156978310Y-102798145D01*
X157039897Y-102801051D01*
X157123513Y-102805509D01*
X157263461Y-102813449D01*
X157397143Y-102821703D01*
X157525953Y-102830389D01*
X157651289Y-102839626D01*
X157774545Y-102849534D01*
X157897118Y-102860232D01*
X158020402Y-102871838D01*
X158145795Y-102884471D01*
X158274691Y-102898251D01*
X158408487Y-102913297D01*
X158548578Y-102929727D01*
X158633369Y-102939454D01*
X158724744Y-102948813D01*
X158809695Y-102956087D01*
X158889185Y-102961237D01*
X158964181Y-102964225D01*
X159035646Y-102965012D01*
X159104544Y-102963557D01*
X159171839Y-102959823D01*
X159238498Y-102953770D01*
X159305483Y-102945360D01*
X159373759Y-102934553D01*
X159444290Y-102921310D01*
X159518042Y-102905593D01*
X159595978Y-102887361D01*
X159602362Y-102885811D01*
X159627647Y-102879639D01*
X159650984Y-102873871D01*
X159673290Y-102868261D01*
X159695482Y-102862560D01*
X159718477Y-102856521D01*
X159743192Y-102849896D01*
X159770544Y-102842438D01*
X159801452Y-102833900D01*
X159836830Y-102824033D01*
X159877598Y-102812591D01*
X159924671Y-102799325D01*
X159978967Y-102783989D01*
X160041769Y-102766335D01*
X160119279Y-102744895D01*
X160190039Y-102725810D01*
X160254796Y-102708935D01*
X160314293Y-102694127D01*
X160369277Y-102681241D01*
X160420493Y-102670132D01*
X160468686Y-102660656D01*
X160514601Y-102652668D01*
X160558985Y-102646024D01*
X160602581Y-102640579D01*
X160646136Y-102636189D01*
X160690395Y-102632709D01*
X160736103Y-102629995D01*
X160784005Y-102627902D01*
X160817867Y-102626888D01*
X160950227Y-102627736D01*
X161079852Y-102636295D01*
X161206557Y-102652504D01*
X161330156Y-102676303D01*
X161450463Y-102707633D01*
X161567295Y-102746434D01*
X161680464Y-102792646D01*
X161789786Y-102846210D01*
X161895075Y-102907064D01*
X161996146Y-102975150D01*
X162092813Y-103050408D01*
X162124223Y-103077297D01*
X162182818Y-103130630D01*
X162245347Y-103191375D01*
X162311777Y-103259498D01*
X162382077Y-103334964D01*
X162456212Y-103417739D01*
X162534150Y-103507787D01*
X162615859Y-103605075D01*
X162627365Y-103619036D01*
X162686291Y-103693186D01*
X162738345Y-103763545D01*
X162783844Y-103830602D01*
X162823109Y-103894846D01*
X162856457Y-103956766D01*
X162884207Y-104016851D01*
X162889582Y-104029617D01*
X162900182Y-104055293D01*
X162907845Y-104075118D01*
X162912912Y-104090428D01*
X162915726Y-104102554D01*
X162916631Y-104112832D01*
X162915968Y-104122595D01*
X162914079Y-104133177D01*
X162909036Y-104157341D01*
X162945823Y-104258907D01*
X162954033Y-104281685D01*
X162972547Y-104333915D01*
X162989652Y-104383379D01*
X163005066Y-104429224D01*
X163018513Y-104470599D01*
X163029711Y-104506651D01*
X163038381Y-104536527D01*
X163044245Y-104559374D01*
X163055488Y-104610366D01*
X163072748Y-104698859D01*
X163086198Y-104782933D01*
X163095770Y-104861995D01*
X163101400Y-104935455D01*
X163103020Y-105002718D01*
X163101569Y-105038450D01*
X163100564Y-105063193D01*
G37*
G04 #@! TD*
M02*
