G04 #@! TF.GenerationSoftware,KiCad,Pcbnew,7.0.5-0*
G04 #@! TF.CreationDate,2023-07-20T07:38:15-04:00*
G04 #@! TF.ProjectId,Lemmingometre_JST,4c656d6d-696e-4676-9f6d-657472655f4a,rev?*
G04 #@! TF.SameCoordinates,Original*
G04 #@! TF.FileFunction,Soldermask,Top*
G04 #@! TF.FilePolarity,Negative*
%FSLAX46Y46*%
G04 Gerber Fmt 4.6, Leading zero omitted, Abs format (unit mm)*
G04 Created by KiCad (PCBNEW 7.0.5-0) date 2023-07-20 07:38:15*
%MOMM*%
%LPD*%
G01*
G04 APERTURE LIST*
G04 Aperture macros list*
%AMRoundRect*
0 Rectangle with rounded corners*
0 $1 Rounding radius*
0 $2 $3 $4 $5 $6 $7 $8 $9 X,Y pos of 4 corners*
0 Add a 4 corners polygon primitive as box body*
4,1,4,$2,$3,$4,$5,$6,$7,$8,$9,$2,$3,0*
0 Add four circle primitives for the rounded corners*
1,1,$1+$1,$2,$3*
1,1,$1+$1,$4,$5*
1,1,$1+$1,$6,$7*
1,1,$1+$1,$8,$9*
0 Add four rect primitives between the rounded corners*
20,1,$1+$1,$2,$3,$4,$5,0*
20,1,$1+$1,$4,$5,$6,$7,0*
20,1,$1+$1,$6,$7,$8,$9,0*
20,1,$1+$1,$8,$9,$2,$3,0*%
G04 Aperture macros list end*
%ADD10C,1.600000*%
%ADD11O,1.600000X1.600000*%
%ADD12R,2.000000X2.000000*%
%ADD13O,2.000000X1.600000*%
%ADD14RoundRect,0.250000X0.625000X-0.350000X0.625000X0.350000X-0.625000X0.350000X-0.625000X-0.350000X0*%
%ADD15O,1.750000X1.200000*%
%ADD16RoundRect,0.250000X-0.350000X-0.625000X0.350000X-0.625000X0.350000X0.625000X-0.350000X0.625000X0*%
%ADD17O,1.200000X1.750000*%
%ADD18R,1.050000X1.500000*%
%ADD19O,1.050000X1.500000*%
%ADD20C,2.000000*%
G04 APERTURE END LIST*
D10*
G04 #@! TO.C,R2*
X172075000Y-44955000D03*
D11*
X172075000Y-52575000D03*
G04 #@! TD*
D12*
G04 #@! TO.C,MCU1*
X147090000Y-94150000D03*
D13*
X147090000Y-96690000D03*
X147090000Y-99230000D03*
X147090000Y-101770000D03*
X147090000Y-104310000D03*
X147090000Y-106850000D03*
X147090000Y-109390000D03*
X147090000Y-111930000D03*
X169950000Y-111930000D03*
X169950000Y-109390000D03*
X169950000Y-106850000D03*
X169950000Y-104310000D03*
X169950000Y-101770000D03*
X169950000Y-99230000D03*
X169950000Y-96690000D03*
X169950000Y-94150000D03*
G04 #@! TD*
D14*
G04 #@! TO.C,H4*
X147000000Y-60950000D03*
D15*
X147000000Y-58950000D03*
X147000000Y-56950000D03*
X147000000Y-54950000D03*
G04 #@! TD*
D16*
G04 #@! TO.C,H3*
X153000000Y-45750000D03*
D17*
X155000000Y-45750000D03*
X157000000Y-45750000D03*
G04 #@! TD*
D16*
G04 #@! TO.C,H1*
X162250000Y-45750000D03*
D17*
X164250000Y-45750000D03*
G04 #@! TD*
D10*
G04 #@! TO.C,R4*
X172620000Y-58500000D03*
D11*
X165000000Y-58500000D03*
G04 #@! TD*
D10*
G04 #@! TO.C,R1*
X168725000Y-44905000D03*
D11*
X168725000Y-52525000D03*
G04 #@! TD*
D18*
G04 #@! TO.C,NPN2*
X158480000Y-57360000D03*
D19*
X159750000Y-57360000D03*
X161020000Y-57360000D03*
G04 #@! TD*
D10*
G04 #@! TO.C,C1*
X152250000Y-52250000D03*
X154750000Y-52250000D03*
G04 #@! TD*
G04 #@! TO.C,R3*
X172620000Y-55375000D03*
D11*
X165000000Y-55375000D03*
G04 #@! TD*
D20*
G04 #@! TO.C,SD1*
X149440000Y-69370000D03*
X149440000Y-71910000D03*
X149440000Y-74450000D03*
X149440000Y-76990000D03*
X149440000Y-79530000D03*
X149440000Y-82070000D03*
G04 #@! TD*
D10*
G04 #@! TO.C,C2*
X160250000Y-52250000D03*
X162750000Y-52250000D03*
G04 #@! TD*
D18*
G04 #@! TO.C,NPN1*
X152580000Y-57350000D03*
D19*
X153850000Y-57350000D03*
X155120000Y-57350000D03*
G04 #@! TD*
D14*
G04 #@! TO.C,H2*
X147000000Y-50000000D03*
D15*
X147000000Y-48000000D03*
X147000000Y-46000000D03*
G04 #@! TD*
D20*
G04 #@! TO.C,RTC1*
X153980000Y-62940000D03*
X156520000Y-62940000D03*
X159060000Y-62940000D03*
X161600000Y-62940000D03*
X164140000Y-62940000D03*
G04 #@! TD*
M02*
