M48
; DRILL file {KiCad 7.0.5-0} date 2023 July 20, Thursday 07:38:18
; FORMAT={-:-/ absolute / inch / decimal}
; #@! TF.CreationDate,2023-07-20T07:38:18-04:00
; #@! TF.GenerationSoftware,Kicad,Pcbnew,7.0.5-0
; #@! TF.FileFunction,Plated,1,2,PTH
FMAT,2
INCH
; #@! TA.AperFunction,Plated,PTH,ViaDrill
T1C0.0157
; #@! TA.AperFunction,Plated,PTH,ComponentDrill
T2C0.0295
; #@! TA.AperFunction,Plated,PTH,ComponentDrill
T3C0.0315
; #@! TA.AperFunction,Plated,PTH,ComponentDrill
T4C0.0354
; #@! TA.AperFunction,Plated,PTH,ComponentDrill
T5C0.0394
%
G90
G05
T1
X5.7638Y-2.5728
X5.813Y-2.5295
X5.9154Y-2.5689
X6.1122Y-2.6673
T2
X5.7874Y-1.811
X5.7874Y-1.8898
X5.7874Y-1.9685
X5.7874Y-2.1634
X5.7874Y-2.2421
X5.7874Y-2.3209
X5.7874Y-2.3996
X6.0071Y-2.2579
X6.0236Y-1.8012
X6.0571Y-2.2579
X6.1024Y-1.8012
X6.1071Y-2.2579
X6.1811Y-1.8012
X6.2394Y-2.2583
X6.2894Y-2.2583
X6.3394Y-2.2583
X6.3878Y-1.8012
X6.4665Y-1.8012
T3
X5.9941Y-2.0571
X6.0925Y-2.0571
X6.3091Y-2.0571
X6.4075Y-2.0571
X6.4961Y-2.1801
X6.4961Y-2.3031
X6.6427Y-1.7679
X6.6427Y-2.0679
X6.7746Y-1.7699
X6.7746Y-2.0699
X6.7961Y-2.1801
X6.7961Y-2.3031
T4
X5.8835Y-2.7311
X5.8835Y-2.8311
X5.8835Y-2.9311
X5.8835Y-3.0311
X5.8835Y-3.1311
X5.8835Y-3.2311
X6.0622Y-2.478
X6.1622Y-2.478
X6.2622Y-2.478
X6.3622Y-2.478
X6.4622Y-2.478
T5
X5.7909Y-3.7067
X5.7909Y-3.8067
X5.7909Y-3.9067
X5.7909Y-4.0067
X5.7909Y-4.1067
X5.7909Y-4.2067
X5.7909Y-4.3067
X5.7909Y-4.4067
X6.6909Y-3.7067
X6.6909Y-3.8067
X6.6909Y-3.9067
X6.6909Y-4.0067
X6.6909Y-4.1067
X6.6909Y-4.2067
X6.6909Y-4.3067
X6.6909Y-4.4067
T0
M30
